<svg width="33" height="32" fill="none" xmlns="http://www.w3.org/2000/svg"><g clip-path="url(#a)"><path d="M6 21.333v8h21.333v-8c0-1.466-1.2-2.666-2.666-2.666h-16A2.674 2.674 0 0 0 6 21.333ZM24.667 24h-16v-2.667h16V24Zm-8-21.333A6.67 6.67 0 0 0 10 9.333l6.667 9.334 6.666-9.334a6.67 6.67 0 0 0-6.666-6.666Zm0 12-4-5.334c0-2.213 1.786-4 4-4 2.213 0 4 1.787 4 4l-4 5.334Z" fill="#fff"/></g><defs><clipPath id="a"><path fill="#fff" transform="translate(.667)" d="M0 0h32v32H0z"/></clipPath></defs></svg>