<svg width="354" height="91" fill="none" xmlns="http://www.w3.org/2000/svg"><path d="M49 36.132a.375.375 0 0 1-.153.153ZM50.402 25.178c.162 0 .292-.13.292-.297a.292.292 0 1 0-.584 0c0 .162.13.297.292.297ZM63.974 12.803H53.419l.01 8.527c0 .821.347 1.54.83 1.764l4.061 2.422a.49.49 0 0 0 .701.038l4.122-2.465c.483-.223.83-.942.83-1.764l.01-8.526-.01.004Zm-7.046 2.47h-.914V13.09h.914v2.182Zm-.664.76.13-.134-.084-.148.172.018.102-.18.102.175.172-.013-.079.148.13.135-.167.032v.186l-.158-.116-.157.116v-.186l-.167-.032h.004Zm-2.548 2.716v-2.07h1.11v2.07h-1.11Zm.18-2.998.173.018.102-.18.102.175.172-.013-.08.148.13.135-.166.032v.186l-.158-.116-.158.116v-.186l-.167-.032.13-.135-.08-.148Zm1.254 2.107.172.018.102-.18.102.176.172-.014-.08.148.13.135-.166.033v.185l-.158-.116-.158.116v-.186l-.167-.032.13-.135-.079-.148Zm.738-1.666c-.01-.056-.079-.07-.111-.07-.098 0-.14.162-.223.167-.06 0-.107.01-.107-.065 0-.056.125-.098.177-.144-.683 0-.697.316-.803.316-.181 0 .148-.33.246-.427-.14-.024-.219-.195-.372-.279.07-.102.112-.06.2.014 0-.074.056-.158.213-.158.307 0 .219.297.27.297.05 0 0-.297.204-.297.301 0 .682.78.339.78-.149 0-.028-.111-.033-.13v-.005Zm-.784-2.284.13-.135-.08-.148.172.018.103-.18.102.176.172-.014-.08.148.13.135-.166.032v.186l-.158-.116-.158.116v-.186l-.167-.032Zm-.279-.822v2.182h-1.11v-2.182h1.11Zm2.103 11.265-2.525-1.508c-.422-.288-.631-.794-.687-1.407v-2.4h3.212v5.315Zm-.914-5.602v-2.07h.914v2.07h-.914Zm4.168 5.774-1.165.696h-.019a.49.49 0 0 1-.617-.005l-1.16-.69v-5.487h2.965v5.486h-.004Zm0-5.774h-2.966v-5.658h2.966v5.658Zm3.5 2.688c-.056.612-.265 1.118-.688 1.406L60.47 24.35v-5.314h3.212v2.4Zm0-2.688h-3.213v-5.658h3.212v5.658Z" fill="#fff"/><path d="M56.756 20.986c-.014-.032-.404.13-.292.116.009-.116.227-.348.32-.431-.018-.135-.19-.014-.371.083.599-.859.213-.506-.121-.445.538-.58.395-.567 0-.39.311-.246.376-.539.33-.627-.293.39-.562.33-.562.687 0 .237-.084.627-.209.757-.158.171-.037-.636-.45-.636-.13 0-.441-.01-.539.148.084 0 .21.214.21.297 0 .084.078.32-.066.32-.144 0-.306-.296-.306-.436 0-.139-.01-.106-.01-.31 0-.34-.556-.822-.78-.822 0 .236.312.292.312.598-.13 0-.32-.245-.32-.092s.2.18.2.31-.228-.046-.228.093c0 .126.125.103.153.228-.093-.028-.172-.014-.19.032-.014.042.027.093.097.135-.032.028-.06.102-.06.302 0 .673.422.984.733.984.218 0 .186-.153.214-.228.009.116.116-.055.116.144 0 .2-.214.116-.214.297 0 .242.339-.009.339.26 0 .32-.042.316-.042.437 0 .083.353-.117.334-.154.084.033.084.284.237.274.102 0 .126-.255.204-.278-.046.014.32.241.32.125 0-.316-.13-.181-.13-.395 0-.2.437-.162.367-.26-.055-.083-.097-.032-.143-.18.009.027-.344-.497.074-.228.436.283.483-.664.46-.71l.013-.005ZM68.017 23.219c.19 0 .348-.14.348-.306 0-.168-.153-.307-.348-.307-.195 0-.348.135-.348.306 0 .172.153.307.348.307ZM66.615 24.05c.19 0 .348-.135.348-.307 0-.171-.153-.306-.348-.306-.195 0-.348.14-.348.306 0 .168.153.307.348.307ZM49.928 25.976c.19 0 .349-.14.349-.306 0-.168-.158-.307-.349-.307-.19 0-.348.14-.348.307 0 .167.158.306.348.306ZM51.01 26.069c.19 0 .348-.14.348-.306 0-.168-.153-.307-.348-.307-.195 0-.348.135-.348.306 0 .172.153.307.348.307ZM81.05 11.508c.515.613.627 1.597.26 2.298-.204-.019-.167-.279-.204-.427-.367-.687-.664-1.56-.33-2.335.242.037.149.334.279.464h-.005ZM36.974 12.344c-.112.445-.112 1.058 0 1.466-.093.093-.074-.092-.167-.074-.72-.52-.386-1.54-.571-2.26a.144.144 0 0 1 .186-.038c.329.223.478.539.552.91v-.004ZM82.633 12.4c.111.204-.093.408-.241.5-.167.038-.349-.055-.46-.204-.056-.204.056-.39.223-.482.186-.019.367.018.478.185ZM35.85 13.216c-.036.167-.092.335-.236.409-.111 0-.278 0-.348-.093-.112-.093-.13-.26-.074-.39.074-.13.222-.149.348-.167.13.056.26.093.31.241ZM83.348 13.532a.41.41 0 0 1 0 .297c-.13.167-.311.241-.497.167-.13-.074-.167-.204-.204-.316.037-.148.186-.278.31-.334.168 0 .275.093.386.186h.005ZM82.299 13.55c.148.075.037.26.018.372-.092.093-.222.241-.385.185-.093-.092-.2-.092-.237-.222 0-.186.075-.372.26-.427.149-.037.242.037.348.092H82.3ZM80.957 13.829c0 .204.019.464-.222.501-.223.075-.367-.111-.423-.26a.442.442 0 0 1 .274-.445c.149 0 .279.093.367.204h.004ZM37.856 13.922c.055.185-.13.297-.237.39-.13.037-.297-.075-.371-.204-.13-.13.037-.242.074-.353.186-.167.46-.037.534.167ZM36.751 13.977c0 .149-.074.298-.2.353-.148.056-.292-.055-.366-.167-.093-.186.018-.353.167-.427.204-.074.33.111.404.241h-.005ZM76.501 14.052c.186.39.33.854.367 1.337-.074.352.056.817-.204 1.058-.26-.093-.274-.409-.441-.576-.33-.65-.037-1.41.074-2.042.149-.056.149.13.204.223ZM35.888 14.274c.055.223-.112.335-.242.465-.223.055-.367-.112-.46-.26a.465.465 0 0 1 .242-.446.472.472 0 0 1 .46.242ZM79.407 14.808c.241.539.26 1.189.093 1.783l-.112.092c-.26-.5-.626-.965-.756-1.503 0-.39.074-.743.223-1.059.13-.092.204.019.255.13.019.205.111.446.292.557h.005ZM81.728 14.479c-.019.186-.093.39-.279.445-.185.037-.366-.018-.422-.222-.056-.186.056-.353.204-.446.205-.111.404.074.497.223ZM36.77 15.05c0 .148-.13.315-.279.352-.148.112-.255-.074-.385-.13-.056-.148-.093-.278 0-.427.055-.11.185-.11.297-.148.167.093.33.167.367.353ZM37.577 14.957c.075.185-.13.278-.204.371-.223.075-.33-.093-.422-.223-.038-.185.074-.297.204-.408.223-.056.33.093.422.26ZM82.243 14.901c-.018.242-.385.483-.422.724-.204.502-.645.873-1.142 1.04-.111.093-.26.223-.422.241-.038-.371.297-.705.496-1.04a2.72 2.72 0 0 1 1.49-.965ZM36.403 15.681c.274.316.422.594.757.873.018.074-.038.185-.13.185-.9-.056-1.509-.984-1.95-1.634.056-.204.293-.037.422-.055.311.241.664.315.9.631ZM82.503 15.94c-.037.8-.422 1.616-1.142 2.001-.204.075-.422.279-.626.149.385-.798.974-1.448 1.62-2.15h.148ZM78.966 16.48c.056.278-.093.445-.31.538-.205.018-.33-.149-.423-.297a.387.387 0 0 1 .26-.409c.055-.056.148-.056.222-.056.112.038.167.13.26.223h-.009ZM35.386 16.646c.349.242.664.576.994.873-.237.167-.534.019-.813.019-.626-.223-1.048-.762-1.694-.947.019-.204.256-.13.386-.186.403-.037.737.149 1.123.241h.004Z" fill="#fff"/><path d="M55.108 11.16c-1.03-.408-1.712.668-2.761.538-.13.075-.093.205-.167.298-.056.055-.149.018-.205-.019-.055-.446-.204-.854-.26-1.281-.11-.186-.055-.446-.148-.631-.59-1.616 1.434-.39 1.843-1.337.353-.817-.683-.91-.994-1.485V7c-.292-.297-.608-.39-.793-.78.13-.464.185-.965.055-1.43-.018-.11-.092-.26-.255-.203-.348.482-.608.872-.938 1.336-.348-.26-.682-.594-1.086-.817-.278-.037-.533-.315-.844-.204-.056.112 0 .204.055.279.019.724.386 1.3.9 1.82l.056.278c-.33.76-.24 1.629-.33 2.446-.83 2.112-2.171 4.154-3.995 5.616-1.05 1.188-2.303 2.335-2.47 3.969-.056.26.037.575-.167.76-.608-.222-1.216-.519-1.713-.909-.844-.594-2.06-.52-2.613-1.596-.223-.428.056-.855.255-1.17.627-.594.534-1.653.205-2.372-.075-.019-.093.074-.149.093-.056 1.095-.919 1.856-.59 3.059.075.352.26.575.349.91-.13-.038-.311-.038-.423-.093-.403-.056-.812-.223-1.234-.168-.845.39-2.005-.092-2.688.687-.111.019-.26.037-.222.205.403 0 .788.111 1.197.092.645.112 1.068-.427 1.508-.668h.112c.186-.186.497-.074.738-.111 1.16.13 2.06.687 3.017 1.262v.074c-.367.168-.79.279-1.16.483-.423.316-.9.724-1.03 1.244-.293.464.092.873.278 1.263.018.185.037.408.204.482.59-.631.037-1.41.13-2.13.148-.557.664-.817 1.197-.966 1.05-.445 1.806.409 2.65.892-.018.854.093 1.67-.092 2.501-.26.093-.59.149-.868.13-1.453.112-2.595.91-3.904 1.356-.59.204-1.29.185-1.88.408.46.13.938-.037 1.416-.056 1.806-.26 3.184-1.652 5.138-1.41l.037.055a4.434 4.434 0 0 1-.863 1.207c-.056-.204-.074-.371-.26-.483-.148-.074-.31 0-.422.149-.056.093-.056.204 0 .278.093.167.241.204.404.26-.038.167-.242.241-.348.39-.516.873-1.565.52-2.173 1.133-.093.13-.422.204-.278.408.7.074 1.383-.111 1.898-.483.682-.76 1.402-1.48 2.08-2.204.111.594-.056 1.206-.404 1.69-.167-.094-.297-.224-.497-.28-.186.038-.31.223-.33.372.075.13.15.278.274.371-.626.446-1.415.483-2.135.687-1.341.167-2.65.279-4.015.297-.645-.037-1.383.186-1.986 0-.701.13-1.453-.093-2.024.297-.074.093.019.186.019.279.849.557 2.01.111 2.966.278h7.254c.534-.018 1.068-.037 1.49-.278.938-.539 1.453-1.504 1.936-2.446.185-.334.31-.724.385-1.114a1.605 1.605 0 0 1 1.379-1.133c.092.966-.093 1.926-.311 2.818-.112.594-.497 1.17-.26 1.796.055.297.366.297.608.334 2.228-.037 4.456-.13 6.814.037.422.075.793.204 1.253.186.037-.056.167-.074.111-.186-.055-.204-.204-.464-.44-.52-.038-.111-.205-.074-.26-.148-1.18-.669-2.595-.316-3.979-.297-.719.074-1.434.204-2.042-.204-.274-.335-.074-1.393-.074-1.393 0-.418 1.012-3.337 1.142-3.579.037-.278.148-.538.111-.854.149-.371.112-.854.112-1.262.074-.594.366-1.151.57-1.727.112-.278.205-.575.312-.854.11-.353.148-.687.366-.965.599.38 1.188.371 1.476 1.049l.255 1.545c0 .093.075.279.205.167.478-.315.33-1.02.33-1.503.11-.576-.293-.855-.46-1.356-.13-.093-.34-.534-.34-.534-.073-.408-.965-.687-.765-1.188.111-.427.223-.817.627-1.058.06.042.083.084.093.13l.222-.153.024-1.55c.594 0 1.485.074 2.093.074.167.055.297.185.478.204l.148-.204 1.49-.293c-.63.07-1.016-.659-1.62-.659v.014ZM56.728 11.815a.834.834 0 0 0 .14-.028l-.14.028Z" fill="#fff"/><path d="M40.692 16.98c.018.223-.111.353-.279.428-.148-.056-.255-.075-.348-.223-.074-.204.112-.353.256-.427.148.037.33.056.366.223h.005ZM39.494 16.98c.111.112.13.298.074.428-.13.111-.33.204-.44.055-.112-.111-.223-.241-.13-.39.13-.13.348-.24.496-.092ZM65.12 17.185l.014.028ZM79.152 17.5c.074.205-.093.353-.237.427-.186-.055-.422-.092-.422-.334.018-.148.148-.241.273-.278.168-.056.311.074.386.185ZM80.126 17.463c.056.093.186.242.038.334-.075.056-.13.075-.186.15-.204.036-.385-.038-.441-.224-.037-.204.13-.297.278-.39.13-.037.223.056.311.13ZM34.871 17.686c-.074.223-.26.316-.497.241a.764.764 0 0 1-.148-.24c.019-.13.056-.26.204-.317.223.02.385.112.441.316ZM41.077 18.002c-.019.148-.186.278-.311.353-.186.018-.316-.13-.404-.26 0-.149.074-.335.223-.372.204-.074.422.075.497.279h-.005ZM39.99 17.872c.057.055.112.204.057.297-.112.093-.279.26-.46.148-.111-.092-.241-.167-.204-.352.074-.075.167-.186.278-.223.149-.037.223.055.33.13ZM82.944 18.095c0 .148-.148.297-.241.352a.359.359 0 0 1-.404-.092c-.112-.038-.074-.186-.074-.279a.647.647 0 0 1 .348-.241c.167.037.278.148.366.26h.005ZM84.123 18.262c-.056.167-.186.315-.348.334-.112-.019-.311-.056-.274-.223 0-.13.074-.26.167-.297a.324.324 0 0 1 .46.186h-.005ZM36.974 18.522c.037.222-.037.37-.223.445-.13.075-.26-.018-.348-.093-.093-.092-.167-.241-.093-.371.037-.167.204-.13.311-.204.167.018.26.093.348.223h.005ZM37.874 18.684c.056.149-.111.204-.148.316-.093.055-.223.111-.33.037-.13-.112-.278-.279-.148-.446.148-.278.533-.13.626.093ZM81.858 18.596c.018.186-.149.316-.255.427a.314.314 0 0 1-.367-.223c-.019-.148.074-.26.204-.353.167-.018.33 0 .422.149h-.004ZM83.366 18.888c-.037.167-.018.353-.204.464-.148.038-.33.019-.44-.074-.112-.093-.13-.26-.075-.39.093-.148.26-.26.44-.223.13.075.168.168.28.223ZM36.273 19.278c.074.149-.093.186-.149.26-.13.074-.26.019-.366-.037-.13-.074-.075-.26-.056-.353.167-.315.497-.093.571.13ZM82.206 19.63c.074.02.037.13.019.168-.441.223-1.105.279-1.49-.074-.223-.186-.497-.26-.738-.409.093-.241.422-.223.663-.278.534.074.957.575 1.546.594ZM37.155 19.464c.037.148-.074.204-.111.316-.075.11-.223.074-.311.037-.168-.112-.242-.316-.13-.465.204-.204.44-.092.552.112ZM38.775 19.575c.074.167-.037.316-.186.409-.13.074-.241-.037-.348-.056-.093-.13-.26-.279-.093-.427.167-.279.497-.13.627.074ZM60.061 20.36c-.032.371-.645-.051-.562.44.089.353.158.776.367 1.04.176.246.088.636.07.933-.158.265-.418.46-.701.599-.525-.051-1.295.265-1.541-.39-.107-.283-.297-.561-.297-.882.05-.037.125-.037.176-.088 0-.125-.14-.195-.12-.316.594-.106-.247-.636.264-.668.418.441 1.1.302 1.467.775.088.07.158.177.264.228-.07-.441-.278-.882-.348-1.356a.626.626 0 0 1 .21-.617c.315-.246.575.107.751.297v.005ZM40.395 20.244c.055.185-.093.297-.205.39-.167.074-.26-.112-.33-.205-.055-.185.075-.278.187-.371.13 0 .273.056.348.186ZM51.757 20.43c.223.723.149 1.466-.223 2.074-.018.149.037.39-.167.371-.496-.687-.13-1.652.074-2.372.038-.185.256-.26.311-.074h.005ZM67.515 20.782c.256.52.274 1.207.038 1.727l-.149.148c-.204-.427-.367-.854-.422-1.318.093-.334.204-.631.222-.984.26-.056.242.279.311.427ZM41.833 20.986c-.111.223-.422.279-.626.427-.441.334-1.086.409-1.639.316.478-.668 1.216-1.058 2.098-.873.038.075.13.037.167.13ZM34.268 21.655c.682.482.863 1.15 1.272 1.814.055.075.241.093.167.242-.149.111-.293-.111-.497-.074-.7-.316-1.142-1.096-1.123-1.908 0-.074.111-.074.185-.074h-.004ZM66.796 22.23c.019.186-.019.372-.167.427a.335.335 0 0 1-.422-.223c-.056-.13.055-.204.092-.297.149-.148.404-.074.497.093Z" fill="#fff"/><path d="M74.566 23.21c0-.353.093-.687.13-1.021a.67.67 0 0 0 .074-.39c.441-.595 1.346-.409 2.043-.353.278.148.626.13.918.204.13-.093.312-.111.46-.093.59-.315.204-1.002.241-1.54l-.222-.558a2.212 2.212 0 0 1-.149-.371c-.111-.13-.186-.371-.292-.501-.311-.817-.92-1.282-1.435-1.927-.937-1.225-2.413-1.912-3.885-2.39-1.452-.501-2.928.148-4.233.613-.403-.112-.608-.427-.72-.78a3.684 3.684 0 0 1 .349-1.964c.056-.464.367-.816.497-1.243.33-1.04.682-2.057.756-3.19.037-.686-.478-1.169-.993-1.466-.348-.093-.757-.074-1.012.204-.241.502-.757.836-1.198 1.077-.037.316.349.111.479.223.403.074.868-.056 1.197.204.037.743-.385 1.355-.775 1.908-.627.928-1.29 1.875-1.676 2.892l-.074-.075.088 4.535c.585.975 1.319 2.089 2.414 2.46.59.483 1.327 1.058 2.117.631.422-.13.459.465.663.706.223.687-.274 1.17-.31 1.796l-.479 1.021c-.552 1.077-1.049 2.224-1.894 3.133-.278 0-.44.297-.72.316-.148.204-.44.056-.626.13-.57.241-1.383.093-1.768.631.037.056.093.075.148.093 1.124.019 2.377.093 3.57.037.148-.055.278-.185.292-.353-.167-.315.056-.594.204-.835.093-.446.386-.724.516-1.151.385-.761.826-1.504 1.253-2.26l.57-.929c.13-.316.349-.706.572-1.04.148-.148.222-.315.33-.501.018-.186-.075-.26-.186-.39.13-.13.33-.093.496-.13.46.279.938.724 1.03 1.226l.168.482.074.223-.037.613.074.575c.093.892-.074 1.797-.167 2.688-.316 1.077-1.546.965-2.432 1.207-.223.148-.645.074-.645.445 1.067.223 2.32.093 3.462.075.186-.075.223-.242.311-.409.037-.241.279-.446.204-.706-.204-.26-.018-.668-.074-1.02a.57.57 0 0 0 0-.353c.149-.539.112-1.189.223-1.709l.074-.705.005.005ZM83.626 22.485c-.59.836-1.216 1.778-2.246 2.075-.074 0-.149.037-.186-.055.627-.669.956-1.708 1.936-1.95.148-.074.348-.148.496-.074v.004ZM33.363 23.395c-.093.075-.019.242-.186.26-.149.075-.311-.018-.385-.167-.075-.186.093-.371.236-.408.149.074.293.13.33.315h.005ZM38.668 23.655c.056.167-.13.167-.223.204-.775.279-1.564.019-2.116-.538 0-.074 0-.149.074-.167.756.186 1.638.037 2.265.501ZM34.374 23.414a.487.487 0 0 1 .038.278c-.112.167-.279.205-.46.167-.111-.055-.167-.13-.241-.24.018-.187.167-.298.31-.354.15.019.26.056.349.149h.005ZM51.627 23.507c.037.167-.111.278-.223.352a.362.362 0 0 1-.385-.148c-.055-.13 0-.316.13-.353.167-.037.423-.018.478.149ZM84.323 23.58c.055.187-.112.28-.237.39-.111.056-.242 0-.348-.055-.019-.093-.13-.167-.093-.297.074-.167.237-.241.422-.223.093.075.167.093.256.186ZM85.539 23.507c.111.167.018.297-.075.427-.074.13-.222.167-.33.111-.11-.111-.26-.167-.273-.334 0-.149.167-.26.274-.316.185-.074.26.112.404.112ZM32.592 24.045c.019.13-.093.204-.13.316-.093.037-.185.111-.297.074a.523.523 0 0 1-.274-.297.486.486 0 0 1 .33-.371c.149.037.316.111.367.278h.004Z" fill="#fff"/><path d="M71.363 24.045c.037.074.019.167.019.241-.112.149-.26.279-.441.186-.112-.111-.242-.223-.186-.39.149-.204.46-.278.608-.037ZM35.554 24.324c-.038.13-.093.26-.26.278-.167.019-.223-.13-.311-.204 0-.167-.019-.334.148-.427.223-.074.423.111.423.353ZM33.785 24.36c.056.186-.074.316-.186.41-.222.073-.403-.094-.496-.26.018-.168.148-.372.33-.428.166 0 .26.186.347.279h.005ZM72.58 24.324c.036.185-.02.37-.205.445-.223.074-.404-.111-.497-.26.093-.148.112-.352.33-.39.167 0 .278.075.367.205h.004ZM34.653 24.398c.056.13-.056.186-.093.278-.093 0-.148.112-.255.075-.074-.093-.223-.13-.242-.26-.018-.186.112-.279.242-.353.185-.019.297.111.348.26ZM83.31 24.546c-.055.149-.166.223-.31.297-.149.038-.242-.092-.349-.148-.092-.074-.055-.242-.018-.334.186-.316.682-.167.682.185h-.004ZM84.712 24.62c-.055.205-.255.298-.44.316-.168-.074-.349-.204-.223-.427.074-.074.111-.148.222-.167.223-.074.386.093.441.279ZM75.968 24.75c.093.242-.13.316-.274.428a.8.8 0 0 1-.348-.149.427.427 0 0 1 .26-.483c.167 0 .255.075.366.205h-.004ZM70.904 24.973c.093.038.056.168.037.223-.111.074-.255.26-.422.149-.13-.075-.223-.186-.186-.353.093-.204.478-.223.57-.019ZM71.934 25.103c.019.149-.018.223-.148.297-.13.13-.279-.018-.404-.055-.037-.075-.074-.186-.019-.279a.413.413 0 0 1 .242-.148c.13.037.278.037.33.185ZM40.692 25.122c.111.111-.019.241-.037.353-.093.111-.293.204-.46.092-.186-.074-.167-.315-.13-.464.111-.037.111-.167.255-.167.167.019.26.093.367.186h.005ZM77.936 25.196c.037.186-.149.26-.274.297-.223.075-.33-.093-.422-.241 0-.111.11-.186.148-.279.26-.111.422.075.552.223h-.004ZM76.942 25.196c.075.186-.13.279-.204.371a.366.366 0 0 1-.404-.074c-.093-.055-.093-.167-.093-.278.112-.093.168-.204.297-.242.168 0 .33.093.404.223ZM85.246 25.419c.037.26-.292.13-.422.204-.775.464-1.769.112-2.507-.167.056-.241.33-.148.479-.241.793-.502 1.6.111 2.39.148l.056.056h.004ZM34.853 25.196l-.075.13c-.682.409-1.564.687-2.376.427l-.074-.111c.682-.502 1.582-.631 2.469-.502l.056.056ZM79.816 25.326a.422.422 0 0 1-.186.353c-.186.056-.422 0-.478-.204-.056-.149.093-.297.241-.353.13 0 .348.018.423.204ZM38.148 25.4c-.074.149-.037.298-.223.372-.185.074-.404-.093-.46-.242-.055-.204.094-.26.186-.352.223-.112.386.055.497.222ZM36.844 25.493c.056.13-.056.205-.093.297-.093.112-.26.093-.367.056-.13-.111-.255-.241-.204-.446.111-.092.167-.148.297-.204.167.037.33.112.367.297ZM81.101 25.916a.399.399 0 0 1-.292.334c-.149.018-.279-.093-.348-.186a.29.29 0 0 1 .074-.353c.037-.055.167-.055.241-.092a.386.386 0 0 1 .33.297H81.1ZM35.48 25.716c.055.149-.075.204-.094.316-.055.315-.255.52-.403.798-.348.427-.85.427-1.346.557l-.075-.149c.534-.686 1.105-1.225 1.861-1.56l.056.038ZM80.182 26.12c.037.223-.148.26-.273.353a.415.415 0 0 1-.367-.223c-.056-.204.13-.279.241-.372.186-.037.348.093.404.242h-.005ZM37.596 26.12c-.019.037.018.074.056.093-.02.204-.168.26-.279.352a.492.492 0 0 1-.404-.185c-.074-.167 0-.371.186-.427.167-.019.385 0 .44.167ZM83.57 26.677c.186-.019.219-.241.423-.279.186-.037.348.075.44.205.075.222-.092.334-.24.427-.13.092-.404-.112-.386.13.13.092.242.222.26.37-.037.075-.167.057-.222.02-.534-.223-1.105-.595-1.328-1.152-.074-.167-.422-.297-.223-.445.534-.037.975.39 1.272.724h.005ZM85.339 26.101c.093.093.056.26-.019.353-.092.186-.366.111-.533.093-.093-.093-.186-.186-.149-.334a.59.59 0 0 1 .279-.242c.167-.037.292.038.422.13ZM78.655 27.104c.167.204.33.52.404.742-.037.056-.13.038-.167.038-.627-.353-1.434-.743-1.676-1.486-.055-.074-.204-.167-.185-.297.478-.092.937.26 1.271.52.13.186.274.279.349.483h.004ZM36.565 26.398c.075.168-.074.297-.167.372-.204.037-.31-.037-.422-.149-.13-.204.111-.371.26-.445.148-.019.241.13.33.222ZM80.957 26.825c.019.112-.13.186-.185.26-.149.019-.293.075-.423-.055-.037-.093-.13-.242-.018-.335.204-.26.496-.055.626.13ZM85.539 27.085c.055.223-.112.372-.26.464-.186.056-.33-.074-.441-.167-.093-.111-.019-.222 0-.352.13-.112.292-.205.478-.13.074.055.148.093.223.185ZM72.798 29.648c0 .222-.404.167-.571.334-.571.297-1.254.297-1.931.278v-.111c.663-.557 1.62-.762 2.502-.502ZM45.937 30.441c-.019.167-.112.26-.279.316a.347.347 0 0 1-.31-.186c-.075-.223.11-.316.24-.408a.424.424 0 0 1 .349.278ZM72.487 30.645c-.037.168-.093.353-.279.427-.167.038-.278-.055-.404-.13-.093-.074-.037-.204-.055-.297a.397.397 0 0 1 .738 0ZM76.149 30.72c-.46.297-.975.65-1.583.65l-.993-.02-.093-.073c.608-.743 1.712-.743 2.669-.669v.112ZM40.891 31.165c0 .167-.074.297-.241.353-.186.037-.311-.037-.385-.167-.075-.167 0-.334.148-.427.205-.13.404.093.478.241ZM41.815 31.35c.056.094-.037.15-.074.242-.112.056-.256.093-.349 0-.13-.074-.167-.204-.11-.315.055-.112.166-.093.222-.167.13.055.26.111.31.24ZM34.764 33.226c-.185.223-.478-.056-.682-.167-.645-.371-.626-1.095-1.272-1.522.075-.223.237.018.367-.019.111.074.26.149.385.204.627.353.776.947 1.198 1.504h.005Z" fill="#fff"/><path d="M88.43 26.027c-.292-.538-.793-.761-1.383-.761-.478.037-.83.353-1.03.761a.94.94 0 0 0 .348 1.021c.13.056.292.037.367-.093.092-.241-.168-.241-.205-.427-.074-.26.019-.482.204-.65.186-.185.497-.092.72-.092.223.148.44.278.552.538a1.49 1.49 0 0 1 0 .984c-.204.464-.663.836-1.141.928-1.528.223-18.302.149-18.302.149-1.968.186-4.215-.371-5.909.668-.775.372-1.16 1.226-1.365 1.982-.496.446-1.03.966-1.434 1.467l-.056-.056c.093-.445.293-.835.386-1.28.273-.372.273-.873.478-1.282.7-1.132 1.36-2.279 2.45-3.077.46-.613 1.272-.502 1.969-.502.756.353 1.638.465 2.557.372a.169.169 0 0 0 .056-.13c-.26-.242-.683-.334-.975-.576-.738-.352-1.434.112-2.21.056-.037-.037-.074-.056-.055-.111.7-.52 1.49-.892 2.284-1.226.645-.353 1.327-.538 2.005-.798.278 0 .534-.241.793-.074l.975-.26c.037.018.075.074.149.055.826-.278 1.88-.018 2.817-.037l.13.112.882.223c.33.037.478.426.83.445.187-.26-.203-.371-.292-.538.404-.093.864.018 1.235.185l-.18.204c-.112.205.055.353.222.428.13.037.223-.056.31-.093.242-.167-.018-.335.057-.483 1.364.241 2.669.576 3.922 1.114.348.111.682.371 1.067.353-.385-.353-.919-.539-1.401-.743-.312-.186-.757-.204-.994-.464.056-.093.186-.056.237-.13.626-.074 1.16-.538 1.601-1.04.037-.111.237-.074.223-.223-.167-.185-.44.056-.664.038-.775.148-1.104 1.058-1.88 1.225-.937-.223-1.898-.446-2.835-.687-.46-.074-.957-.111-1.38-.297l-1.03-.093h-1.88c-.018-.037-.074-.056-.055-.111.664-.167 1.235-.557 1.898-.724l4.934-2.26c.516-.465.975-.985 1.397-1.523a.35.35 0 0 0-.204-.353c-.13-.056-.274-.037-.366.074-.223.167 0 .372 0 .576-.223.297-.571.557-.845.724-.075-.019-5.083 2.279-5.083 2.279-.738.316-1.471.668-2.246.835l-1.068.168c-.074.222-.255.352-.46.427-.292.055-.533.24-.844.24-2.395.93-4.878 1.913-6.777 3.802.112-.222.167-.5.186-.78-.037-.278-.019-.594-.204-.816-.042-.103-.177-.4-.135-.506l-.27.176c-.166.409-.31 1.151-.148 1.578.056.334.33.724.075 1.021-.882 1.077-1.384 2.372-1.968 3.598-.223-.037-.33-.242-.423-.446.627-.798 1.123-1.69 1.31-2.706.129-.093.036-.334.166-.446-.037-.297.167-.594.019-.835.116-.404-.539-.78-.121-1.04l-.348.167c-.794 1.04.413 2.595-.492 3.597v.075c-.26.334-.385.668-.738.89-.441-.185-.608-.686-.863-1.057-.404-.39-.404-1.189-.167-1.727.167-.538-.112-1.003-.168-1.485l-.185-.112c-.441.576-.608 1.486-.26 2.168.185.334.204.798.478 1.077.167.538.496.89.794 1.369.074.186-.112.223-.205.316-.204-.13-.167-.427-.348-.557-.608-1.3-1.397-2.335-2.358-3.393-.037-.167-.204-.316-.111-.502.348-.334.422-.984.241-1.41-.037-.093-.148-.205-.13-.298l-.278-.223c.037.65-.385 1.226-.204 1.908v.037a35.113 35.113 0 0 0-6.127-3.704l-.172.47c.538.134 1.973 1.006 1.973 1.006.645.242 1.234.632 1.842.984 2.502 1.393 4.16 3.69 5.282 6.248.019.204.205.427.075.631-.386-.594-.938-.928-1.397-1.41-.13-.873-.646-1.704-1.402-2.057-.279-.409-.864-.446-1.328-.576l-6.702-.037c-5.45-.074-10.42.167-15.832.075-.757-.075-1.676-.335-1.899-1.133-.148-.279-.148-.761 0-1.021.204-.353.571-.464.938-.502.292.038.496.316.626.52 0 .242-.204.465-.297.669.019.074.093.223.223.167.241-.093.422-.353.478-.594.019-.13.074-.316-.056-.409-.111-.39-.515-.668-.863-.76-.46-.038-.938.092-1.253.426-.441.371-.423 1.04-.293 1.56.293.817 1.16 1.374 1.987 1.485l17.916.074c1.75.093 3.718-.204 5.487.149.645.204 1.327.687 1.49 1.41-.019.038-.074.02-.13.02-1.453-.947-3.37-1.3-5.231-1.078-.738-.037-1.397.242-2.061.428-.348.074-.682-.093-.9-.297-.664-.595-1.825-.558-2.67-.335 0 .056-.018.112.02.13.9-.074 1.433.706 2.246.799.185.037.33-.168.496-.019-.844.409-1.657.891-2.557 1.151-.279-.056-.423-.316-.645-.464-.349-.39-.994-.223-1.472-.26-.167.037-.31-.074-.422 0 .148.297.478.464.794.613.46.204.993-.019 1.415.26-.111.13-.26.167-.385.26-.863.334-1.583 1.114-2.539 1.058-1.012.111-2.042-.186-2.725-.891-.292-.724-1.049-1.114-1.86-1.077-.057.037-.13.037-.112.13.404.241.72.724 1.123 1.002.26.316.757 0 .993.353.353.242.794.446 1.198.52.292.13.627.186.956.26l-.13.074c-1.676.557-3.607.613-5.486.539-.553-.019-1.086-.186-1.639-.167.093.11.279.204.441.26-.148.092-.31.13-.496.148-.223.056-.479.074-.701.186-.293-.019-.553.093-.79.185-.31.334-.682.687-1.048.854 0 .075-.019.186.074.186.348-.148.794-.037 1.142-.186.608-.055.956-.724 1.434-1.002.515-.409 1.253-.316 1.88-.223.366.093-.037.241.074.483.149.13.274.278.478.222.037-.037.074-.074.13-.092.111-.149.093-.316.019-.464.26-.168.608.018.881-.093.701-.019 1.402-.167 2.08-.186.111-.019.241-.13.348-.019-.056.149-.241.168-.167.372.037.167.223.241.367.278.185-.074.348-.204.278-.445-.037-.13-.186-.149-.278-.205.385-.185.83-.24 1.216-.427.278-.055.534-.148.775-.26.241-.018.44-.24.664-.148a4.012 4.012 0 0 1-.386.891c-.292.984-.515 2.28 0 3.226.056.019.075-.019.112-.037-.385-.984-.167-2.112.167-3.04.26-1.578 1.88-2.038 3.04-2.632l.056.074c-.311.817-.775 1.597-.701 2.576.037.167-.074.334 0 .446.31-.167.515-.539.682-.854.13-.836-.348-1.87.497-2.483 1.508-.595 2.929-1.374 4.674-1.393.056.056.186-.037.204.074-.367.409-.9.799-1.067 1.3-.59.817-.571 2.205-.311 3.207.167.576-.33.892-.571 1.337-.116.158-.149.427-.25.608l.361.042c.311-.334.608-.743.627-1.226a.514.514 0 0 0 .348.372c.13-.204-.112-.353-.13-.557.297-.167.422.204.664.278.385.093.72.26 1.123.26l.13-.13c-.404-.63-1.216-.742-1.917-.78-.367-.612-.367-1.373-.33-2.111.075-.39.149-.799.367-1.152.093-.26.348-.5.515-.705.33-.316.757-.538 1.16-.631h.056c0 .037.019.055.019.055-.497.39-.552.929-.845 1.412-.316.464-.46 1.095-.167 1.61.111.241.056.613.311.78.237-.334.26-.761.385-1.133-.055-.612-.422-1.188-.074-1.777.186-.464.571-.65.993-.817 1.012-.093 1.899.427 2.78.817.186.13.497.241.534.5-.018.502-.292 1.004-.682 1.245-.496.297-1.216.334-1.675-.019-.274-.278-.386-.76-.293-1.132.204-.223.478-.409.812-.297.186.093.349.278.59.167a.233.233 0 0 0 .074-.297c-.204-.112-.274-.39-.552-.427-.348-.056-.775-.037-1.012.204a1.31 1.31 0 0 0-.422 1.3c.13.594.57 1.02 1.141 1.188.85.204 1.732-.056 2.265-.78.223-.241.274-.501.404-.798.882.538 1.546 1.485 1.899 2.446 0 .315.093.65.018.928l.645.056c-.055-.149 0-.316.056-.446.241-1.225.993-2.242 1.894-3.04.31-.186.241.241.31.371.275.706.92 1.207 1.602 1.411.77.13 1.509-.055 1.987-.65.241-.445.534-1.095.13-1.559a1.266 1.266 0 0 0-1.012-.483c-.478 0-.775.334-1.012.687 0 .149-.019.316.111.39.075 0 .223.019.279-.093.037-.278.274-.408.497-.557.204-.111.422 0 .589.112.204.167.241.445.255.724-.037.352-.273.724-.608.872-.533.279-1.309.149-1.768-.167-.223-.241-.348-.52-.515-.817-.038-.297-.149-.557 0-.854.807-.482 1.657-.835 2.631-.928.386.074.72.334.975.613.845.872-.186 2.112.404 3.077.223-.037.223-.334.31-.52.28-.668-.073-1.392-.236-2.037-.223-.409-.348-.762-.7-1.096.092-.037.13-.037.222-.037.385.26.812.557 1.123.965a4.98 4.98 0 0 1 .72 3.04c-.149.558-.738.818-1.198 1.022-.185.148-.403.371-.496.594.222.13.533 0 .756-.093.348-.13.553-.576.794-.78.037.019.019.075.037.112.019.204-.093.482.093.538.093-.26.111-.631.167-.947.241.26.274.594.348.929.167.334.441.78.882.835.111-.167-.019-.334-.056-.483-.055-.464-.44-.705-.7-1.04-.646-.89-.349-2.278-.845-3.281-.186-.538-.571-.928-.994-1.374l.075-.074c.9-.019 1.657.278 2.483.445 1.012.502 2.483.39 2.966 1.709.204.742.534 1.43 1.049 2l.056-.037a.748.748 0 0 0 0-.687c-.112-.928-.92-1.151-1.347-1.926l.056-.075c.441.13.9.242 1.346.427 1.472.409 2.502 1.857 2.688 3.356 0 1.189-.223 2.168-.683 3.17-.055.15-.31.316-.148.446.204-.148.241-.39.348-.557.608-1.021.919-2.427.608-3.727-.019-.241-.292-.427-.167-.668.093.111.204.13.316.167.111-.075.278-.075.348-.205.018-.111.093-.24 0-.334-.112-.167-.348-.167-.534-.13-.093.112-.204.26-.223.409-.185-.316-.367-.724-.664-.984l.038-.056c.83.279 1.582.687 2.432.91.185.111.385.204.645.204.72.279 1.508.39 2.265.576.552-.056 1.012.204 1.564.074v-.037l-.018.018c-.205-.26-.646-.018-.882-.204-1.272-.13-2.484-.464-3.625-.91.018-.055.093-.037.148-.037.186-.093.311-.26.293-.464a.5.5 0 0 0-.423-.204c-.111.055-.26.185-.278.315.018.149.148.316.278.353-.037.037-.111.019-.167.019-.57-.26-1.123-.502-1.675-.761-.205-.038-.367-.205-.571-.242-.423-.204-.845-.408-1.272-.575-1.18-.613-2.483-.947-3.737-1.393-.278-.074-.533-.148-.793-.223-.46-.13-.92-.241-1.379-.371-1.564-.39-3.662-.427-5.027.427-.223-.074-.348.278-.46.056.386-1.021 1.51-1.356 2.521-1.393 7.385-.074 14.305-.13 21.579-.241.85 0 1.675-.297 2.116-1.058.311-.446.367-1.207.13-1.708v.018Zm-29.274 6.842c-.074.223-.223.408-.204.65l-.075.037c.056-.279-.222-.446-.148-.743-.149-.223-.149-.501-.274-.743-.167-.297.148-.427.274-.63.26.11.348.352.534.575.111.315-.13.557-.112.854h.005Z" fill="#fff"/><path d="M79.133 31.704c0 .055.112.074.075.167-.645.575-1.546.742-2.465.78-.074.018-.149.074-.237.055-.055-.037-.074-.093-.037-.13.664-.724 1.676-1.095 2.669-.872h-.005ZM76.167 32c.074.26-.093.41-.297.502-.204-.019-.31-.149-.404-.297-.055-.149.075-.223.13-.316.149-.148.497-.148.571.112ZM41.17 32.038c.037.13.018.297-.093.39-.074.093-.241.111-.334.093-.13-.019-.205-.168-.237-.279 0-.167.093-.26.237-.353.148 0 .31-.018.422.149h.005ZM37.874 33.245v.13a1.439 1.439 0 0 1-1.197-.279c-.255-.371-.553-.742-.975-.928 0-.056-.111-.13 0-.167.919 0 1.471.742 2.172 1.244ZM81.932 32.02c-.422.63-.794 1.41-1.546 1.689-.13 0-.24.185-.348.056.297-.706.92-1.467 1.639-1.764.074 0 .18-.019.255.018ZM42.237 32.242c.019.204-.13.242-.26.353-.148.019-.222-.093-.315-.204-.074-.186.093-.26.186-.353.148-.037.315.074.385.204h.004ZM84.253 32.353c-.167.242-.093.595-.255.855-.367.427-.683.91-1.272 1.002-.093-.185.13-.371.223-.538.26-.557.626-1.188 1.216-1.43l.093.111h-.005ZM32.165 32.52c.056.13.112.26 0 .41a.43.43 0 0 1-.422.073.344.344 0 0 1-.149-.445c.112-.167.441-.26.571-.037ZM31.116 32.743c.019.093.074.167.056.26-.056.093-.149.205-.256.223-.204.037-.33-.074-.422-.241-.018-.167.037-.316.181-.39.167-.074.353.018.441.148ZM33.288 32.855c.038.148.075.408-.148.445-.26.112-.404-.074-.552-.222 0-.168.092-.297.222-.372.186-.018.348 0 .478.149ZM36.31 33.096c-.019.13.019.316-.13.353-.093.093-.26.056-.348.037-.037-.111-.241-.204-.13-.334a.731.731 0 0 1 .255-.204c.112.055.279 0 .348.148h.005ZM86.017 33.226c-.056.13-.13.297-.279.297-.167-.018-.33-.037-.422-.204-.074-.204.093-.316.241-.371.186 0 .423.074.46.278ZM82.652 33.314c.018.149-.149.26-.223.316-.26.111-.478-.074-.571-.279a.477.477 0 0 1 .316-.334c.236-.018.366.112.478.297ZM84.93 33.282c0 .13-.074.26-.166.315-.149.056-.33.038-.441-.074-.167-.148-.037-.278.074-.39.167-.093.478-.074.534.149ZM31.687 33.593c.037.204-.037.39-.223.464-.167 0-.348-.093-.404-.26-.018-.167.038-.334.186-.39.186-.055.33.056.441.186ZM81.728 33.797c.056.204-.056.39-.26.483-.148.037-.241-.037-.348-.13-.074-.093-.167-.297-.019-.39.149-.279.516-.167.627.037ZM41.592 34.001c.075.205-.148.242-.204.353-.074.037-.223.056-.279-.018-.092-.112-.204-.223-.148-.39.093-.075.13-.149.241-.186.205-.056.279.13.386.241h.004ZM85.687 34.131c.037.13-.074.186-.093.279a.492.492 0 0 1-.422.074c-.167-.093-.167-.241-.167-.409.111-.074.13-.167.26-.204.167 0 .367.075.422.26ZM84.545 34.187c.075.223-.13.334-.278.39-.074.018-.186-.037-.204.074.478.241.775.631 1.141.984v.149c-.663-.019-1.346-.186-1.824-.706-.13-.093-.348-.093-.496-.223.241-.241.682-.148 1.011-.167.242-.26-.278-.445.038-.668.111-.019.185-.13.33-.093.13.056.203.148.278.26h.004ZM77.017 34.206c.037.092-.075.204-.093.297a.368.368 0 0 1-.404.074c-.093-.13-.241-.241-.186-.427.149-.279.627-.223.683.056ZM35.85 34.855c-.055.167-.13.279-.31.297-.149-.018-.274-.074-.33-.222-.019-.13.074-.205.093-.297.204-.168.57-.056.552.222h-.005ZM37.34 34.614c0 .26-.278.408-.366.668-.279.613-.77 1.17-1.472 1.226-.074-.167.242-.372.311-.539.293-.631.882-.965 1.416-1.355h.111ZM76.576 34.874c.018.204-.167.353-.316.427-.167.056-.292-.074-.385-.149-.149-.148-.056-.297.019-.445.222-.223.533-.037.682.167ZM77.718 35.004a.459.459 0 0 1-.33.408c-.037-.055-.13-.018-.186-.037-.13-.074-.241-.185-.241-.334.093-.093.13-.241.26-.26.167-.018.44 0 .496.223ZM40.195 34.985c.019.205-.13.316-.274.39-.167.019-.278-.093-.348-.223-.037-.167.13-.278.223-.37.223-.075.279.092.404.203h-.005ZM41.467 35.06a.441.441 0 0 1-.348.315c-.13-.037-.274-.074-.33-.223-.018-.185.13-.278.255-.37.186 0 .386.073.423.278ZM81.672 36.36c.093.074.256.166.219.296-.293.13-.534-.204-.808-.26-.441-.445-.775-.928-.956-1.485.167-.167.348.037.496.093.423.353.826.817 1.05 1.355ZM82.355 35.06a.457.457 0 0 1-.038.408c-.111.186-.348.149-.515.111-.093-.111-.26-.26-.148-.427.055-.148.222-.185.348-.241.13-.019.223.093.348.149h.005ZM43.157 35.542c.018.149.055.372-.13.464-.168.038-.386-.018-.441-.222-.093-.223.111-.26.222-.372.149-.037.237.037.349.13ZM77.662 36.75c.255.37.44.835.478 1.317-.056.13.093.26-.019.353h-.074c-.83-.594-1.012-1.43-1.327-2.26-.075-.037-.093-.112-.075-.186.186-.167.311.167.497.223l.515.557.005-.005ZM45.551 36.118s0 .037.019.037c-.738.52-1.769.835-2.613.334-.019-.055.018-.148.093-.167.533-.167 1.049-.427 1.62-.353l.881.149ZM41.356 36.21c-.627.39-1.198 1.152-1.968 1.337-.149.056-.237.26-.423.149.33-1.003 1.416-1.541 2.395-1.634v.149h-.004ZM76.576 37.046c.056.149 0 .353-.149.39-.093.093-.274.093-.348 0-.167-.074-.167-.241-.167-.371.056-.13.186-.149.274-.204.167.037.292.037.385.185h.005ZM75.044 37.139c-.111.26-.422.408-.664.483-.626.222-1.197-.075-1.75-.223.02-.149.205-.093.293-.186.608-.13 1.235-.26 1.875-.093.056-.037.186-.055.242.019h.004ZM41.355 37.673c-.055.074-.074.241-.222.297-.13.056-.256 0-.367-.074-.037-.112-.167-.205-.074-.335.037-.13.185-.167.292-.204.186.019.33.13.367.316h.005ZM42.441 37.84c-.055.111-.11.278-.255.353-.148.037-.26-.037-.367-.13-.055-.112-.11-.242-.055-.372.037-.093.167-.111.26-.167.185-.018.348.167.422.316h-.005ZM76.223 38.026c.019.148-.056.24-.13.352-.093.13-.274.149-.404.075-.13-.019-.167-.168-.222-.26-.112-.149.074-.242.13-.372.204-.167.533-.074.626.205ZM77.035 37.988c.019.093.074.186.037.26-.111.093-.185.335-.404.242-.11.037-.167-.112-.218-.149-.074-.185-.018-.464.218-.501.168-.056.279.093.367.148ZM41.778 38.527a.5.5 0 0 1-.186.501c-.204.037-.46.037-.534-.204-.018-.186 0-.427.223-.538.186-.02.404.018.497.24ZM42.827 38.453c-.037.52-.149 1.15-.664 1.448-.297.055-.59.334-.882.148v-.093c.386-.557 1.086-.984 1.546-1.504ZM73.336 38.88c.074.111-.056.204-.111.297-.112.13-.316.074-.441.018-.13-.056-.149-.241-.093-.371.037-.111.148-.167.241-.204.167-.019.311.13.404.26ZM44.67 39.734c.255.427.111 1.002.255 1.466-.311.037-.441-.315-.645-.5-.404-.558-.348-1.3-.534-1.946a.098.098 0 0 1 .13-.037c.274.186.478.538.7.78-.036.13.112.13.094.241v-.004ZM74.255 39.028c0 .149-.167.186-.26.279a.66.66 0 0 1-.348-.168c-.056-.185.093-.24.185-.334.186-.074.367.019.423.223ZM76.446 40.68c0 .056-.019.168-.112.13h-.074c-.534-.482-1.067-1.02-.993-1.759l.111-.018c.497.427 1.05.89 1.068 1.652v-.005ZM75.063 40.086c.018.149-.075.26-.168.353-.204.056-.515.037-.552-.241-.018-.186.186-.279.279-.372.222-.055.366.093.44.26ZM73.847 40.476c-.256.687-.957 1.04-1.435 1.56-.093-.056-.055-.204-.037-.279.186-.705.738-1.392 1.416-1.67.292.036 0 .24.056.39ZM75.23 41.029c0 .167-.167.241-.255.334-.149-.019-.293-.056-.404-.204-.019-.186.13-.242.236-.335a.38.38 0 0 1 .423.205ZM61.532 7.368c.251 0 .455.204.455.46 0 .255-.204.459-.455.459h-5.458a.457.457 0 0 1-.455-.46c0-.255.204-.46.455-.46h5.458Zm-3.861.794c.533 0 .028-.646-.26-.646h-.534c-.534 0-.028.646.255.646h.539Zm2.237 0c.534 0 .028-.646-.26-.646h-.534c-.534 0-.028.646.26.646h.534Zm1.648-.646h-.205c-.533 0-.078.646.205.646.357 0 .38-.646 0-.646ZM61.05 13.63l1.044.399 1.026-.4-.404 1.537.812-.167-.278.928.278.891-.72-.195.316 1.657-1.025-.399-1.045.4.427-1.658-.83.232.222-.933-.222-.89.793.13-.39-1.537-.004.004Zm1.54 2.77c.233 0 .256-.324.256-.603 0-.631-.501 0-.757-.594-.185.501-.7.037-.7.575 0 .372 0 .622.366.622h.836Zm-1.02-.57c0 .24.325.078.561.078.237 0 .562.163.562-.079 0-.343-.325-.222-.562-.222-.236 0-.561-.121-.561.223ZM58.608 15.89v-.195l-.171-.033.134-.144-.084-.157.182.018.106-.19.107.19.181-.018-.088.157.14.144-.177.033v.195l-.163-.126-.167.126ZM57.8 16.93v-.195l-.176-.033.14-.144-.084-.153.176.019.112-.19.102.185.18-.014-.083.153.14.144-.177.033v.195l-.162-.121-.167.12ZM59.174 16.8v-.195l-.176-.033.14-.144-.084-.158.176.019.112-.19.102.19.18-.019-.083.158.14.144-.177.033v.195l-.162-.126-.168.126ZM59.337 17.58v-.112l-.098-.019.075-.083-.047-.088.102.014.06-.112.061.107.102-.01-.046.089.074.083-.097.019v.111l-.093-.074-.093.074ZM58.06 18.466v-.334l-.301-.056.236-.241-.143-.27.306.033.186-.325.18.32.312-.028-.144.27.232.241-.297.056v.334l-.283-.209-.284.209ZM58.71.976l.65 1.592L61 2.087l-.831 1.508 1.397.989-1.685.283.102 1.722-1.272-1.156-1.272 1.156.103-1.722-1.685-.283 1.397-.989-.836-1.508 1.643.482.65-1.592ZM52.769 36.735c-.195.074-.27.126-.223.33l.232.98c.042.18.056.463-.065.64-.144.209-.445.343-.668.394-.163.037-.506.102-.79-.014-.185-.079-.306-.162-.38-.496l-.241-1.026c-.06-.255-.158-.242-.367-.21l-.018-.073 1.234-.297.019.074c-.242.065-.353.097-.288.367l.241 1.025c.042.177.144.6.669.47.64-.154.538-.627.492-.822l-.223-.933c-.042-.186-.111-.283-.432-.218l-.018-.08.803-.19.018.075.005.004ZM54.598 36.94c-.111-.2-.408-.506-.845-.41-.19.043-.371.182-.33.381.038.168.121.219.46.279l.59.102c.134.023.455.14.529.478.06.27-.093.697-.766.845-.348.079-.538.01-.65.037-.079.019-.084.079-.088.13l-.107.023-.167-.76.107-.024c.144.292.431.594.896.492.44-.098.39-.409.38-.446-.046-.204-.232-.241-.492-.283l-.269-.042c-.682-.111-.743-.376-.77-.52-.042-.185-.02-.63.677-.784.293-.065.487 0 .594-.028.084-.018.093-.07.098-.13l.111-.023.149.669-.102.023-.005-.01ZM57.03 38.156l-1.337.13-.009-.08c.27-.046.362-.06.334-.324l-.158-1.653c-.26.037-.645.088-.673.599l-.106.01-.047-.632 2.242-.214.065.632-.107.009c-.12-.497-.51-.473-.77-.46l.158 1.653c.028.264.116.264.394.25l.01.08h.004ZM60.15 38.156l-.771-.014-.757-1.003h-.102l-.014.617c-.005.251.079.265.325.297v.08l-1.272-.024v-.079c.256-.018.334-.028.339-.283l.028-1.392c.005-.27-.111-.279-.325-.297v-.08l1.211.024c.265.004 1.059.046 1.05.575-.01.39-.395.478-.6.53l.739.914c.05.056.106.06.153.065v.079l-.005-.01Zm-1.625-1.12c.492.005.687-.06.696-.468.005-.32-.144-.46-.446-.464-.204 0-.213.032-.236.13l-.014.803Z" fill="#fff"/><path d="m62.614 38.471-1.207-.153.01-.079c.232.014.301.019.31-.083.01-.084-.078-.33-.12-.437l-.84-.107c-.13.214-.21.335-.214.381-.014.12.163.149.288.172l-.01.079-.756-.093.01-.08c.204 0 .269-.096.408-.32l1.04-1.61.106.014.627 1.75c.125.357.172.469.353.487l-.01.08h.005Zm-1.044-.882-.284-.807-.445.714.729.093ZM64.8 38.917l-2.135-.39.014-.08c.209.015.325.029.357-.162l.274-1.499c.037-.204-.111-.236-.278-.278l.014-.08 1.29.238-.014.078c-.26-.037-.376-.055-.427.219l-.265 1.462c-.028.148.051.19.297.232.557.102.813-.116 1.045-.436l.107.018-.279.678ZM66.22 39.232l-1.285-.269.018-.079c.2.028.348.047.385-.148l.307-1.49c.042-.205-.13-.246-.297-.293l.014-.074 1.285.27-.014.078c-.171-.028-.352-.065-.394.144l-.311 1.49c-.042.2.107.237.302.292l-.014.08h.004ZM68.829 39.571l-1.212-.125.01-.08c.232.01.301.015.31-.092.01-.083-.087-.33-.13-.436l-.84-.088c-.13.213-.199.338-.204.385-.014.12.167.148.293.167l-.01.079-.76-.079.009-.079c.204 0 .269-.107.403-.33l1.003-1.629.107.01.663 1.736c.135.352.181.464.362.478l-.009.078.005.005Zm-1.063-.858-.302-.803-.427.724.729.074v.005ZM59.226 14.14c0-.757-.423-.046-.66-.692-.171.543-.682.088-.682.673 0 .223.06.353.167.423v.223c0 .06.047.106.102.106h.803a.104.104 0 0 0 .102-.106v-.242a.49.49 0 0 0 .163-.385h.005Zm-.655.144c-.223 0-.52.153-.52-.112 0-.37.25-.287.474-.287.223 0 .561-.084.561.287 0 .26-.297.112-.52.112h.005ZM65.817 23.432c.19 0 .348-.134.348-.306s-.154-.306-.349-.306c-.194 0-.348.139-.348.306 0 .167.154.306.349.306ZM64.183 12.218s-.163.274-.163.325c0 .102.075.181.168.181.092 0 .167-.083.167-.18 0-.005-.168-.326-.168-.326h-.004ZM53.062 12.218s-.163.274-.163.325c0 .102.075.181.167.181.093 0 .167-.083.167-.18 0-.005-.167-.326-.167-.326h-.004ZM55.842 12.218s-.163.274-.163.325c0 .102.075.181.167.181.093 0 .168-.083.168-.18 0-.005-.168-.326-.168-.326h-.004ZM58.622 12.218s-.162.274-.162.325c0 .102.074.181.162.181.088 0 .167-.083.167-.18 0-.005-.167-.326-.167-.326ZM61.403 12.218s-.163.274-.163.325c0 .102.074.181.167.181.093 0 .167-.083.167-.18 0-.005-.167-.326-.167-.326h-.004ZM53.071 16.034s.162.274.162.325c0 .102-.074.18-.167.18-.093 0-.167-.078-.167-.18 0-.005.167-.325.167-.325h.005ZM53.071 19.742s.162.274.162.325c0 .102-.074.181-.167.181-.093 0-.167-.079-.167-.18 0-.005.167-.326.167-.326h.005ZM53.512 22.676s.162.274.162.325c0 .097-.074.18-.167.18-.093 0-.167-.083-.167-.18 0-.005.167-.325.167-.325h.005ZM55.846 24.24s.163.274.163.325c0 .102-.074.181-.163.181-.088 0-.167-.079-.167-.181 0-.005.167-.325.167-.325ZM64.326 16.034s-.162.274-.162.325c0 .102.074.18.162.18.089 0 .168-.078.168-.18 0-.005-.168-.325-.168-.325ZM64.326 19.742s-.162.274-.162.325c0 .102.074.181.162.181.089 0 .168-.079.168-.18 0-.005-.168-.326-.168-.326ZM63.881 22.676s-.163.274-.163.325c0 .097.075.18.168.18.092 0 .162-.083.162-.18 0-.005-.167-.325-.167-.325ZM61.546 24.24s-.162.274-.162.325c0 .102.074.181.167.181.093 0 .167-.079.167-.181 0-.005-.167-.325-.167-.325h-.005ZM58.71 25.892s-.162.274-.162.325c0 .103.074.181.162.181.088 0 .167-.083.167-.18 0-.005-.167-.326-.167-.326ZM63.231 20.36c.037.05.12.07.232.032l.107-.297s-.12-.14-.2-.12c-.297.069-.612.106-.784.39 0 .194.14.37.279.459.106-.037.12.07.19.125.018.088-.037.158-.12.158-.21-.213-.576.07-.734-.195.07-.264.209-.562-.019-.812.019-.051.107-.107.051-.158-.088-.246-.348-.051-.506-.051-.26-.037-.473.107-.63.316a.492.492 0 0 0 .138.264c.07-.018.107 0 .121.07l-.176.107c.05.05.05.125.07.194-.121.052-.247-.12-.298-.213 0-.14.019-.385-.176-.423a.83.83 0 0 0-.153.052.52.52 0 0 0-.07.292c0 .13.07.316.07.316s.538.399.663.645c-.157.315-.157.756-.524.933-.107.07-.107.176-.107.283l.088.07c.228-.126.664-.158.632-.548.088-.158.176-.334.33-.46a.359.359 0 0 1 .403.195c-.051.265-.227.441-.473.53-.038.037-.02.088-.02.139.07.125.265.07.368.05.297-.194.422-.547.682-.65.032.177-.348.228-.107.405.158-.037.367.018.474-.195-.121-.297.417-.441.088-.706 0-.264.278-.371.26-.65-.107-.283-.437-.283-.525-.547.107-.07.26-.051.367 0h.01ZM50.458 23.567c.19 0 .348-.135.348-.306 0-.172-.158-.307-.348-.307-.19 0-.348.135-.348.307 0 .171.153.306.348.306ZM32.425 34.099c.19 0 .344-.149.344-.33a.337.337 0 0 0-.344-.33.337.337 0 0 0-.343.33c0 .181.153.33.343.33ZM43.904 36.656h-.023l-.024-.027v.018s0 .01.01.01h-.038s.01 0 .01-.01v-.042s0-.01-.01-.01h.033s.033 0 .033.015c0 .01-.01.014-.019.014l.023.028.005.004Zm-.047-.027s.019 0 .019-.014c0-.01-.005-.014-.014-.014h-.01v.023l.005.005ZM43.95 36.614s-.009-.018-.023-.018c-.005 0-.01 0-.01.01 0 .004 0 .008.01.008h.014s.014.015.014.024c0 .01-.01.018-.028.018h-.019v-.023s.01.019.024.019.014-.01.014-.01c0-.004-.005-.009-.014-.009h-.01s-.018-.019-.018-.023c0-.005 0-.019.023-.019h.019v.019l.004.005ZM44.066 36.596s-.004 0-.009.005l-.023.055-.019-.041-.018.041-.024-.055s0-.005-.009-.005h.033-.005l.014.037.014-.028v-.01h-.014.037-.01l.01.038.014-.032s0-.01-.01-.01h.02v.005ZM44.07 36.656s.024-.004.029-.023h-.01s-.018 0-.018-.019c0-.004 0-.018.023-.018.01 0 .023.005.023.028 0 .018-.014.032-.046.037v-.005Zm.029-.027h.004v-.01s0-.023-.009-.023c-.005 0-.005.005-.005.014 0 .014 0 .019.01.019Z" fill="#fff"/><path d="M44.131 36.614h.023c.005 0 .014.01.014.02 0 .013-.014.022-.032.022-.01 0-.014 0-.014-.009 0 0 0-.005.005-.005.009 0 .014.01.018.01 0 0 .01 0 .01-.01 0-.004-.005-.009-.014-.014h-.024l.01-.032h.037v.014h-.037v.01l.004-.005ZM65.106 11.768H52.277l.01 9.812c0 .998.422 1.876 1.007 2.145l4.934 3.133a.59.59 0 0 0 .85.046l5.012-3.18c.585-.268 1.007-1.141 1.007-2.144l.01-9.812Zm-.361 9.947c-.066.743-.32 1.36-.831 1.708l-4.837 3.073h-.028a.61.61 0 0 1-.371.13.624.624 0 0 1-.38-.135l-4.828-3.068c-.515-.348-.766-.965-.83-1.708v-9.594h12.11v9.59l-.005.004Z" fill="#fff"/><path d="m60.419 26.069.157-.074c-.065.023-.111.05-.157.074ZM50.74 39.47l-1.21.138-.01-.079c.232-.041.297-.05.283-.157-.01-.084-.158-.302-.218-.395l-.84.098c-.08.236-.125.37-.116.422.014.12.195.107.32.097l.01.08-.757.087-.01-.078c.2-.047.237-.163.325-.409l.632-1.81.106-.014L50.276 39c.21.316.279.413.455.39l.01.08Zm-1.22-.609-.464-.715-.265.803.729-.083v-.005Z" fill="#fff"/><path d="M71.99 34.874c-.223-.576-.682-.966-1.253-1.151-.59-.13-1.216-.037-1.602.408-.663.539-.204 1.43-.185 2.15 0 .148.018.26-.13.334-2.67-.242-5.157-.91-7.807-1.189-.608-.107-1.221-.079-1.801-.2l-.743-.078c-2.302.074-4.604.204-6.758.761-.46.148-.975.186-1.434.353-.33-.056-.608.185-.92.093l-.607.143a.532.532 0 0 1-.205-.014c-.292-.76.59-1.225.311-1.963-.241-.427-.72-.835-1.271-.761-.627-.074-1.18.278-1.472.761-.422.928.112 1.894.279 2.799-.037.297.297.631 0 .873-.59-.409-1.365-.632-2.08-.427-.222.111-.626-.038-.738.222.794.427 1.806.372 2.688.335.111-.038.185-.056.278.018.075.483-.093 1.133.205 1.56.329.445.881.557 1.415.612 1.694-.055 3.203-.557 4.748-.947.242-.018.423-.148.683-.148.826-.186 1.731-.334 2.613-.353-.385.502-.608 1.059-.775 1.671-.223.502.385.576.57.854-.57.167-.974.557-1.508.78-1.179-.037-2.172.409-3.277.538-.018.242.386.168.423.409-.056.167-.223.186-.348.278-.019.112 0 .13.111.149.111-.13.348-.037.46-.167.366 0 .682-.111 1.03-.13.316-.13.664-.149.938-.371.385-.112.626-.372 1.011-.483.553 0 1.05-.186 1.565-.223v.111a46.434 46.434 0 0 1-1.31 2.038c-.074.13.02.26.13.297.26.074.516 0 .72-.111.385-.669.738-1.3 1.05-1.982.129-.631.589-.966 1.048-1.393.074-.037.186-.148.26-.037-.367.427-.608.836-.882 1.3-.148.52-.186 1.188.274 1.615.223.186.552.13.85.149.719-.372 1.638.222 2.19-.483.33-.056.385.334.571.52.311.093.645.408.956.185-.018-.204-.241-.39-.348-.575-.223-.39-.496-.706-.7-1.058-.094-.26-.256-.427-.298-.687.334.111.627.334.993.39.311.13.701.11.994.297.241.315.608.5.919.705.46.223.975.26 1.453.446.185.018.46.167.59 0a.8.8 0 0 0-.275-.205c-.055-.24.33-.11.46-.297-.047-.092-.126-.125-.214-.139-.264-.14-.919-.19-1.095-.288-.223-.037-.422-.13-.645-.204-1.105 0-1.713-1.002-2.595-1.374.204-.185.515-.334.645-.612.167-.26.223-.687.056-.984-.167-.576-.9-.502-1.328-.817l.056-.056c.72-.037 1.346.13 1.987.26 1.768.241 3.407.91 5.25.947 1.011 0 2.283.055 2.78-.929.093-.575.204-1.15.292-1.722.223-.928.826-1.782.738-2.798l.014-.005ZM52.106 43.33l-.256-.242c.13-.167.404-.074.608-.185.478-.149 1.03-.334 1.565-.223-.553.446-1.272.501-1.918.65Zm11.492-.297c.441.2 1.328.394 1.963.464-.055.25-.506.014-.454.371-.571-.222-1.235-.334-1.657-.78.037-.018.074-.074.148-.055Zm-17.276-7.882c.056-.334.13-.687.441-.928.441-.241 1.049-.186 1.453.056.13.074.223.185.297.352.093.316-.056.65-.279.836h-.185c0-.297 0-.594.111-.836-.018-.222-.204-.24-.348-.334-.31-.093-.59.056-.83.186-.187.223-.349.501-.237.817.13.204.018.483.092.705l-.055.075c-.218-.242-.516-.502-.46-.929Zm.863.53c.274.204.664.11.994.167.055.204.055.464-.093.63-.311-.073-.72-.036-.882-.333.037-.13-.056-.316-.019-.465Zm-.055-.622c.055-.149 0-.372.204-.409.13-.037.33-.037.348.111-.019.223-.037.446-.093.65-.26.019-.385-.13-.46-.352Zm8.633 5.95c-.093-.65.167-1.207.59-1.67.255-.057.552-.112.789.036-.479.13-1.087.242-1.198.854.019.242-.056.372.056.576.204.353.663.204.919.483 0 .092-.075.204-.167.222-.316-.185-.701-.26-.994-.5h.005Zm-.664 1.281c.441-.185.9-.575 1.402-.408-.348.278-.919.39-1.402.408Zm1.75.186a13.77 13.77 0 0 1-.9 1.74c-.037.093-.186.112-.293.13 0-.26.26-.464.367-.687.385-.5.497-1.04.938-1.522.111.111-.112.186-.112.334v.005Zm.46-1.077v.074h-.037v-.093h.074s-.056 0-.074.019h.037Zm-.167-.501a4.388 4.388 0 0 1-.882-.223c-.186-.186 0-.39 0-.594.26-.409.993-.613 1.346-.242a1.994 1.994 0 0 1-.46 1.059h-.004Zm.403 0c.056-.242.167-.557.293-.78-.019.241-.13.575-.293.78Zm.205-1.504c-.242-.056-.367-.334-.627-.334.223-.075.441-.056.7-.019.094.13-.055.241-.073.353Zm.222.557h-.018v-.204h.018v.204Zm.019.854c-.019-.074.037-.167.056-.26.093-.093.185.074.223.13a.276.276 0 0 1-.279.13Zm.279-1.151c.092-.26.11-.483.278-.687.186 0 .348 0 .497.074.037.371.496.873 0 1.188-.167.075-.404.242-.59.075-.241-.205-.278-.39-.185-.65Zm1.34-.52c-.036-.167.168-.037.242-.111l.571.037c-.297-.038-.663.65-.812.074Zm.92.241c-.223.075-.385.334-.608.39.111-.204.385-.408.608-.39Zm-.775 1.151v.056h-.019v-.056h.019Zm.037 1.133c-.019.037.018.093-.037.13l-.423-.334c.205-.038.349.055.46.204Zm-.497-.576c.037-.037.13-.037.167 0h-.167Zm-.26-.278c.075-.112.168-.279.293-.279 0 .019.018.038.037.056-.111.093-.204.186-.33.223Zm-.422-.037h-.074l.111-.112c.056.037-.018.075-.037.112Zm.056.705c.241-.26.46.149.552.353.279.408.993.78.72 1.337-.349.315-.901.018-1.29.26-.205-.019-.553.037-.665-.167.205-.594.386-1.263.683-1.783Zm-.515.353.092-.149c-.148.446-.366.91-.608 1.337-.111-.445.348-.798.516-1.188Zm.812 2.205c-.348.018-.882.223-1.216-.074.018-.15-.149-.223-.13-.372.292-.111.552.242.83-.018.423.018.864-.056 1.29.037.205.055.516-.334.553.055-.148.613-.882.186-1.323.372h-.004Zm1.067-2.67v-.055h.037v.056h-.037Zm.112 1.17c.018.186.204.26.092.428-.037-.075-.148-.242-.092-.428Zm.515 1.115-.093.037c-.093-.075-.056-.279-.037-.39.111.093.204.223.13.353Zm.919.445c-.019.056-.111.056-.149.019-.552-.706-.812-1.448-1.16-2.224l.074-.018c.441.724.794 1.522 1.235 2.223Zm.682-1.708c-.037.019-.037.056-.037.074-.534.019-.882-.297-1.29-.575l-.019-.093c.497.037.9.353 1.346.594Zm-.478-2.465c.223.056.242.297.26.483-.018.408-.241.761-.627.91-.204.111-.515.148-.719.074.441-.019.92-.186 1.105-.631l-.019-.836Zm-.404-.074c.093.26.256.501.168.817-.186.353-.553.353-.882.427a.57.57 0 0 1-.423-.13c.019-.074-.018-.13-.074-.186.056-.241-.422-.482-.093-.687.292-.278.993-.91 1.309-.241h-.005Zm9.353-1.35c-.148.185-.018.482-.204.65 0 .333-.279.5-.515.63-2.191.483-4.345-.26-6.461-.63-2.966-.65-6.424-.836-9.446-.15-1.416.26-2.799.595-4.159.985-.85.111-1.768.241-2.576-.019-.664-.316-.385-1.17-.59-1.764.038-.464-.13-.835-.148-1.28a1.096 1.096 0 0 1-.074-.483c.274.037.552.24.845.315 1.545.297 2.928-.204 4.363-.464 1.383-.297 2.798-.538 4.251-.65 1.657-.018 3.352-.111 4.934.167.516.019.956.149 1.453.186 1.03.13 1.991.408 3.04.483.168.055.367.055.553.092 1.657.26 3.518.724 5.1 0 0 .669-.273 1.281-.366 1.931Zm-.515-2.261c.019.297-.26.223-.404.334h-.44c-.094-.148-.056-.371-.056-.52.292.056.626.056.9.186Zm-.204-.464c.204-.205-.056-1.374.515-.613 0 .149.018.371-.13.483-.093.074-.241.222-.385.13Zm1.49-.186c-.167.334-.423.576-.794.631.019-.445.422-.76.278-1.262-.24-.353-.719-.464-1.16-.372-.167.112-.093.297-.148.465l-.075.612c-.366 0-.385-.334-.496-.594.018-.39.185-.78.57-.965.293-.149.776-.13 1.068.037.241.056.515.167.608.39.279.26.204.724.149 1.058Z" fill="#fff"/><path fill-rule="evenodd" clip-rule="evenodd" d="M116.294 64.578H.888v-.595h115.406v.595Z" fill="#fff"/><path d="M39.692 50.287a.897.897 0 0 0-.66-.273.884.884 0 0 0-.649.273.89.89 0 0 0-.27.655.88.88 0 0 0 .27.65c.176.18.395.269.65.269a.89.89 0 0 0 .654-.27.869.869 0 0 0 .274-.65.882.882 0 0 0-.27-.654ZM39.868 57.157v-4.428h-2.344v.223c.265.014.441.079.534.19.093.107.14.357.14.752v3.268c0 .394-.042.636-.121.728-.121.135-.307.204-.553.214v.213h3.022v-.213c-.27-.014-.446-.08-.538-.186-.093-.111-.14-.367-.14-.761Z" fill="#fff"/><path fill-rule="evenodd" clip-rule="evenodd" d="M3.023 56.01h2.861l.43 1.008c.112.264.172.413.181.45a.799.799 0 0 1 .037.223c0 .12-.041.209-.13.274-.125.088-.348.13-.663.13h-.163v.222h3.927v-.223c-.25-.018-.441-.088-.576-.213-.176-.162-.408-.557-.687-1.188L5.316 50.04h-.111l-2.901 6.475c-.279.618-.51 1.026-.696 1.226-.19.195-.427.315-.72.357v.223h2.697v-.223c-.422-.032-.687-.079-.794-.144a.542.542 0 0 1-.274-.501c0-.172.056-.39.167-.654l.34-.79Zm2.861 0h.003l-.004-.004.001.005Zm-1.408-3.235 1.207 2.794h-2.45l1.243-2.794Z" fill="#fff"/><path d="M14.474 57.106v-4.382l.005-.005h-2.28v.223c.247.033.41.102.483.205.08.102.121.366.121.789v2.993c-.223.316-.418.525-.575.627a.676.676 0 0 1-.39.116.48.48 0 0 1-.288-.088.53.53 0 0 1-.181-.265c-.037-.116-.056-.371-.056-.77v-3.825H9.034v.223c.246.032.409.102.483.204.079.102.12.367.12.79v2.218c0 .65.042 1.1.126 1.36.083.26.25.487.492.682.25.19.515.288.845.288.33 0 .626-.07.896-.213.269-.149.533-.381.803-.701v.747h2.279v-.214c-.242-.027-.404-.097-.483-.2-.08-.106-.12-.375-.12-.802ZM18.995 52.571l.088 1.908h-.204c-.241-.567-.497-.952-.761-1.16-.26-.21-.52-.312-.78-.312a.582.582 0 0 0-.418.167.493.493 0 0 0-.172.376c0 .107.042.214.121.311.125.163.483.446 1.072.845.585.395.97.733 1.156 1.012.186.274.283.585.283.928 0 .311-.079.618-.232.915-.158.297-.376.529-.659.687a1.905 1.905 0 0 1-.938.241c-.269 0-.621-.083-1.072-.25a.952.952 0 0 0-.246-.066c-.13 0-.241.098-.33.297h-.199l-.097-2.01h.204c.18.525.427.924.738 1.184.316.265.613.395.891.395a.65.65 0 0 0 .469-.172.577.577 0 0 0 .186-.432c0-.19-.06-.357-.181-.496-.121-.14-.386-.353-.803-.636-.608-.422-1.008-.747-1.184-.97a1.672 1.672 0 0 1-.395-1.082c0-.431.149-.821.441-1.165.297-.352.73-.524 1.29-.524.302 0 .595.074.883.223.106.06.195.088.264.088.07 0 .13-.014.172-.042.042-.033.111-.116.209-.255h.204v-.005ZM21.956 52.724v-2.047h-.195a6.86 6.86 0 0 1-.928 1.31c-.353.39-.78.765-1.281 1.118v.209h.729v3.021c0 .6.018.966.06 1.1.07.242.227.465.469.664.25.195.548.293.905.293.724 0 1.249-.381 1.573-1.147l-.18-.13c-.233.395-.479.594-.739.594a.355.355 0 0 1-.208-.083.47.47 0 0 1-.163-.228c-.028-.093-.042-.301-.042-.626v-3.454h1.328v-.594h-1.328ZM26.018 52.724v1.267c.371-.58.696-.96.974-1.146.279-.19.548-.288.808-.288.223 0 .4.07.534.209.134.135.204.33.204.58 0 .27-.065.474-.2.622a.597.597 0 0 1-.468.223.821.821 0 0 1-.553-.204l-.1-.087a1.721 1.721 0 0 0-.173-.14.27.27 0 0 0-.14-.038.496.496 0 0 0-.33.13c-.162.135-.287.33-.37.58-.126.386-.19.813-.19 1.281v1.62c.004.228.018.372.046.437a.508.508 0 0 0 .208.241c.098.046.256.079.478.088v.214h-3.021v-.214c.241-.018.408-.083.492-.2.088-.116.13-.417.13-.905v-3.09c0-.321-.014-.525-.047-.609a.499.499 0 0 0-.171-.246c-.075-.05-.21-.088-.4-.107v-.222h2.284l.005.004Z" fill="#fff"/><path fill-rule="evenodd" clip-rule="evenodd" d="M29.768 58.396c.543 0 1.156-.302 1.838-.905l.005-.014c.041.302.148.53.33.683.18.148.426.222.747.222.269 0 .51-.065.724-.195.213-.134.422-.348.622-.645l-.181-.144c-.107.149-.214.223-.316.223a.21.21 0 0 1-.14-.046.294.294 0 0 1-.087-.144c-.019-.065-.028-.228-.028-.483v-2.172c0-.604-.028-.989-.084-1.156-.093-.26-.292-.506-.603-.729-.307-.227-.729-.338-1.258-.338-.436 0-.859.07-1.267.208-.409.14-.724.34-.952.604-.223.26-.339.533-.339.821 0 .205.084.38.251.534a.922.922 0 0 0 .636.227.8.8 0 0 0 .566-.204.663.663 0 0 0 .223-.501c0-.158-.074-.325-.227-.497-.112-.125-.168-.227-.168-.31 0-.098.052-.182.154-.251.167-.116.38-.172.64-.172.163 0 .302.042.432.125a.6.6 0 0 1 .255.288c.046.107.07.371.07.794v.561c-1.235.567-2.033 1.022-2.4 1.365-.367.343-.552.724-.552 1.151 0 .316.102.576.315.79.21.208.474.31.794.31Zm1.838-3.212v1.87l.005.005c-.265.223-.497.335-.697.335a.545.545 0 0 1-.417-.163.667.667 0 0 1-.2-.483c0-.222.074-.44.232-.654.237-.325.594-.627 1.077-.91Z" fill="#fff"/><path d="M36.47 50.209v6.948c0 .394.047.65.14.761.093.107.269.172.538.186v.213h-3.022v-.213c.247-.01.432-.08.553-.214.079-.093.12-.334.12-.728v-5.793c0-.39-.046-.64-.139-.747-.092-.112-.269-.177-.533-.19v-.224h2.343Z" fill="#fff"/><path fill-rule="evenodd" clip-rule="evenodd" d="M43.809 57.491c-.682.603-1.295.905-1.838.905a1.074 1.074 0 0 1-1.11-1.1c0-.427.186-.807.553-1.151.366-.343 1.165-.798 2.4-1.365v-.561c0-.423-.024-.687-.07-.794a.6.6 0 0 0-.255-.288.76.76 0 0 0-.432-.125c-.26 0-.474.056-.64.172-.103.07-.159.153-.159.25 0 .084.056.186.168.311.153.172.227.34.227.497a.663.663 0 0 1-.223.501.8.8 0 0 1-.566.204.922.922 0 0 1-.636-.227.702.702 0 0 1-.25-.534c0-.288.11-.561.338-.821.228-.265.543-.464.952-.604.408-.139.83-.209 1.267-.209.53 0 .951.112 1.258.34.31.222.51.468.603.728.056.167.084.552.084 1.156v2.172c0 .255.009.418.028.483a.293.293 0 0 0 .088.144.21.21 0 0 0 .139.046c.102 0 .209-.074.316-.223l.18.144c-.199.297-.408.51-.621.645-.214.13-.455.195-.724.195-.32 0-.567-.074-.748-.222-.18-.154-.288-.381-.33-.683v.014Zm0-.436v-1.87c-.483.282-.84.584-1.077.909a1.115 1.115 0 0 0-.232.654c0 .186.065.344.2.483.097.107.236.163.417.163.2 0 .432-.112.696-.335l-.004-.004Z" fill="#fff"/><path d="M48.645 53.448v-.724l-.004-.004h-2.28v.222c.247.033.41.102.483.205.08.102.121.366.121.789v3.16c0 .432-.032.692-.102.78-.097.13-.264.205-.501.228v.213h2.831v-.213c-.209-.028-.357-.098-.436-.21-.074-.11-.112-.375-.112-.793v-2.998c.293-.492.613-.738.957-.738.106 0 .2.032.283.102.088.06.148.153.185.274.038.12.056.408.056.868v2.488c0 .394-.032.645-.097.742-.093.149-.246.237-.455.265v.213h2.831v-.213c-.25-.028-.413-.098-.492-.2-.074-.107-.111-.376-.111-.807V54.92c0-.645-.033-1.082-.098-1.31a1.421 1.421 0 0 0-.478-.747c-.241-.204-.543-.306-.905-.306-.302 0-.585.07-.85.214-.264.139-.538.366-.826.677ZM63.42 50.018v.005h-.21c-.083.227-.166.385-.264.469a.486.486 0 0 1-.31.12c-.075 0-.307-.074-.702-.223-.39-.148-.673-.24-.85-.273a5.578 5.578 0 0 0-1.09-.098c-1.3 0-2.376.423-3.235 1.263-.859.84-1.286 1.87-1.286 3.091 0 .682.14 1.295.418 1.847.218.427.524.813.91 1.156.39.339.84.613 1.346.826.51.21 1.15.311 1.921.311.604 0 1.184-.06 1.74-.18a7.847 7.847 0 0 0 1.62-.52v-1.69c0-.297.02-.483.056-.557a.609.609 0 0 1 .27-.306c.116-.066.33-.107.626-.126v-.223h-3.945v.223h.209c.195.005.362.042.497.116.139.075.232.158.273.255.042.093.065.298.065.618v1.69a4.423 4.423 0 0 1-.636.185c-.204.042-.403.06-.598.06-.566 0-1.05-.139-1.462-.413-.409-.274-.701-.705-.887-1.29-.18-.585-.274-1.267-.274-2.047 0-.645.084-1.272.25-1.88.168-.612.451-1.086.855-1.425.404-.343.877-.515 1.513-.515.636 0 1.22.2 1.755.608.533.409.933 1.003 1.202 1.782h.223v-2.854h.014l-.014-.005Z" fill="#fff"/><path fill-rule="evenodd" clip-rule="evenodd" d="M68.665 52.933a2.612 2.612 0 0 0-1.358-.376h.002-.004.002c-.807 0-1.447.298-1.91.896-.464.594-.696 1.318-.696 2.093 0 .775.227 1.462.682 2.052.455.59 1.09.886 1.945.886.854 0 1.527-.325 2.014-.97.404-.534.604-1.197.604-1.99 0-.549-.112-1.055-.33-1.519a2.38 2.38 0 0 0-.951-1.072Zm-1.862.279a.697.697 0 0 1 .525-.233l.004.005c.167 0 .307.042.409.125.148.116.26.302.334.557.079.251.116.715.116 1.393 0 1.151-.042 1.917-.12 2.297a1.011 1.011 0 0 1-.312.567.684.684 0 0 1-.45.148.666.666 0 0 1-.492-.222c-.144-.149-.241-.362-.283-.646a8.084 8.084 0 0 1-.084-1.197c0-.808.024-1.434.065-1.885.047-.455.144-.756.288-.91Z" fill="#fff"/><path d="m72.582 58.484-1.885-4.34c-.227-.524-.403-.853-.533-.993a.73.73 0 0 0-.409-.209v-.223h2.975v.223c-.185 0-.315.033-.385.102a.402.402 0 0 0-.144.311c0 .149.089.428.265.831l.924 2.098.733-1.815c.213-.52.316-.886.316-1.1a.36.36 0 0 0-.14-.297c-.088-.079-.246-.125-.473-.13v-.223h1.833v.223a.722.722 0 0 0-.431.2c-.112.107-.279.427-.502.951l-1.866 4.391h-.278Z" fill="#fff"/><path fill-rule="evenodd" clip-rule="evenodd" d="M76.996 55.324h3.068c-.032-.915-.26-1.602-.677-2.066-.413-.469-.906-.7-1.472-.7-.678 0-1.272.278-1.778.83-.5.552-.752 1.295-.752 2.228 0 .761.172 1.397.516 1.912.427.636 1.053.956 1.884.956.483 0 .91-.125 1.277-.38.371-.26.705-.701 1.007-1.318l-.204-.13c-.223.348-.432.59-.627.724-.2.134-.413.2-.654.2-.386 0-.72-.168-.994-.497-.362-.432-.557-1.017-.594-1.76Zm1.49-1.722c.07.24.107.682.107 1.322v.005h-1.63v-.209c0-.622.117-1.105.353-1.462.135-.204.302-.306.511-.306.14 0 .25.037.334.106.149.121.255.302.325.544Z" fill="#fff"/><path d="M82.72 52.724v1.267c.37-.58.695-.96.974-1.146.278-.19.548-.288.808-.288.222 0 .399.07.533.209.135.135.205.33.205.58 0 .27-.065.474-.195.622a.595.595 0 0 1-.465.223.821.821 0 0 1-.552-.204 2.856 2.856 0 0 0-.274-.228.283.283 0 0 0-.139-.037.496.496 0 0 0-.33.13c-.162.135-.287.33-.37.58a3.99 3.99 0 0 0-.191 1.281v1.62c.004.228.019.372.046.437a.508.508 0 0 0 .21.241c.097.046.254.079.477.088v.214h-3.021v-.214c.241-.018.408-.083.492-.2.088-.116.13-.417.13-.905v-3.09c0-.321-.019-.525-.047-.609a.5.5 0 0 0-.172-.246c-.074-.05-.209-.088-.399-.107v-.222h2.284l-.005.004ZM87.876 53.448v-.728h-2.279v.222c.246.033.409.102.483.205.079.102.12.366.12.789v3.16c0 .432-.032.692-.102.78-.097.13-.264.205-.5.228v.213h2.83v-.213c-.208-.028-.357-.098-.436-.21-.074-.11-.111-.375-.111-.793v-2.998c.292-.492.612-.738.956-.738.107 0 .2.032.283.102.088.06.149.153.186.274.037.12.055.408.055.868v2.488c0 .394-.032.645-.097.742-.093.149-.241.237-.455.265v.213h2.831v-.213c-.25-.028-.413-.098-.492-.2-.078-.107-.116-.376-.116-.807V54.92c0-.645-.032-1.082-.097-1.31a1.42 1.42 0 0 0-.478-.747c-.241-.204-.543-.306-.905-.306-.302 0-.585.07-.85.214-.264.139-.538.366-.826.677ZM94.36 52.724v.005h-2.274v.223c.246.032.408.102.483.204.079.102.12.367.12.789v3.16c0 .433-.032.692-.102.78-.097.13-.264.205-.501.228v.214h2.882v-.214c-.25-.023-.413-.097-.492-.223-.074-.13-.111-.39-.111-.784v-3.003c.214-.302.413-.51.599-.636a.797.797 0 0 1 .436-.125.555.555 0 0 1 .501.404c.042.13.06.445.06.95v2.405c0 .33-.013.543-.046.64a.492.492 0 0 1-.18.251.686.686 0 0 1-.367.112v.213h2.896v-.213c-.255-.019-.432-.098-.525-.246-.07-.107-.102-.358-.102-.761v-3.004c.181-.25.358-.436.534-.561.176-.125.348-.19.52-.19.111 0 .213.032.297.102.088.06.148.162.19.297.042.134.06.455.06.951v2.405c0 .39-.037.636-.106.742-.107.158-.274.246-.501.265v.213h2.891v-.213c-.25-.033-.413-.102-.492-.204-.074-.107-.111-.372-.111-.803v-2.293c0-.6-.047-1.035-.139-1.305a1.337 1.337 0 0 0-.478-.677c-.228-.181-.539-.27-.924-.27-.32 0-.627.084-.924.242-.292.162-.594.422-.914.78-.13-.344-.32-.6-.562-.766-.246-.167-.547-.25-.905-.25-.31 0-.599.069-.863.203-.26.135-.543.367-.85.701v-.733h.005l-.005-.005Z" fill="#fff"/><path fill-rule="evenodd" clip-rule="evenodd" d="M103.425 55.324h3.068c-.032-.915-.259-1.602-.677-2.066-.413-.469-.905-.7-1.472-.7-.677 0-1.271.278-1.777.83-.502.552-.752 1.295-.752 2.228 0 .761.172 1.397.515 1.912.427.636 1.054.956 1.884.956.483 0 .91-.125 1.277-.38.371-.26.705-.701 1.007-1.318l-.204-.13c-.223.348-.432.59-.627.724-.199.134-.413.2-.654.2-.385 0-.72-.168-.993-.497-.363-.432-.557-1.017-.595-1.76Zm1.49-1.722c.07.24.107.682.107 1.322v.005h-1.629v-.209c0-.622.116-1.105.353-1.462.134-.204.301-.306.51-.306.139 0 .251.037.334.106.149.121.256.302.325.544Z" fill="#fff"/><path d="M108.991 52.724v.724c.287-.31.561-.538.826-.677.264-.144.548-.214.849-.214.362 0 .664.102.905.306.242.2.4.45.478.748.065.227.098.664.098 1.309v2.177c0 .431.037.7.116.807.079.102.241.172.492.2v.213h-2.831v-.213c.213-.028.362-.116.454-.265.065-.097.098-.348.098-.742v-2.488c0-.46-.019-.748-.056-.868a.492.492 0 0 0-.185-.274.428.428 0 0 0-.284-.102c-.343 0-.663.246-.956.738V57.1c0 .418.037.682.116.794.079.111.228.18.437.209v.213h-2.832v-.213c.237-.023.404-.098.502-.228.069-.088.102-.348.102-.78v-3.16c0-.423-.042-.687-.121-.79-.074-.102-.237-.171-.483-.204v-.222h2.279l-.004.004ZM115.127 52.724v-2.047h-.195a6.867 6.867 0 0 1-.929 1.31c-.352.39-.779.765-1.281 1.118v.209h.729v3.021c0 .6.019.966.06 1.1.07.242.228.465.469.664.251.195.552.293.905.293.724 0 1.249-.381 1.574-1.147l-.181-.13c-.232.395-.478.594-.738.594a.355.355 0 0 1-.209-.083.474.474 0 0 1-.163-.228c-.027-.093-.041-.301-.041-.626v-3.454h1.327v-.594h-1.327ZM8.3 76.683c.276-.018.474-.057.595-.118.214-.11.321-.312.321-.605v-5.408c0-.282-.101-.479-.305-.59-.118-.064-.321-.108-.61-.133v-.279h3.352c1.353 0 2.385.36 3.095 1.082.646.657.97 1.539.97 2.645 0 .993-.326 1.833-.975 2.522-.732.775-1.725 1.162-2.978 1.162H8.301v-.278Zm2.689-.734c.01.225.052.388.123.488.075.1.232.15.471.15.65 0 1.184-.229 1.601-.686.418-.46.627-1.342.627-2.645 0-.775-.113-1.44-.337-1.998-.364-.896-.979-1.344-1.842-1.344-.286 0-.472.061-.557.182-.057.079-.086.23-.086.456v5.397ZM16.232 74.445c0-.843.223-1.496.67-1.96.45-.468.99-.702 1.622-.702.36 0 .7.095 1.018.284.317.19.562.452.733.787.129.254.218.582.268.986.025.189.038.333.038.433h-2.796c.025.44.097.82.214 1.14.215.604.591.906 1.13.906.257 0 .5-.08.729-.241.139-.097.312-.259.519-.487l.252.155c-.34.557-.732.944-1.178 1.162a2.27 2.27 0 0 1-.996.209c-.54 0-1.045-.213-1.516-.638-.471-.424-.707-1.103-.707-2.034Zm2.999-.579c-.007-.646-.057-1.097-.15-1.355-.093-.257-.278-.385-.557-.385-.285 0-.482.148-.589.444-.103.297-.162.729-.177 1.296h1.473ZM23.976 76.506c.397 0 .664-.262.804-.787.075-.29.112-.705.112-1.248 0-.628-.057-1.128-.171-1.499-.114-.375-.347-.562-.696-.562-.236 0-.447.103-.632.31-.186.207-.279.357-.279.45v2.667c0 .107.088.246.263.418a.855.855 0 0 0 .6.251Zm-3.01 2.453c.236-.025.397-.08.483-.166.086-.082.128-.24.128-.471v-5.51c0-.23-.04-.383-.123-.461-.078-.082-.232-.14-.46-.171v-.268h2.093v.723c.15-.25.297-.434.44-.552.257-.207.585-.31.985-.31a1.82 1.82 0 0 1 1.43.648c.382.431.573 1.076.573 1.933 0 .796-.206 1.456-.616 1.98-.407.522-.903.783-1.489.783-.3 0-.584-.088-.851-.263a2.292 2.292 0 0 1-.445-.396v.927c.004.492.007.769.011.83.025.289.098.487.22.594.125.107.332.17.62.187v.225h-2.998v-.262ZM29.188 76.335a.853.853 0 0 0 .498-.16c.085-.065.187-.165.305-.3v-1.602a2.29 2.29 0 0 0-.771.338c-.375.26-.563.592-.563.996 0 .239.054.42.161.546.11.121.234.182.37.182Zm-2.126-.396c0-.493.237-.884.712-1.173.475-.29 1.22-.58 2.233-.873v-.798c0-.325-.07-.564-.209-.717-.136-.157-.378-.236-.728-.236a.955.955 0 0 0-.488.112c-.124.072-.187.163-.187.274 0 .042.007.078.021.107a.43.43 0 0 0 .065.09l.064.076c.05.06.09.128.118.203a.554.554 0 0 1 .048.23c0 .208-.07.368-.209.482a.732.732 0 0 1-.476.166.817.817 0 0 1-.541-.187c-.147-.125-.22-.305-.22-.54 0-.422.198-.756.595-1.002.396-.247.883-.37 1.462-.37.62 0 1.14.12 1.558.359.414.243.621.689.621 1.339v2.656c0 .078.02.146.059.203.043.054.09.08.14.08.042 0 .08-.007.111-.02a.764.764 0 0 0 .161-.135l.166.23c-.214.25-.451.425-.712.525a1.412 1.412 0 0 1-.52.097c-.324 0-.562-.095-.712-.284-.085-.107-.148-.266-.187-.477a2.573 2.573 0 0 1-1.028.643c-.232.079-.46.118-.686.118-.3 0-.58-.095-.84-.284-.261-.193-.391-.49-.391-.894ZM32.375 76.699c.21-.025.357-.075.439-.15.082-.075.127-.22.134-.434l.01-.32V72.81c0-.228-.039-.383-.117-.466-.079-.082-.234-.137-.466-.165v-.268h2.083v.862c.232-.304.462-.544.69-.723a1.25 1.25 0 0 1 .793-.268c.225 0 .427.073.605.22.182.143.273.353.273.632 0 .214-.064.39-.193.53a.63.63 0 0 1-.492.209c-.232 0-.434-.11-.605-.327-.168-.218-.286-.327-.354-.327-.146 0-.294.091-.444.273-.147.179-.22.436-.22.772v2.072c0 .364.052.593.156.685.107.09.317.148.631.177v.262h-2.923V76.7ZM37.136 72.394v-.306c.096-.089.216-.194.359-.316a9.075 9.075 0 0 0 1.44-1.714h.279v1.854h1.044v.482h-1.044v3.298c0 .154.023.282.07.386.07.16.189.24.353.24.143 0 .262-.05.359-.15.096-.103.192-.244.289-.422l.262.128c-.128.3-.282.545-.46.734a1.525 1.525 0 0 1-1.152.498 1.49 1.49 0 0 1-.674-.145c-.372-.185-.557-.523-.557-1.012v-3.555h-.568ZM40.698 76.699c.2-.025.337-.068.412-.129.122-.096.182-.274.182-.535v-3.224c0-.228-.04-.383-.123-.466-.082-.082-.239-.137-.47-.165v-.268h2.077v.787a2.97 2.97 0 0 1 .53-.557 1.72 1.72 0 0 1 1.06-.359c.44 0 .78.104 1.023.31.136.119.264.311.386.58h.075c.207-.254.405-.445.594-.574.3-.21.626-.316.98-.316.385 0 .724.123 1.017.37.297.246.445.635.445 1.167v2.758c0 .253.04.416.123.487.082.068.227.113.434.134v.262H46.84V76.7c.2-.028.34-.077.418-.144.078-.072.118-.23.118-.477v-2.656c0-.286-.043-.507-.129-.664-.082-.157-.24-.236-.477-.236-.189 0-.389.088-.6.263-.206.171-.31.29-.31.358v2.935c0 .24.036.393.107.46.072.068.206.122.402.161v.262h-2.565V76.7c.193-.025.33-.071.412-.14.082-.07.123-.231.123-.481v-2.656c0-.279-.039-.498-.117-.659-.079-.16-.241-.24-.488-.24-.225 0-.433.092-.626.278-.193.182-.29.296-.29.342v2.935c0 .24.035.393.102.46.068.068.202.122.402.161v.262h-2.624V76.7ZM49.813 74.445c0-.843.223-1.496.67-1.96.45-.468.99-.702 1.622-.702.36 0 .7.095 1.017.284.318.19.563.452.734.787.128.254.218.582.268.986.025.189.037.333.037.433h-2.795c.025.44.096.82.214 1.14.214.604.591.906 1.13.906.257 0 .5-.08.728-.241.14-.097.313-.259.52-.487l.251.155c-.339.557-.731.944-1.178 1.162a2.27 2.27 0 0 1-.996.209c-.539 0-1.044-.213-1.515-.638-.471-.424-.707-1.103-.707-2.034Zm2.999-.579c-.007-.646-.057-1.097-.15-1.355-.093-.257-.279-.385-.557-.385-.286 0-.482.148-.59.444-.103.297-.162.729-.176 1.296h1.473ZM54.526 76.699c.2-.025.347-.078.44-.16.096-.086.144-.254.144-.504v-3.224c0-.221-.04-.375-.118-.46-.075-.086-.23-.143-.466-.171v-.268h2.078v.787c.175-.264.396-.482.664-.653.271-.175.571-.263.9-.263.47 0 .835.122 1.092.364.26.243.39.67.39 1.28v2.65c0 .247.042.406.124.478.086.07.227.12.423.144v.262h-2.576V76.7c.197-.04.33-.093.402-.16.071-.068.107-.222.107-.461v-2.656c0-.25-.025-.438-.075-.562-.086-.225-.255-.338-.508-.338-.19 0-.365.07-.525.209a1.811 1.811 0 0 0-.364.412v2.935c0 .24.035.393.107.46.071.068.205.122.401.161v.262h-2.64V76.7ZM60.54 72.394v-.306c.097-.089.217-.194.36-.316a9.075 9.075 0 0 0 1.44-1.714h.278v1.854h1.045v.482h-1.044v3.298c0 .154.023.282.07.386.07.16.188.24.352.24.143 0 .263-.05.36-.15.096-.103.192-.244.288-.422l.263.128c-.129.3-.282.545-.46.734a1.524 1.524 0 0 1-1.152.498 1.49 1.49 0 0 1-.675-.145c-.371-.185-.557-.523-.557-1.012v-3.555h-.567ZM66.819 74.45c0-.764.233-1.401.701-1.912.471-.51 1.062-.766 1.773-.766.724 0 1.317.261 1.777.782.464.522.697 1.153.697 1.896 0 .732-.229 1.362-.686 1.89-.457.525-1.053.787-1.788.787-.715 0-1.305-.255-1.773-.765-.468-.514-.701-1.152-.701-1.912Zm1.611 0c0 .767.04 1.305.118 1.612.125.475.373.712.745.712.353 0 .585-.182.696-.546.11-.364.166-.957.166-1.778 0-.818-.06-1.408-.177-1.773-.114-.367-.341-.551-.68-.551-.371 0-.62.237-.745.712-.082.318-.123.855-.123 1.612ZM72.12 76.699c.226-.018.386-.068.483-.15.1-.082.15-.253.15-.514v-3.566h-.632v-.482h.632v-.407c0-.51.08-.93.24-1.259.304-.614.865-.92 1.682-.92.436 0 .803.1 1.103.3.304.196.455.456.455.781a.656.656 0 0 1-.192.493.68.68 0 0 1-.504.187.644.644 0 0 1-.45-.171.54.54 0 0 1-.187-.413c0-.121.04-.248.118-.38.082-.135.123-.218.123-.246 0-.09-.032-.147-.096-.171a.571.571 0 0 0-.21-.038c-.178 0-.315.052-.412.155-.096.104-.144.327-.144.67v1.419h.953v.482h-.953v3.368c0 .378.053.61.16.696.111.086.354.141.729.166v.262H72.12V76.7ZM78.382 76.683c.293-.014.5-.055.622-.123.203-.114.305-.33.305-.648v-5.307c0-.31-.091-.521-.273-.632-.11-.064-.329-.112-.654-.144v-.279h3.712v.279c-.322.018-.545.06-.67.128-.207.114-.31.33-.31.648v2.27h2.613v-2.27c0-.318-.099-.532-.295-.642-.121-.068-.348-.113-.68-.134v-.279h3.733v.279c-.322.025-.541.071-.66.139-.196.11-.294.323-.294.637v5.307c0 .321.11.539.327.653.125.068.334.107.626.118v.278h-3.732v-.278c.314-.01.537-.054.67-.129.203-.114.305-.328.305-.642v-2.528h-2.614v2.528c0 .325.111.544.332.658.129.065.345.102.649.113v.278h-3.712v-.278ZM86.876 74.445c0-.843.223-1.496.67-1.96.45-.468.99-.702 1.622-.702.36 0 .7.095 1.018.284.317.19.562.452.733.787.129.254.218.582.268.986.025.189.038.333.038.433h-2.796c.025.44.097.82.214 1.14.215.604.591.906 1.13.906.257 0 .5-.08.729-.241.139-.097.312-.259.519-.487l.252.155c-.34.557-.732.944-1.178 1.162a2.27 2.27 0 0 1-.996.209c-.54 0-1.045-.213-1.516-.638-.471-.424-.707-1.103-.707-2.034Zm3-.579c-.008-.646-.058-1.097-.15-1.355-.094-.257-.28-.385-.558-.385-.285 0-.482.148-.589.444-.103.297-.162.729-.177 1.296h1.473ZM93.817 76.335a.853.853 0 0 0 .498-.16c.086-.065.188-.165.305-.3v-1.602c-.292.072-.55.184-.77.338-.375.26-.563.592-.563.996 0 .239.054.42.16.546.111.121.234.182.37.182Zm-2.126-.396c0-.493.238-.884.712-1.173.475-.29 1.22-.58 2.233-.873v-.798c0-.325-.07-.564-.208-.717-.136-.157-.379-.236-.729-.236a.955.955 0 0 0-.487.112c-.125.072-.187.163-.187.274 0 .042.007.078.021.107a.43.43 0 0 0 .064.09l.065.076c.05.06.089.128.117.203a.554.554 0 0 1 .049.23c0 .208-.07.368-.21.482a.731.731 0 0 1-.476.166.817.817 0 0 1-.54-.187c-.147-.125-.22-.305-.22-.54 0-.422.198-.756.594-1.002.396-.247.884-.37 1.462-.37.621 0 1.14.12 1.558.359.414.243.621.689.621 1.339v2.656c0 .078.02.146.06.203.042.054.089.08.139.08.043 0 .08-.007.112-.02a.764.764 0 0 0 .16-.135l.167.23c-.215.25-.452.425-.713.525a1.411 1.411 0 0 1-.519.097c-.325 0-.562-.095-.712-.284-.086-.107-.148-.266-.188-.477a2.574 2.574 0 0 1-1.028.643c-.232.079-.46.118-.685.118-.3 0-.58-.095-.84-.284-.261-.193-.392-.49-.392-.894ZM96.983 76.699c.193-.046.328-.107.407-.182.082-.079.123-.24.123-.482V70.45c0-.232-.038-.384-.113-.455-.075-.072-.214-.13-.417-.177v-.268h2.078v6.485c0 .243.039.402.117.477.079.075.218.137.418.187v.262h-2.613V76.7ZM99.945 72.394v-.306c.096-.089.216-.194.359-.316a9.048 9.048 0 0 0 1.44-1.714h.279v1.854h1.044v.482h-1.044v3.298a.95.95 0 0 0 .069.386c.072.16.19.24.354.24a.48.48 0 0 0 .359-.15 2.1 2.1 0 0 0 .289-.422l.262.128c-.128.3-.282.545-.46.734a1.526 1.526 0 0 1-1.152.498c-.257 0-.482-.048-.674-.145-.372-.185-.557-.523-.557-1.012v-3.555h-.568ZM103.507 76.699c.2-.025.346-.078.439-.16.096-.086.145-.254.145-.504V70.45c0-.218-.04-.37-.118-.455-.079-.09-.234-.148-.466-.177v-.268h2.12v3.085a2.78 2.78 0 0 1 .707-.627c.25-.15.53-.225.841-.225.421 0 .769.123 1.044.37.275.242.413.658.413 1.247v2.635c0 .246.041.409.123.487.085.075.226.134.423.177v.262h-2.576V76.7c.196-.04.33-.093.402-.16.071-.068.107-.222.107-.461v-2.656c0-.25-.025-.438-.075-.562-.086-.225-.255-.338-.509-.338-.189 0-.385.088-.589.263-.2.175-.3.294-.3.358v2.935c0 .24.036.393.107.46.072.068.206.122.402.161v.262h-2.64V76.7ZM26.48 87.738a.854.854 0 0 0 .498-.16c.086-.065.188-.165.305-.3v-1.602a2.29 2.29 0 0 0-.77.337c-.376.261-.563.593-.563.996 0 .24.054.422.16.547.111.121.235.182.37.182Zm-2.126-.396c0-.493.238-.884.713-1.173.474-.29 1.219-.58 2.232-.873v-.798c0-.325-.07-.564-.208-.718-.136-.157-.379-.235-.729-.235a.956.956 0 0 0-.487.112c-.125.072-.187.163-.187.273 0 .043.007.079.021.108a.43.43 0 0 0 .064.09l.065.076c.05.06.089.128.117.203a.554.554 0 0 1 .049.23c0 .207-.07.368-.21.482a.731.731 0 0 1-.476.166.817.817 0 0 1-.54-.187c-.147-.125-.22-.305-.22-.541 0-.421.198-.755.594-1.001.396-.247.884-.37 1.462-.37.621 0 1.14.12 1.558.359.415.243.622.689.622 1.339v2.656c0 .078.02.146.058.203.043.054.09.08.14.08.043 0 .08-.007.112-.02a.764.764 0 0 0 .16-.135l.167.23c-.214.25-.452.425-.712.525a1.412 1.412 0 0 1-.52.097c-.325 0-.562-.095-.712-.284-.086-.107-.148-.266-.188-.477a2.573 2.573 0 0 1-1.028.643c-.232.078-.46.118-.685.118-.3 0-.58-.095-.84-.284-.261-.193-.392-.491-.392-.894ZM29.646 88.102c.2-.025.346-.079.439-.16.096-.086.145-.254.145-.504v-3.224c0-.221-.04-.375-.118-.46-.075-.086-.23-.143-.466-.172v-.267h2.078v.787a2.23 2.23 0 0 1 .664-.654c.27-.174.57-.262.9-.262.47 0 .835.121 1.092.364.26.243.39.67.39 1.28v2.65c0 .247.042.406.124.477.085.072.226.12.423.145v.262H32.74v-.262c.196-.04.33-.093.402-.16.071-.068.107-.222.107-.461v-2.656c0-.25-.025-.438-.075-.563-.086-.224-.255-.337-.509-.337-.19 0-.364.07-.525.209a1.808 1.808 0 0 0-.364.412v2.935c0 .239.036.393.107.46.072.068.206.122.402.161v.262h-2.64v-.262ZM38.247 87.898c.235 0 .446-.105.632-.316.189-.21.284-.358.284-.444v-2.667c0-.089-.08-.221-.241-.396a.824.824 0 0 0-.638-.262c-.389 0-.653.27-.792.808-.075.29-.113.698-.113 1.227 0 .564.036.988.107 1.274.133.518.386.776.76.776Zm-2.485-1.906c0-.867.205-1.551.616-2.05.414-.504.91-.756 1.489-.756.289 0 .546.071.77.214.14.086.315.24.526.46v-2.007c0-.275-.054-.445-.161-.509-.107-.068-.329-.109-.664-.123v-.268h2.361v6.308c0 .229.043.388.129.477.086.085.253.139.503.16v.252c-.614.06-1.01.107-1.189.14-.178.028-.492.105-.942.23v-.723a2.947 2.947 0 0 1-.568.476 1.667 1.667 0 0 1-.878.247c-.535 0-1.001-.227-1.398-.68-.396-.454-.594-1.07-.594-1.848ZM47.86 85.778l-1.049-2.538h-.09l-.992 2.538h2.132Zm-4.112 2.308a.824.824 0 0 0 .637-.359c.104-.14.252-.446.445-.92l2.436-6.004h.306l2.447 5.762c.275.646.48 1.064.616 1.253.135.186.328.275.578.268v.278h-3.55v-.278c.357-.014.59-.045.701-.091.114-.047.171-.164.171-.354 0-.085-.028-.216-.085-.39a6.738 6.738 0 0 0-.145-.375l-.278-.664h-2.464c-.16.435-.264.719-.31.851-.097.282-.145.487-.145.616 0 .157.106.271.316.343.125.039.313.06.563.064v.278h-2.239v-.278ZM53.238 84.953c0 .421.036.734.107.937.107.322.312.482.616.482.275 0 .464-.12.568-.359.103-.242.155-.596.155-1.06 0-.492-.056-.851-.166-1.076-.107-.225-.293-.337-.557-.337-.29 0-.482.12-.578.364-.097.239-.145.589-.145 1.05Zm-.637 4.605c0 .225.12.402.358.53.243.13.593.193 1.05.193.407 0 .743-.032 1.007-.096.496-.121.744-.344.744-.67a.483.483 0 0 0-.214-.428c-.14-.093-.395-.139-.766-.139h-1.8a1.603 1.603 0 0 0-.245.236.61.61 0 0 0-.134.374Zm-.964.075c0-.157.064-.319.193-.487.132-.164.358-.271.68-.321v-.075c-.215-.082-.37-.166-.466-.252a.786.786 0 0 1-.257-.616c0-.307.134-.569.401-.787a2.6 2.6 0 0 1 .793-.455v-.075a2.205 2.205 0 0 1-.9-.642 1.544 1.544 0 0 1-.343-1.013c0-.5.2-.912.6-1.237.4-.324.941-.487 1.623-.487.257 0 .492.025.707.075.214.05.38.102.498.155h1.446V84h-.89c.143.14.252.302.327.487.079.186.118.388.118.606 0 .685-.327 1.154-.98 1.408-.343.135-.77.203-1.28.203-.11 0-.184-.001-.22-.005a1.488 1.488 0 0 0-.15-.005.74.74 0 0 0-.337.171.451.451 0 0 0-.182.359c0 .11.03.196.091.257.061.06.145.098.252.112.054.007.168.014.343.022.175.003.31.005.407.005l.712.01c.403.008.742.067 1.017.177.525.215.788.598.788 1.152 0 .714-.393 1.205-1.178 1.472-.415.14-.936.21-1.564.21-.514 0-.957-.05-1.328-.15-.614-.168-.921-.454-.921-.858ZM57.025 85.847c0-.842.223-1.495.67-1.96.449-.467.99-.7 1.622-.7.36 0 .7.094 1.017.283.318.19.562.451.734.787.128.254.218.582.268.985.025.19.037.334.037.434h-2.795c.025.44.096.82.214 1.14.214.604.59.906 1.13.906.257 0 .5-.08.728-.241.14-.097.312-.259.52-.487l.251.155c-.339.557-.732.944-1.178 1.162a2.27 2.27 0 0 1-.996.209c-.539 0-1.044-.213-1.515-.638-.472-.424-.707-1.103-.707-2.035Zm2.998-.578c-.007-.646-.057-1.098-.15-1.355-.092-.257-.278-.385-.556-.385-.286 0-.482.148-.59.444-.103.297-.162.729-.176 1.296h1.472ZM64.324 87.898c.236 0 .447-.105.632-.316.19-.21.284-.358.284-.444v-2.667c0-.089-.08-.221-.24-.396a.824.824 0 0 0-.638-.262c-.39 0-.653.27-.793.808-.075.29-.112.698-.112 1.227 0 .564.036.988.107 1.274.132.518.386.776.76.776Zm-2.484-1.906c0-.867.205-1.551.615-2.05.415-.504.91-.756 1.49-.756.288 0 .545.071.77.214.14.086.314.24.525.46v-2.007c0-.275-.053-.445-.16-.509-.108-.068-.329-.109-.665-.123v-.268h2.362v6.308c0 .229.043.388.129.477.085.085.253.139.503.16v.252c-.614.06-1.01.107-1.189.14-.178.028-.493.105-.942.23v-.723a2.947 2.947 0 0 1-.568.476 1.666 1.666 0 0 1-.878.247c-.536 0-1.002-.227-1.398-.68-.396-.454-.594-1.07-.594-1.848ZM74.468 80.814c.457 0 .92.086 1.387.257.468.168.729.252.782.252.14 0 .25-.054.332-.161a.754.754 0 0 0 .16-.337h.306v2.565h-.278c-.265-.557-.534-.996-.809-1.318-.514-.592-1.096-.889-1.746-.889-.735 0-1.258.318-1.569.954-.307.631-.46 1.481-.46 2.549 0 .785.09 1.431.273 1.938.339.95.97 1.424 1.89 1.424.564 0 1.089-.157 1.575-.47.278-.183.606-.474.985-.874l.326.268c-.428.478-.805.825-1.13 1.039a3.423 3.423 0 0 1-1.927.573c-1.082 0-1.989-.321-2.72-.964-.81-.71-1.216-1.667-1.216-2.87 0-1.193.387-2.158 1.162-2.897.728-.693 1.62-1.04 2.677-1.04ZM80.467 87.738a.853.853 0 0 0 .498-.16c.085-.065.187-.165.305-.3v-1.602a2.29 2.29 0 0 0-.771.337c-.375.261-.562.593-.562.996 0 .24.053.422.16.547.111.121.234.182.37.182Zm-2.126-.396c0-.493.237-.884.712-1.173.475-.29 1.22-.58 2.233-.873v-.798c0-.325-.07-.564-.209-.718-.135-.157-.378-.235-.728-.235a.956.956 0 0 0-.487.112c-.125.072-.188.163-.188.273a.24.24 0 0 0 .022.108.43.43 0 0 0 .064.09l.064.076c.05.06.09.128.118.203a.554.554 0 0 1 .048.23c0 .207-.07.368-.209.482a.731.731 0 0 1-.476.166.817.817 0 0 1-.541-.187c-.146-.125-.22-.305-.22-.541 0-.421.199-.755.595-1.001.396-.247.883-.37 1.462-.37.62 0 1.14.12 1.558.359.414.243.621.689.621 1.339v2.656c0 .078.02.146.06.203.042.054.088.08.138.08.043 0 .08-.007.113-.02a.764.764 0 0 0 .16-.135l.166.23c-.214.25-.451.425-.712.525a1.412 1.412 0 0 1-.52.097c-.324 0-.561-.095-.711-.284-.086-.107-.149-.266-.188-.477a2.574 2.574 0 0 1-1.028.643c-.232.078-.46.118-.685.118-.3 0-.58-.095-.841-.284-.26-.193-.391-.491-.391-.894ZM83.654 88.102c.21-.025.357-.075.439-.15.082-.075.127-.22.134-.434l.01-.321v-2.983c0-.228-.039-.383-.117-.466-.079-.082-.234-.137-.466-.166v-.267h2.083v.862c.232-.304.462-.545.69-.723.23-.179.493-.268.793-.268.225 0 .427.073.605.22.182.142.273.353.273.632a.75.75 0 0 1-.192.53.63.63 0 0 1-.493.209c-.232 0-.434-.11-.605-.327-.168-.218-.286-.327-.353-.327-.147 0-.295.091-.445.273-.146.179-.22.436-.22.772v2.072c0 .364.052.592.156.685.107.09.318.148.632.177v.262h-2.924v-.262ZM88.292 85.847c0-.842.223-1.495.67-1.96.45-.467.99-.7 1.622-.7.36 0 .7.094 1.017.283.318.19.563.451.734.787.129.254.218.582.268.985.025.19.037.334.037.434h-2.795c.025.44.097.82.214 1.14.215.604.591.906 1.13.906.257 0 .5-.08.729-.241.139-.097.312-.259.519-.487l.252.155c-.34.557-.732.944-1.178 1.162a2.27 2.27 0 0 1-.996.209c-.54 0-1.045-.213-1.516-.638-.471-.424-.707-1.103-.707-2.035Zm2.999-.578c-.007-.646-.057-1.098-.15-1.355-.093-.257-.279-.385-.557-.385-.285 0-.482.148-.589.444-.104.297-.162.729-.177 1.296h1.473ZM175.875 33.304h8.101l.027 1.453h-8.29l.162-1.453Zm3.66-10.013.431.754-5.356 15.584c0 .09.107.18.323.269.233.072.52.126.861.161.359.036.709.054 1.05.054h.43v1.238h-6.163v-1.238h.134c.503 0 .897-.072 1.185-.215.287-.144.52-.467.699-.969l5.787-16.687h2.692l5.975 17.118c.125.34.332.556.619.646.305.071.682.107 1.13.107h.135v1.238h-6.971v-1.238h.457c.341 0 .682-.009 1.023-.027a8.94 8.94 0 0 0 .888-.08c.252-.054.377-.108.377-.162l-5.706-16.553ZM205.105 29.563a22.798 22.798 0 0 0-2.018-.108c-.557 0-1.014.054-1.373.161a1.665 1.665 0 0 0-.888.646l-.35-.403c.251-.52.538-.96.861-1.32.341-.376.7-.681 1.077-.914a3.575 3.575 0 0 1 1.265-.458c.448-.09.924-.108 1.426-.054v2.45Zm-7.859 7.697c-1.041 0-1.974-.197-2.799-.592a4.793 4.793 0 0 1-1.911-1.722c-.467-.736-.7-1.597-.7-2.584 0-.987.233-1.848.7-2.584a4.921 4.921 0 0 1 1.938-1.75c.825-.43 1.749-.645 2.772-.645 1.041 0 1.965.215 2.772.645a4.69 4.69 0 0 1 1.938 1.75c.485.736.727 1.597.727 2.584 0 .987-.242 1.848-.727 2.584-.466.735-1.112 1.31-1.938 1.722-.807.395-1.731.592-2.772.592Zm0-1.507c.628 0 1.166-.126 1.615-.377.467-.269.825-.655 1.077-1.157.251-.502.376-1.122.376-1.857 0-.718-.125-1.337-.376-1.857a2.664 2.664 0 0 0-1.077-1.185c-.449-.269-.987-.403-1.615-.403-.61 0-1.148.134-1.615.403-.448.27-.798.664-1.049 1.185-.252.52-.377 1.139-.377 1.857 0 .735.125 1.355.377 1.857.251.502.601.888 1.049 1.157.467.252 1.005.377 1.615.377Zm-.404 11.977c-1.202 0-2.287-.116-3.256-.35-.969-.215-1.741-.583-2.315-1.103-.574-.52-.861-1.211-.861-2.073 0-.43.116-.834.35-1.21.233-.36.574-.7 1.022-1.023.449-.306 1.023-.62 1.723-.943l.969.7c-.467.215-.843.449-1.131.7-.287.251-.493.511-.619.78a2.204 2.204 0 0 0-.188.889c0 .43.152.798.458 1.103.305.305.771.539 1.399.7.646.18 1.471.27 2.476.27h.915c.933 0 1.75-.117 2.45-.35.717-.234 1.274-.557 1.668-.97.413-.394.619-.843.619-1.345 0-.52-.197-.898-.592-1.13-.376-.234-1.094-.35-2.153-.35h-6.083l-.107-.028c-.557-.287-1.005-.565-1.346-.834-.323-.287-.556-.583-.7-.888a2.53 2.53 0 0 1-.188-.97c0-.43.107-.834.323-1.21.215-.377.538-.736.969-1.077.43-.359.969-.69 1.615-.996l1.022.7c-.359.18-.682.368-.969.565a2.334 2.334 0 0 0-.619.646 1.37 1.37 0 0 0-.188.7c0 .377.188.655.565.834.395.162.951.243 1.669.243h4.091c1.077 0 1.974.125 2.691.376.736.234 1.283.602 1.642 1.104.377.484.566 1.103.566 1.857 0 1.059-.323 1.938-.969 2.638-.628.7-1.463 1.21-2.504 1.534-1.04.34-2.189.511-3.445.511h-.969ZM208.252 34.623c0 .86.117 1.641.35 2.341.233.682.556 1.256.969 1.723a4.266 4.266 0 0 0 3.257 1.453c.736 0 1.364-.143 1.884-.43a5.074 5.074 0 0 0 1.373-1.05c.376-.43.69-.861.942-1.292l1.238 1.103a7.182 7.182 0 0 1-1.292 1.589 5.668 5.668 0 0 1-1.804 1.157c-.681.269-1.48.404-2.395.404-1.31 0-2.494-.288-3.553-.862a6.562 6.562 0 0 1-2.503-2.449c-.61-1.059-.915-2.306-.915-3.741 0-1.418.287-2.665.861-3.741.592-1.077 1.373-1.92 2.342-2.53.987-.61 2.081-.915 3.284-.915.986 0 1.848.16 2.583.484a4.685 4.685 0 0 1 1.884 1.453c.521.628.916 1.427 1.185 2.396.269.95.403 2.063.403 3.337h-10.577V33.6h8.774l-.753.565c-.018-.897-.099-1.678-.243-2.341-.143-.665-.359-1.212-.646-1.642a2.78 2.78 0 0 0-1.076-.97c-.431-.215-.942-.322-1.534-.322-.557 0-1.086.134-1.588.403-.485.252-.916.628-1.292 1.13-.359.503-.646 1.104-.862 1.804-.197.7-.296 1.498-.296 2.396ZM233.948 39.198c0 .395.207.655.62.78.43.126.968.19 1.614.19h.027v1.183h-4.441V38.31l-.215-.054V24.018c0-.27-.072-.475-.215-.619-.144-.143-.368-.26-.673-.35a9.125 9.125 0 0 0-1.158-.242l-.296-.054v-1.211h4.737v17.656Zm-6.755-11.816c.718 0 1.355.108 1.911.323a4.47 4.47 0 0 1 1.588.97c.484.43.942.995 1.372 1.695l-.027 2.288c-.376-.88-.807-1.597-1.291-2.153-.467-.557-.987-.96-1.562-1.212a4.445 4.445 0 0 0-1.91-.403c-.646 0-1.221.134-1.723.403-.502.27-.924.655-1.265 1.158-.341.502-.601 1.103-.781 1.803-.179.7-.269 1.49-.269 2.369 0 .825.09 1.579.269 2.26.18.682.431 1.265.754 1.75.341.484.754.852 1.238 1.103a3.743 3.743 0 0 0 1.696.377c.718 0 1.363-.143 1.938-.43a5.001 5.001 0 0 0 1.588-1.32c.484-.591.924-1.309 1.318-2.152l.027 2.126c-.466.736-.951 1.346-1.453 1.83a5.076 5.076 0 0 1-1.615 1.104c-.574.233-1.238.35-1.992.35-1.238 0-2.332-.288-3.283-.862-.933-.592-1.669-1.408-2.207-2.449-.539-1.059-.808-2.288-.808-3.687 0-1.436.269-2.692.808-3.768.556-1.095 1.319-1.947 2.287-2.557.987-.61 2.118-.915 3.392-.915ZM253.747 23.587a5.36 5.36 0 0 0-2.476.593 6.274 6.274 0 0 0-1.992 1.668c-.574.718-1.022 1.58-1.345 2.584-.323 1.005-.485 2.126-.485 3.365 0 1.238.153 2.36.458 3.364.323 1.005.771 1.866 1.345 2.584a5.94 5.94 0 0 0 2.1 1.669c.825.394 1.749.592 2.772.592 1.059 0 1.992-.243 2.799-.727a6.27 6.27 0 0 0 2.073-1.992 8.894 8.894 0 0 0 1.211-2.799l1.588.592c-.305 1.274-.817 2.405-1.534 3.392a7.364 7.364 0 0 1-2.665 2.314c-1.059.556-2.27.835-3.633.835-1.346 0-2.584-.234-3.715-.7a8.923 8.923 0 0 1-2.907-2.019c-.825-.88-1.462-1.92-1.91-3.122-.449-1.202-.673-2.53-.673-3.983 0-1.436.233-2.755.699-3.957.467-1.202 1.113-2.243 1.938-3.122a8.55 8.55 0 0 1 2.853-2.019 8.363 8.363 0 0 1 3.472-.727c1.221 0 2.27.189 3.149.566a5.53 5.53 0 0 1 2.181 1.56c.592.665 1.031 1.463 1.318 2.396l-.969-.027.431-4.225h1.561v5.76h-1.749c-.287-.898-.691-1.67-1.211-2.315a5.629 5.629 0 0 0-1.938-1.534c-.772-.377-1.687-.566-2.746-.566ZM273.148 33.062v1.318c-.898.09-1.705.207-2.423.35-.7.144-1.31.314-1.83.512-.502.197-.915.43-1.238.7-.323.269-.565.574-.727.915-.161.34-.242.717-.242 1.13 0 .449.099.834.296 1.157.197.323.476.575.834.754.359.18.772.27 1.239.27.628 0 1.184-.144 1.668-.431.503-.306.942-.736 1.319-1.292a8.95 8.95 0 0 0 1.023-1.938l.027 1.803a5.956 5.956 0 0 1-1.077 1.75 4.586 4.586 0 0 1-1.588 1.157c-.592.269-1.265.404-2.018.404a5.178 5.178 0 0 1-2.127-.431 3.853 3.853 0 0 1-1.534-1.238c-.377-.556-.565-1.202-.565-1.938s.188-1.373.565-1.911c.395-.556.969-1.032 1.723-1.427.753-.394 1.686-.717 2.799-.968 1.112-.27 2.404-.485 3.876-.646Zm-.458 8.29v-2.854l-.269-.08v-6.514c0-.753-.108-1.355-.323-1.803-.197-.449-.502-.763-.915-.942-.395-.18-.879-.27-1.454-.27-.879 0-1.606.18-2.18.539a5.163 5.163 0 0 0-1.372 1.265c-.018-.215 0-.413.053-.592.054-.18.135-.341.243-.485.107-.161.233-.287.376-.376.162-.108.332-.198.512-.27v2.773h-2.342v-2.746a8.013 8.013 0 0 1 1.077-.7 8.088 8.088 0 0 1 1.669-.645 7.925 7.925 0 0 1 2.126-.27c.646 0 1.256.081 1.83.243a4.443 4.443 0 0 1 1.561.726c.467.323.835.763 1.104 1.32.269.538.403 1.201.403 1.991v7.536c0 .251.099.449.297.592.197.144.457.243.78.296.323.054.7.081 1.13.081v1.184h-4.306ZM287.763 27.463v2.396a1.561 1.561 0 0 0-.458-.108 5.155 5.155 0 0 0-1.022-.108c-.485 0-.907.072-1.265.216a2.773 2.773 0 0 0-.942.592c-.27.269-.521.61-.754 1.023-.233.412-.485.906-.754 1.48l-.027-1.723c.288-.771.628-1.435 1.023-1.991.413-.575.888-1.023 1.427-1.346a3.482 3.482 0 0 1 1.857-.511c.179 0 .35.008.511.026.18 0 .314.018.404.054Zm-9.393 13.888v-1.184h.053c.628 0 1.149-.063 1.561-.188.413-.126.62-.386.62-.78v-9.071c0-.27-.072-.467-.216-.592-.143-.144-.359-.26-.646-.35-.287-.09-.655-.18-1.103-.27l-.269-.053v-1.211h4.387v3.956l.242-.242v7.913c0 .27.126.466.377.592.269.126.574.206.915.242.359.036.664.054.915.054h.458v1.184h-7.294ZM291.81 34.623c0 .86.117 1.641.35 2.341.233.682.556 1.256.969 1.723.413.466.897.825 1.453 1.076a4.336 4.336 0 0 0 1.804.377c.735 0 1.363-.143 1.884-.43a5.054 5.054 0 0 0 1.372-1.05c.377-.43.691-.861.942-1.292l1.239 1.103a7.182 7.182 0 0 1-1.292 1.589 5.668 5.668 0 0 1-1.804 1.157c-.682.269-1.48.404-2.395.404-1.31 0-2.494-.288-3.553-.862a6.555 6.555 0 0 1-2.503-2.449c-.61-1.059-.915-2.306-.915-3.741 0-1.418.287-2.665.861-3.741.592-1.077 1.373-1.92 2.342-2.53.987-.61 2.081-.915 3.283-.915.987 0 1.849.16 2.584.484a4.685 4.685 0 0 1 1.884 1.453c.521.628.915 1.427 1.185 2.396.269.95.403 2.063.403 3.337h-10.577V33.6h8.774l-.754.565c-.018-.897-.098-1.678-.242-2.341-.143-.665-.359-1.212-.646-1.642a2.78 2.78 0 0 0-1.076-.97c-.431-.215-.942-.322-1.535-.322-.556 0-1.085.134-1.588.403-.484.252-.915.628-1.292 1.13-.358.503-.646 1.104-.861 1.804-.197.7-.296 1.498-.296 2.396ZM178.835 68.144V53.151h1.642c.7 0 1.301.134 1.803.404.503.269.88.681 1.131 1.238.269.538.404 1.229.404 2.072s-.135 1.561-.404 2.153a2.924 2.924 0 0 1-1.184 1.32c-.503.286-1.122.43-1.858.43h-2.368v2.045h3.418c1.561 0 2.907-.242 4.037-.726 1.131-.503 2.001-1.203 2.611-2.1.61-.915.915-1.983.915-3.203 0-1.794-.655-3.194-1.964-4.198-1.292-1.005-3.114-1.508-5.464-1.508h-9.797v1.777h.269c.466 0 .852.063 1.157.188.305.126.458.386.458.78v13.62c0 .394-.153.655-.458.78-.305.126-.691.189-1.157.189h-.269v1.776h9.232v-1.776h-1.185a19.333 19.333 0 0 1-.484-.054 7.843 7.843 0 0 0-.35-.08c-.09-.037-.135-.082-.135-.135ZM201.526 56.355v4.172a5.893 5.893 0 0 0-1.588-.216c-.412 0-.798.045-1.157.135a3.174 3.174 0 0 0-.996.377 2.735 2.735 0 0 0-.78.672 5.205 5.205 0 0 0-.646 1.05v-1.56c.251-.934.547-1.75.888-2.45.341-.718.771-1.283 1.292-1.696.52-.413 1.184-.619 1.991-.619.216 0 .413.018.593.054.179.018.314.045.403.08Zm-10.954 13.834V68.52h.027c.412 0 .753-.053 1.022-.161.27-.108.404-.323.404-.646V59.1c0-.197-.045-.35-.134-.458a.817.817 0 0 0-.404-.242 5.627 5.627 0 0 0-.7-.215l-.215-.054v-1.723h6.029v4.36l.323-.322v7.59c0 .143.098.251.296.323.197.072.43.116.7.134.287.018.538.027.753.027h.216v1.669h-8.317ZM218.489 63.299c0 1.4-.323 2.646-.969 3.741-.628 1.077-1.534 1.92-2.718 2.53-1.166.592-2.548.888-4.145.888-1.597 0-2.988-.296-4.172-.888-1.166-.61-2.072-1.453-2.718-2.53-.628-1.095-.942-2.342-.942-3.741 0-1.059.179-2.028.538-2.907a6.235 6.235 0 0 1 1.561-2.26 7.174 7.174 0 0 1 2.476-1.481c.969-.341 2.055-.512 3.257-.512s2.279.17 3.23.512c.969.34 1.794.834 2.476 1.48a6.088 6.088 0 0 1 1.588 2.26c.359.88.538 1.85.538 2.908Zm-10.604 0c0 1.112.107 2.054.323 2.826.215.754.529 1.328.942 1.722.412.395.915.593 1.507.593.61 0 1.112-.198 1.507-.593.413-.394.727-.968.942-1.722.216-.772.323-1.714.323-2.826 0-1.13-.107-2.073-.323-2.826-.215-.754-.529-1.32-.942-1.696-.395-.377-.897-.565-1.507-.565-.592 0-1.095.188-1.507.565-.413.377-.727.942-.942 1.696-.216.753-.323 1.695-.323 2.826ZM231.032 58.615c0-.107-.089-.206-.269-.296a1.8 1.8 0 0 0-.619-.188 3.337 3.337 0 0 0-.753-.08h-.054v-1.643h5.194v1.642h-.053c-.198 0-.395.036-.593.108a1.284 1.284 0 0 0-.484.35c-.144.161-.269.386-.377.673l-3.849 11.008h-4.764l-3.956-11.224a1.543 1.543 0 0 0-.323-.538.964.964 0 0 0-.485-.296 2.371 2.371 0 0 0-.673-.08h-.027v-1.643h8.048v1.642h-.054c-.269 0-.538.01-.807.027a5.329 5.329 0 0 0-.673.081c-.179.018-.269.063-.269.135l3.337 9.877-.592-.565 3.095-8.99ZM239.235 54.524c-.825 0-1.48-.197-1.964-.592-.467-.395-.7-.942-.7-1.642s.233-1.238.7-1.614c.484-.395 1.139-.593 1.964-.593.808 0 1.445.198 1.911.593.485.376.727.915.727 1.614 0 .7-.242 1.248-.727 1.642-.466.395-1.103.592-1.911.592Zm2.53 1.884v11.305c0 .323.135.538.404.646.269.108.601.161.996.161h.027v1.669h-7.805V68.52h.026c.413 0 .754-.053 1.023-.161.269-.108.404-.323.404-.646V59.1c0-.287-.099-.485-.296-.592-.197-.126-.511-.233-.942-.323l-.215-.054v-1.723h6.378ZM259.746 67.632c0 .287.107.485.323.592.233.09.565.162.995.216l.108.026v1.723h-6.029v-3.176l-.323.215V53.071c0-.197-.054-.35-.161-.457-.09-.108-.234-.189-.431-.243a5.3 5.3 0 0 0-.727-.215l-.215-.054V50.38h6.46v17.252Zm-8.882-11.493c.825 0 1.543.126 2.153.377.61.251 1.148.628 1.615 1.13.466.503.879 1.131 1.238 1.885l-.081 2.691c-.377-.825-.745-1.507-1.103-2.045-.359-.557-.736-.96-1.131-1.212-.377-.269-.825-.403-1.346-.403-.448 0-.843.116-1.184.35-.323.215-.601.538-.834.968-.216.413-.377.925-.485 1.535-.089.61-.134 1.292-.134 2.045 0 .718.045 1.364.134 1.938.108.574.26 1.059.458 1.454.215.394.475.69.78.888.323.197.691.296 1.104.296.502 0 .951-.144 1.346-.43.394-.306.78-.754 1.157-1.347.377-.592.789-1.354 1.238-2.287l.054 2.664c-.431.844-.888 1.552-1.373 2.127a4.988 4.988 0 0 1-1.642 1.265c-.592.287-1.309.43-2.153.43-1.238 0-2.324-.287-3.257-.861-.915-.592-1.632-1.409-2.153-2.45-.502-1.058-.753-2.287-.753-3.687 0-1.435.269-2.7.807-3.795.538-1.112 1.283-1.974 2.234-2.584.969-.628 2.072-.942 3.311-.942ZM267.389 63.353c0 .79.072 1.498.216 2.126.143.61.358 1.13.646 1.561.305.413.69.727 1.157.942.466.197 1.005.296 1.615.296.646 0 1.202-.117 1.669-.35a4.106 4.106 0 0 0 1.184-.942 6.34 6.34 0 0 0 .834-1.211l1.696 1.211a6.328 6.328 0 0 1-1.346 1.803c-.556.52-1.229.933-2.019 1.239-.771.287-1.695.43-2.772.43-1.561 0-2.934-.287-4.118-.861-1.166-.574-2.072-1.39-2.718-2.45-.646-1.076-.969-2.35-.969-3.821 0-1.436.314-2.692.942-3.768a6.727 6.727 0 0 1 2.611-2.504c1.112-.61 2.368-.915 3.768-.915 1.13 0 2.117.17 2.96.512a5.217 5.217 0 0 1 2.154 1.48c.574.646 1.013 1.471 1.318 2.476.305.987.458 2.145.458 3.472h-9.878v-1.91h5.895l-.593.78c-.018-.915-.071-1.678-.161-2.288-.09-.61-.224-1.086-.404-1.426-.179-.36-.404-.62-.673-.781-.269-.161-.592-.242-.969-.242-.376 0-.717.098-1.022.296-.288.197-.548.511-.781.942-.215.413-.386.942-.511 1.588-.126.646-.189 1.417-.189 2.315ZM289.027 56.355v4.172a5.93 5.93 0 0 0-1.588-.216c-.413 0-.799.045-1.158.135-.359.072-.69.197-.995.377a2.725 2.725 0 0 0-.781.672 5.25 5.25 0 0 0-.646 1.05v-1.56c.251-.934.547-1.75.888-2.45.341-.718.772-1.283 1.292-1.696.52-.413 1.184-.619 1.992-.619.215 0 .413.018.592.054.179.018.314.045.404.08Zm-10.955 13.834V68.52h.027c.413 0 .754-.053 1.023-.161.269-.108.404-.323.404-.646V59.1c0-.197-.045-.35-.135-.458a.812.812 0 0 0-.404-.242 5.552 5.552 0 0 0-.699-.215l-.216-.054v-1.723h6.029v4.36l.323-.322v7.59c0 .143.099.251.296.323.198.072.431.116.7.134.287.018.538.027.754.027h.215v1.669h-8.317ZM301.355 59.315h11.52v2.073h-11.52v-2.073Zm-4.118 10.874v-1.776h.269c.467 0 .853-.063 1.158-.189.305-.125.457-.386.457-.78v-13.62c0-.394-.152-.654-.457-.78-.305-.125-.691-.188-1.158-.188h-.269v-1.777h8.936v1.777h-.215c-.18 0-.368.009-.565.027-.18 0-.359.018-.539.053a1.988 1.988 0 0 0-.403.081c-.09.018-.135.054-.135.108v15.019c0 .053.045.098.135.134.107.018.242.045.403.08l.539.055H306.173v1.776h-8.936Zm11.601 0v-1.776H309.618c.198-.018.377-.036.539-.054.161-.036.287-.063.376-.08.108-.037.162-.082.162-.135v-15.02c0-.053-.054-.089-.162-.107a1.492 1.492 0 0 0-.376-.08 2.498 2.498 0 0 0-.539-.054 5.693 5.693 0 0 0-.565-.027h-.215v-1.777h8.936v1.777h-.27c-.466 0-.852.063-1.157.188-.305.126-.458.386-.458.78v13.62c0 .394.153.655.458.78.305.126.691.189 1.157.189h.27v1.776h-8.936ZM325.185 56.408v9.367c0 .466.045.852.135 1.157.108.305.269.53.485.673.215.126.502.189.861.189.413 0 .789-.108 1.13-.323.359-.216.709-.548 1.05-.996.341-.467.673-1.077.996-1.83l.054 2.53c-.377.735-.817 1.345-1.319 1.83a5.226 5.226 0 0 1-1.696 1.103 5.91 5.91 0 0 1-2.072.35c-.897 0-1.687-.17-2.369-.511a3.805 3.805 0 0 1-1.588-1.561c-.377-.7-.565-1.561-.565-2.584V59.1c0-.287-.099-.485-.296-.592-.198-.126-.512-.233-.942-.323l-.242-.054v-1.723h6.378Zm9.017 0v11.224c0 .18.054.323.162.43.107.108.26.19.457.243.197.054.44.099.727.135l.134.026v1.723h-6.056v-3.095l-.322.108V59.1c0-.287-.135-.493-.404-.619s-.619-.215-1.05-.27l-.404-.08v-1.723h6.756ZM346.885 70.458c-.789 0-1.489-.099-2.099-.296a4.535 4.535 0 0 1-1.588-.915c-.467-.413-.897-.951-1.292-1.615l.081-3.337c.376.771.735 1.444 1.076 2.018.341.556.709.987 1.104 1.292.395.287.861.43 1.399.43.449 0 .835-.107 1.158-.322.341-.233.619-.565.834-.996.215-.43.377-.942.485-1.534.107-.61.161-1.292.161-2.046 0-.735-.054-1.381-.161-1.938-.108-.574-.261-1.058-.458-1.453s-.449-.69-.754-.888a1.937 1.937 0 0 0-1.076-.296c-.503 0-.96.143-1.373.43-.395.287-.789.727-1.184 1.32-.377.591-.79 1.345-1.238 2.26l-.054-2.692c.52-.879 1.032-1.587 1.534-2.126.502-.556 1.041-.96 1.615-1.21.592-.27 1.283-.405 2.072-.405 1.221 0 2.288.296 3.203.889.933.574 1.651 1.39 2.154 2.449.502 1.04.753 2.26.753 3.66 0 1.436-.269 2.71-.807 3.822-.539 1.095-1.283 1.956-2.234 2.584-.951.61-2.055.915-3.311.915Zm-8.855-17.387c0-.197-.045-.35-.134-.457a.817.817 0 0 0-.404-.243 5.644 5.644 0 0 0-.7-.215l-.242-.054V50.38h6.379v16.794l-.566.189-1.399 2.853h-2.934V53.071ZM148 1h2v90h-2z" fill="#fff"/></svg>