<svg width="32" height="32" fill="none" xmlns="http://www.w3.org/2000/svg"><g clip-path="url(#a)"><path d="M5.333 8H2.667v18.667c0 1.466 1.2 2.666 2.666 2.666H24v-2.666H5.333V8Zm21.334-5.333h-16A2.675 2.675 0 0 0 8 5.333v16C8 22.8 9.2 24 10.667 24h16c1.466 0 2.666-1.2 2.666-2.667v-16c0-1.466-1.2-2.666-2.666-2.666Zm-1.334 12H12V12h13.333v2.667ZM20 20h-8v-2.667h8V20Zm5.333-10.667H12V6.667h13.333v2.666Z" fill="#fff"/></g><defs><clipPath id="a"><path fill="#fff" d="M0 0h32v32H0z"/></clipPath></defs></svg>