<svg xmlns="http://www.w3.org/2000/svg" width="30" height="32" fill="none"><path fill="#fff" fill-rule="evenodd" d="M28.784 16.357c0-7.434-5.85-13.526-13.277-14.08l-.626-.747H15c8.142 0 14.742 6.48 14.742 14.474 0 7.836-6.343 14.218-14.263 14.466v-.031c7.44-.541 13.304-6.64 13.304-14.082Z" clip-rule="evenodd"/><path fill="#fff" d="M16.439 3.53h1.558l-1.199-1.059c3.836.283 7.111 3.02 8.27 4.354l.839-.47c-2.11-3.201-6.951-4.786-9.109-5.178L17.997 0h-1.558L14.76 1.647l1.678 1.883Z"/><path fill="#fff" fill-rule="evenodd" d="M1.216 15.643c0 7.434 5.85 13.526 13.277 14.08l.626.747H15C6.857 30.47.257 23.99.257 15.996.257 8.159 6.6 1.777 14.52 1.53v.031c-7.44.541-13.304 6.64-13.304 14.082Z" clip-rule="evenodd"/><path fill="#fff" d="M13.561 28.47h-1.558l1.199 1.059c-3.835-.283-7.111-3.02-8.27-4.354l-.839.47c2.11 3.201 6.951 4.786 9.109 5.178L12.003 32h1.558l1.678-1.647-1.678-1.883ZM16.425 20.287c.438.304.724.495.858.572.2.113.47.244.81.394l-.973 1.962c-.489-.237-.973-.52-1.452-.85-.479-.324-.814-.569-1.004-.734-.773.335-1.74.502-2.905.502-1.72 0-3.077-.448-4.07-1.344-1.175-1.06-1.762-2.552-1.762-4.472 0-1.865.513-3.312 1.537-4.342 1.03-1.035 2.467-1.552 4.31-1.552 1.88 0 3.33.504 4.35 1.514 1.025 1.009 1.537 2.454 1.537 4.333 0 1.674-.412 3.013-1.236 4.017Zm-2.68-1.792c.278-.5.417-1.246.417-2.24 0-1.143-.214-1.96-.641-2.449-.423-.49-1.007-.734-1.754-.734-.695 0-1.259.25-1.692.75-.432.499-.648 1.28-.648 2.34 0 1.236.21 2.104.633 2.603.422.5 1.002.75 1.738.75.237 0 .46-.024.672-.07-.293-.283-.757-.55-1.39-.803l.548-1.26c.31.057.549.127.719.21.175.082.512.298 1.011.648.119.082.248.167.387.255Zm5.94-7.88h3.507V21.94h-3.507V10.616Z"/></svg>