<svg xmlns="http://www.w3.org/2000/svg" width="32" height="32" fill="none"><path fill="#fff" fill-rule="evenodd" d="M23.4 5.6V.165l5.6 5.09V5.6h-5.6ZM29 7h-6a1 1 0 0 1-1-1V0H5a2 2 0 0 0-2 2v28a2 2 0 0 0 2 2h22a2 2 0 0 0 2-2V7Zm-13.207 7.699c-2.676-.7-3.537-1.422-3.537-2.548 0-1.292 1.191-2.193 3.183-2.193 2.098 0 2.876 1.008 2.947 2.489h2.605c-.082-2.038-1.32-3.911-3.784-4.516V5.336h-3.536v2.56c-2.287.498-4.126 1.991-4.126 4.279 0 2.737 2.252 4.1 5.54 4.894 2.947.711 3.537 1.754 3.537 2.857 0 .817-.578 2.121-3.183 2.121-2.428 0-3.383-1.09-3.513-2.489H9.333c.141 2.596 2.075 4.053 4.338 4.54v2.571h3.536v-2.548c2.299-.438 4.126-1.778 4.126-4.207 0-3.366-2.864-4.516-5.54-5.215Z" clip-rule="evenodd"/></svg>