<svg width="32" height="32" fill="none" xmlns="http://www.w3.org/2000/svg"><g clip-path="url(#a)"><path d="M8 13.333A2.675 2.675 0 0 0 5.333 16c0 1.467 1.2 2.667 2.667 2.667 1.467 0 2.667-1.2 2.667-2.667 0-1.467-1.2-2.667-2.667-2.667Zm16 0A2.674 2.674 0 0 0 21.333 16c0 1.467 1.2 2.667 2.667 2.667 1.467 0 2.667-1.2 2.667-2.667 0-1.467-1.2-2.667-2.667-2.667Zm-8 0A2.674 2.674 0 0 0 13.333 16c0 1.467 1.2 2.667 2.667 2.667 1.467 0 2.667-1.2 2.667-2.667 0-1.467-1.2-2.667-2.667-2.667Z" fill="#fff"/></g><defs><clipPath id="a"><path fill="#fff" d="M0 0h32v32H0z"/></clipPath></defs></svg>