<svg version="1.1" id="Layer_1" xmlns="http://www.w3.org/2000/svg" x="0" y="0" viewBox="0 0 160 32" style="enable-background:new 0 0 160 32" xml:space="preserve"><style>.st0{fill:#fff}</style><path class="st0" d="M19.2 13.3 16 2.7l-3.2 10.7H2.7l8.2 5.9-3.1 10L16 23l8.2 6.3-3.1-10.1 8.2-5.9H19.2zM51.4 13.3 48.2 2.7 45 13.4H34.8l8.2 5.9-3.1 10.1 8.2-6.3 8.2 6.3-3.1-10.1 8.2-5.9c.1-.1-10-.1-10-.1zM83.6 13.3 80.4 2.7l-3.2 10.7H67l8.2 5.9-3.1 10.1 8.2-6.3 8.2 6.3-3.1-10.1 8.2-5.9c.1-.1-10-.1-10-.1zM115.8 13.3l-3.2-10.7-3.2 10.7H99.2l8.2 5.9-3.1 10.1 8.2-6.3 8.2 6.3-3.1-10.1 8.2-5.9h-10z"/><path d="m147.9 13.3-3.2-10.7-3.2 10.7h-10.1l8.2 5.9-3.1 10.1 8.2-6.3 8.2 6.3-3.1-10.1 8.2-5.9h-10.1z" style="fill:#00546e"/></svg>