<svg width="32" height="32" fill="none" xmlns="http://www.w3.org/2000/svg"><path fill-rule="evenodd" clip-rule="evenodd" d="M10.765 9.335c-.18.345-.51.585-.894.65l-8.836 1.479a1.238 1.238 0 0 0-.679 2.089l6.28 6.39c.272.277.398.666.34 1.05l-1.323 8.861c-.148.99.88 1.738 1.777 1.291l8.018-3.997a1.238 1.238 0 0 1 1.104 0l8.018 3.997c.897.447 1.925-.3 1.777-1.291l-1.324-8.86a1.238 1.238 0 0 1 .342-1.051l6.279-6.39a1.238 1.238 0 0 0-.679-2.09l-8.836-1.478a1.238 1.238 0 0 1-.894-.65L17.098 1.39a1.238 1.238 0 0 0-2.196 0l-4.137 7.946ZM16 7.86l-1.721 3.306a5.2 5.2 0 0 1-3.754 2.727l-3.676.616 2.612 2.658a5.2 5.2 0 0 1 1.434 4.413l-.55 3.686 3.335-1.663a5.2 5.2 0 0 1 4.64 0l3.335 1.663-.55-3.686a5.2 5.2 0 0 1 1.434-4.413l2.612-2.658-3.676-.616a5.2 5.2 0 0 1-3.754-2.727L16 7.859Z" fill="#fff"/></svg>