<svg xmlns="http://www.w3.org/2000/svg" width="140" height="70" fill="none"><path fill="#fff" d="M58.364 42.818a.453.453 0 0 1-.185.184l.185-.184ZM60.055 29.601a.353.353 0 0 0 .353-.358.353.353 0 1 0-.705 0c0 .196.156.358.352.358ZM76.43 14.67H63.695l.011 10.289c0 .99.42 1.859 1.003 2.128l4.9 2.923a.592.592 0 0 0 .846.045l4.973-2.974c.582-.269 1.002-1.137 1.002-2.128l.011-10.288-.01.006Zm-8.501 2.98h-1.103v-2.632h1.103v2.632Zm-.8.919.156-.163-.1-.179.206.022.124-.218.123.213.207-.017-.095.18.157.162-.202.039v.224l-.19-.14-.19.14v-.224l-.202-.04h.005Zm-3.075 3.276v-2.498h1.338v2.498h-1.338Zm.218-3.618.207.022.124-.218.123.213.207-.017-.095.18.157.162-.202.039v.224l-.19-.14-.19.14v-.224l-.203-.04.157-.162-.095-.179Zm1.512 2.543.207.022.124-.219.123.213.207-.017-.095.18.157.162-.202.04v.223l-.19-.14-.19.14v-.224l-.202-.039.156-.162-.095-.18Zm.89-2.011c-.01-.067-.095-.084-.134-.084-.117 0-.168.196-.269.202-.072 0-.128.01-.128-.079 0-.067.15-.117.212-.173-.823 0-.84.38-.969.38-.218 0 .18-.397.297-.515-.168-.028-.263-.235-.448-.336.084-.123.135-.073.241.017 0-.09.067-.19.258-.19.37 0 .263.358.325.358.061 0 0-.358.246-.358.364 0 .823.94.409.94-.18 0-.034-.134-.04-.156v-.006Zm-.946-2.755.157-.163-.095-.179.207.022.123-.218.123.213.208-.017-.096.18.157.162-.201.039v.224l-.19-.14-.191.14v-.224l-.202-.04Zm-.336-.992v2.633h-1.338v-2.633h1.338Zm2.537 13.592-3.047-1.82c-.51-.347-.761-.957-.828-1.697v-2.895h3.875v6.412Zm-1.103-6.76v-2.497h1.103v2.498h-1.103Zm5.029 6.967-1.406.84h-.022a.59.59 0 0 1-.745-.006l-1.4-.834v-6.619h3.578v6.62h-.005Zm0-6.966h-3.579v-6.827h3.579v6.827Zm4.222 3.242c-.067.74-.319 1.35-.828 1.697l-3.047 1.82v-6.412h3.875v2.895Zm0-3.242h-3.875v-6.827h3.875v6.827Z"/><path fill="#fff" d="M67.722 24.544c-.017-.04-.487.157-.353.14.011-.14.275-.42.386-.52-.022-.163-.23-.018-.447.1.722-1.036.257-.61-.146-.538.65-.7.476-.683 0-.47.375-.297.453-.65.397-.756-.352.47-.677.398-.677.829 0 .285-.101.756-.252.913-.19.207-.045-.768-.543-.768-.157 0-.532-.01-.65.18.1 0 .252.257.252.358 0 .1.095.386-.078.386-.174 0-.37-.358-.37-.526 0-.168-.011-.129-.011-.375 0-.409-.672-.991-.941-.991 0 .285.375.352.375.722-.157 0-.386-.297-.386-.112s.24.218.24.375-.274-.056-.274.112c0 .151.151.123.185.275-.112-.034-.207-.017-.23.039-.016.05.034.112.118.162-.04.034-.073.123-.073.364 0 .812.51 1.188.885 1.188.263 0 .224-.185.258-.275.01.14.14-.067.14.174 0 .24-.258.14-.258.358 0 .291.409-.011.409.314 0 .386-.05.38-.05.526 0 .1.425-.14.403-.185.1.04.1.342.285.33.123 0 .151-.307.247-.335-.056.017.386.29.386.15 0-.38-.157-.217-.157-.475 0-.24.527-.196.443-.314-.067-.1-.118-.039-.174-.218.011.034-.414-.6.09-.274.526.341.582-.801.554-.857l.017-.006ZM81.308 27.238c.23 0 .42-.168.42-.37 0-.201-.185-.37-.42-.37s-.42.163-.42.37.185.37.42.37ZM79.617 28.24c.23 0 .42-.162.42-.37 0-.207-.185-.369-.42-.369s-.42.168-.42.37c0 .201.185.37.42.37ZM59.484 30.564c.23 0 .42-.168.42-.37 0-.201-.19-.369-.42-.369-.23 0-.42.168-.42.37 0 .201.19.37.42.37ZM60.789 30.676c.23 0 .42-.168.42-.37 0-.201-.185-.369-.42-.369s-.42.162-.42.37c0 .207.185.37.42.37ZM97.033 13.108c.622.74.756 1.927.314 2.772-.246-.022-.202-.336-.246-.515-.443-.829-.801-1.881-.398-2.817.291.045.18.404.336.56h-.006ZM43.854 14.117c-.135.537-.135 1.276 0 1.77-.112.111-.09-.113-.202-.09-.868-.628-.465-1.86-.688-2.728a.174.174 0 0 1 .224-.045c.397.27.576.65.666 1.098v-.005ZM98.943 14.184c.134.246-.112.493-.291.605-.202.044-.42-.068-.555-.247-.067-.246.068-.47.27-.582.223-.023.442.022.576.224ZM42.499 15.17c-.045.2-.112.402-.286.492-.134 0-.336 0-.42-.112-.134-.112-.157-.314-.09-.47.09-.157.27-.18.42-.202.157.067.314.112.376.291ZM99.805 15.55a.495.495 0 0 1 0 .359c-.156.201-.375.29-.599.201-.157-.09-.201-.246-.246-.38.045-.18.224-.337.375-.404.202 0 .33.112.465.224h.005ZM98.54 15.572c.179.09.045.314.022.449-.112.112-.269.29-.465.224-.112-.112-.24-.112-.285-.27 0-.223.09-.447.313-.514.18-.045.291.044.42.111h-.005ZM96.921 15.909c0 .246.023.56-.269.604-.268.09-.442-.134-.51-.313a.533.533 0 0 1 .331-.538c.18 0 .336.112.443.246h.005ZM44.918 16.02c.067.225-.157.359-.286.471-.156.045-.358-.09-.448-.246-.156-.157.045-.292.09-.426.224-.202.554-.045.644.202ZM43.585 16.088c0 .179-.09.358-.24.425-.18.068-.353-.067-.443-.201-.112-.224.022-.426.202-.515.246-.09.397.134.487.29h-.006ZM91.545 16.177c.224.47.398 1.03.442 1.613-.09.426.068.986-.246 1.277-.314-.112-.33-.493-.532-.694-.398-.784-.045-1.703.09-2.465.179-.067.179.157.246.27ZM42.543 16.446c.068.269-.134.403-.29.56-.27.067-.443-.134-.555-.313a.561.561 0 0 1 .29-.538.57.57 0 0 1 .555.291ZM95.05 17.09c.292.65.314 1.434.113 2.15l-.135.113c-.313-.605-.756-1.165-.913-1.815 0-.47.09-.896.27-1.277.156-.112.246.023.307.157.023.247.135.538.353.672h.006ZM97.851 16.693c-.022.224-.112.47-.336.537-.224.045-.442-.022-.51-.269-.067-.224.068-.425.247-.537.246-.135.487.09.599.269ZM43.608 17.381a.48.48 0 0 1-.336.426c-.18.134-.308-.09-.465-.157-.068-.179-.112-.336 0-.515.067-.134.224-.134.358-.18.202.113.398.202.443.426ZM44.582 17.27c.09.223-.157.335-.246.447-.27.09-.398-.112-.51-.268-.045-.224.09-.359.246-.493.27-.067.398.112.51.313ZM98.473 17.202c-.023.291-.465.583-.51.874-.246.605-.778 1.053-1.378 1.254-.134.112-.313.27-.51.292-.044-.448.36-.852.6-1.255a3.282 3.282 0 0 1 1.798-1.165ZM43.165 18.143c.33.38.51.717.913 1.053.022.09-.045.224-.157.224-1.086-.067-1.82-1.187-2.352-1.971.067-.247.353-.045.51-.068.375.292.8.381 1.086.762ZM98.786 18.457c-.045.963-.51 1.948-1.377 2.413-.247.09-.51.336-.756.18.464-.964 1.176-1.748 1.954-2.593h.18ZM94.519 19.106c.067.336-.112.538-.376.65-.246.022-.397-.18-.51-.358a.468.468 0 0 1 .315-.493c.067-.068.179-.068.268-.068.135.045.202.157.314.27h-.011ZM41.939 19.308c.42.291.8.694 1.198 1.053-.285.201-.644.022-.98.022-.756-.269-1.266-.918-2.044-1.142.022-.247.308-.157.465-.224.487-.045.89.179 1.355.29h.006Z"/><path fill="#fff" d="M65.734 12.688c-1.243-.492-2.066.807-3.332.65-.157.09-.112.247-.202.359-.067.067-.179.022-.246-.023-.067-.537-.247-1.03-.314-1.546-.134-.224-.067-.537-.179-.761-.711-1.95 1.73-.47 2.223-1.613.426-.986-.823-1.098-1.198-1.792V7.67c-.353-.359-.734-.47-.958-.941.157-.56.224-1.165.067-1.725-.022-.134-.112-.314-.308-.246-.42.582-.733 1.052-1.13 1.612-.42-.313-.824-.716-1.311-.985-.336-.045-.644-.381-1.02-.247-.067.135 0 .247.068.336.022.874.465 1.568 1.086 2.196l.067.336c-.397.918-.29 1.965-.397 2.951-1.003 2.548-2.621 5.012-4.822 6.776-1.266 1.434-2.778 2.817-2.98 4.788-.067.314.045.695-.201.919-.734-.269-1.467-.627-2.066-1.098-1.02-.717-2.487-.627-3.153-1.926-.27-.516.067-1.03.308-1.412.756-.716.644-1.993.246-2.861-.09-.023-.112.09-.18.112-.066 1.321-1.108 2.24-.71 3.69.09.426.313.695.42 1.098-.157-.045-.376-.045-.51-.112-.487-.067-.98-.269-1.49-.202-1.019.47-2.419-.112-3.242.83-.135.022-.314.044-.269.246.487 0 .952.134 1.445.112.778.134 1.288-.516 1.82-.807h.134c.224-.224.6-.09.89-.134 1.4.157 2.487.829 3.64 1.523v.09c-.441.201-.951.336-1.4.582-.509.38-1.086.874-1.242 1.5-.353.56.112 1.054.336 1.524.022.224.044.493.246.582.711-.761.045-1.702.157-2.57.18-.672.8-.986 1.445-1.165 1.265-.537 2.178.493 3.197 1.075-.022 1.03.112 2.017-.112 3.019-.313.112-.71.18-1.047.157-1.753.134-3.13 1.097-4.71 1.635-.71.246-1.556.224-2.268.493.555.157 1.132-.045 1.708-.067 2.179-.314 3.842-1.994 6.2-1.703l.045.067a5.348 5.348 0 0 1-1.042 1.456c-.067-.246-.09-.448-.314-.582-.179-.09-.375 0-.51.18-.066.111-.066.246 0 .335.113.202.292.247.488.314-.045.201-.291.291-.42.47-.622 1.053-1.887.628-2.62 1.367-.113.157-.51.246-.337.492.846.09 1.669-.134 2.29-.582.824-.918 1.692-1.786 2.51-2.66.134.717-.068 1.456-.488 2.038-.201-.111-.358-.268-.599-.335-.224.044-.375.268-.398.448.09.156.18.335.33.448-.755.537-1.707.582-2.575.828a43.54 43.54 0 0 1-4.844.359c-.779-.045-1.67.224-2.397 0-.846.157-1.753-.112-2.442.358-.09.112.022.224.022.336 1.025.672 2.425.135 3.579.336h8.753c.644-.022 1.288-.045 1.798-.336 1.13-.65 1.753-1.814 2.335-2.951.224-.403.375-.874.465-1.344.224-.762.913-1.3 1.663-1.367.112 1.165-.112 2.324-.375 3.4-.135.716-.6 1.41-.314 2.167.067.358.443.358.734.403 2.688-.045 5.376-.157 8.22.045.51.09.959.246 1.513.224.045-.067.201-.09.134-.224-.067-.246-.246-.56-.532-.627-.044-.135-.246-.09-.313-.18-1.423-.806-3.13-.38-4.8-.358-.868.09-1.73.246-2.464-.246-.33-.404-.09-1.68-.09-1.68 0-.504 1.221-4.027 1.378-4.318.045-.336.18-.65.135-1.03.179-.448.134-1.031.134-1.524.09-.717.443-1.389.689-2.083.134-.336.246-.694.375-1.03.135-.426.18-.83.443-1.165.722.459 1.433.448 1.78 1.265l.308 1.865c0 .112.09.336.247.202.577-.381.398-1.232.398-1.815.134-.694-.353-1.03-.555-1.635-.157-.112-.409-.644-.409-.644-.09-.493-1.165-.829-.924-1.434.135-.515.269-.985.756-1.277.073.051.101.101.112.157l.269-.184.028-1.87c.717 0 1.792.089 2.526.089.201.067.358.224.576.246l.18-.246 1.797-.353c-.761.084-1.226-.795-1.954-.795v.016ZM67.688 13.478a.99.99 0 0 0 .169-.034l-.169.034Z"/><path fill="#fff" d="M48.34 19.711c.022.269-.135.426-.336.515-.18-.067-.308-.09-.42-.268-.09-.247.134-.426.308-.516.179.045.397.067.442.27h.006ZM46.895 19.711a.488.488 0 0 1 .09.515c-.157.135-.398.247-.533.068-.134-.135-.268-.292-.157-.47.157-.158.42-.292.6-.113ZM77.814 19.957l.016.034-.016-.034ZM94.743 20.338c.09.247-.112.426-.286.515-.224-.067-.51-.112-.51-.403.023-.179.18-.29.331-.336.202-.067.375.09.465.224ZM95.919 20.294c.067.111.224.29.045.403-.09.067-.157.09-.224.179-.247.045-.465-.045-.532-.269-.045-.246.156-.358.336-.47.157-.045.269.067.375.157ZM41.317 20.562c-.09.27-.314.381-.6.291a.92.92 0 0 1-.178-.29c.022-.157.067-.314.246-.381.269.022.465.134.532.38ZM48.804 20.943c-.022.18-.224.336-.375.426-.224.022-.38-.157-.487-.314 0-.18.09-.403.269-.448.246-.09.51.09.6.336h-.007ZM47.494 20.786c.067.067.135.247.067.359-.134.112-.336.313-.554.179-.134-.112-.291-.202-.246-.426.09-.09.201-.224.335-.268.18-.045.27.067.398.156ZM99.318 21.055c0 .18-.179.359-.29.426a.433.433 0 0 1-.488-.112c-.135-.045-.09-.224-.09-.336a.782.782 0 0 1 .42-.292c.202.045.336.18.443.314h.005ZM100.741 21.257c-.068.201-.224.38-.42.403-.135-.022-.376-.067-.33-.269 0-.157.089-.313.201-.358a.39.39 0 0 1 .554.224h-.005ZM43.854 21.57c.045.27-.045.448-.269.538-.157.09-.313-.022-.42-.112-.112-.112-.201-.291-.112-.448.045-.202.247-.157.375-.246.202.022.314.111.42.268h.006ZM44.94 21.766c.068.18-.134.247-.179.381-.112.067-.269.135-.398.045-.156-.134-.335-.336-.179-.538.18-.336.644-.157.756.112ZM98.008 21.66c.022.224-.18.38-.308.515a.378.378 0 0 1-.443-.269c-.022-.179.09-.313.247-.425.201-.023.397 0 .51.179h-.006ZM99.828 22.013c-.045.201-.023.425-.247.56-.179.045-.397.022-.532-.09-.134-.112-.156-.313-.09-.47.113-.18.314-.314.533-.27.157.09.201.203.336.27ZM43.008 22.483c.09.18-.112.224-.179.314-.157.09-.313.022-.442-.045-.157-.09-.09-.314-.068-.426.202-.38.6-.112.69.157ZM98.428 22.909c.09.022.045.157.022.201-.532.27-1.333.336-1.797-.09-.27-.223-.6-.313-.89-.492.111-.291.509-.269.8-.336.644.09 1.154.694 1.865.717ZM44.072 22.707c.045.18-.09.247-.134.381-.09.134-.269.09-.375.045-.202-.135-.291-.381-.157-.56.246-.247.532-.112.666.134ZM46.027 22.842c.09.201-.045.38-.224.492-.157.09-.291-.044-.42-.067-.112-.157-.314-.336-.112-.515.201-.336.599-.157.756.09ZM71.71 23.788c-.04.448-.78-.062-.678.532.106.426.19.935.442 1.255.213.296.106.767.084 1.125-.19.32-.504.555-.846.723-.632-.062-1.562.319-1.859-.47-.129-.343-.358-.678-.358-1.065.061-.045.151-.045.213-.106 0-.151-.168-.235-.146-.381.717-.129-.297-.767.32-.807.503.532 1.326.364 1.769.936.106.084.19.212.32.274-.085-.532-.337-1.064-.42-1.635a.755.755 0 0 1 .251-.745c.38-.297.694.129.907.358v.006ZM47.981 23.648c.067.224-.112.358-.246.47-.202.09-.314-.134-.398-.246-.067-.224.09-.336.224-.448.157 0 .33.067.42.224ZM61.69 23.872c.27.874.18 1.77-.268 2.503-.023.18.044.47-.202.448-.6-.829-.157-1.993.09-2.861.044-.224.307-.314.375-.09h.005ZM80.703 24.298c.308.627.33 1.456.045 2.083l-.18.18c-.246-.516-.442-1.031-.509-1.591.112-.404.247-.762.269-1.188.314-.067.291.336.375.516ZM49.717 24.544c-.134.269-.51.336-.756.515-.532.403-1.31.493-1.977.381.577-.806 1.468-1.277 2.532-1.053.044.09.156.045.201.157ZM40.589 25.35c.823.583 1.042 1.39 1.535 2.19.067.09.29.112.201.291-.18.135-.353-.134-.6-.09-.845-.38-1.377-1.32-1.354-2.3 0-.09.134-.09.224-.09h-.006ZM79.835 26.045c.023.224-.022.448-.201.515a.404.404 0 0 1-.51-.269c-.067-.157.067-.246.112-.358.18-.18.487-.09.6.112Z"/><path fill="#fff" d="M89.21 27.227c0-.426.112-.83.157-1.233a.81.81 0 0 0 .09-.47c.531-.717 1.623-.493 2.463-.425.336.179.756.156 1.11.246.156-.112.374-.134.554-.112.71-.38.246-1.21.29-1.86l-.268-.671a2.67 2.67 0 0 1-.18-.448c-.134-.157-.223-.449-.352-.605-.375-.986-1.109-1.546-1.73-2.324-1.132-1.479-2.912-2.308-4.688-2.884-1.753-.605-3.534.179-5.107.739-.487-.135-.734-.515-.868-.941-.09-.851.09-1.68.42-2.369.067-.56.442-.986.6-1.5.397-1.255.822-2.482.912-3.848.045-.829-.577-1.411-1.199-1.77-.42-.112-.912-.09-1.22.247-.292.604-.913 1.008-1.445 1.299-.045.38.42.134.577.269.487.09 1.047-.068 1.444.246.045.896-.464 1.635-.935 2.302-.756 1.12-1.557 2.262-2.021 3.489l-.09-.09.106 5.471c.706 1.177 1.59 2.52 2.912 2.969.712.582 1.602 1.276 2.554.761.51-.157.554.56.8.851.27.83-.33 1.412-.374 2.168l-.577 1.232c-.666 1.299-1.266 2.682-2.285 3.78-.336 0-.532.358-.868.38-.18.247-.532.068-.756.157-.689.292-1.669.112-2.134.762.045.067.112.09.18.112 1.355.023 2.867.112 4.306.045.18-.067.336-.224.353-.426-.202-.38.067-.717.246-1.008.112-.537.465-.873.622-1.389.465-.918.997-1.814 1.512-2.727l.689-1.12c.157-.38.42-.851.689-1.254.179-.18.268-.381.397-.605.023-.224-.09-.314-.224-.47.157-.157.398-.113.6-.157.554.336 1.13.873 1.243 1.478l.201.582.09.27-.045.738.09.695c.112 1.075-.09 2.167-.202 3.242-.38 1.3-1.865 1.165-2.934 1.457-.27.179-.779.09-.779.537 1.288.269 2.8.112 4.178.09.224-.09.269-.291.375-.493.045-.291.336-.538.247-.851-.247-.314-.023-.807-.09-1.232a.687.687 0 0 0 0-.426c.18-.65.134-1.434.269-2.06l.09-.852.005.006ZM100.141 26.353c-.71 1.008-1.467 2.145-2.71 2.503-.09 0-.18.045-.224-.067.756-.806 1.154-2.06 2.335-2.352.18-.09.42-.18.599-.09v.006ZM39.497 27.45c-.112.09-.023.292-.224.314-.18.09-.375-.022-.465-.201-.09-.224.112-.448.286-.493.179.09.352.157.397.38h.006ZM45.898 27.764c.067.202-.157.202-.269.247-.935.336-1.887.022-2.554-.65 0-.09 0-.18.09-.202.913.224 1.977.045 2.733.605ZM40.718 27.473c.045.09.067.246.045.336-.135.202-.336.246-.555.202-.134-.068-.201-.157-.291-.292.022-.224.202-.358.375-.425.18.022.314.067.42.179h.006ZM61.534 27.585c.044.201-.135.336-.27.425a.436.436 0 0 1-.464-.179c-.067-.157 0-.38.157-.425.201-.045.51-.023.577.179ZM100.982 27.675c.067.224-.135.336-.286.47-.134.067-.291 0-.42-.067-.022-.112-.157-.202-.112-.359.09-.201.286-.29.51-.268.112.09.201.112.308.224ZM102.449 27.585c.134.202.022.358-.09.515-.089.157-.269.202-.397.135-.135-.135-.314-.202-.331-.404 0-.179.202-.313.331-.38.224-.09.313.134.487.134ZM38.568 28.235c.022.156-.112.246-.157.38-.112.045-.224.135-.359.09a.63.63 0 0 1-.33-.358.587.587 0 0 1 .397-.448c.18.044.381.134.443.336h.006Z"/><path fill="#fff" d="M85.346 28.235c.044.09.022.201.022.29-.134.18-.313.337-.532.225-.134-.135-.291-.269-.224-.47.18-.247.555-.337.734-.045ZM42.14 28.57c-.044.157-.112.314-.313.337-.202.022-.269-.157-.375-.247 0-.201-.023-.403.179-.515.269-.09.51.134.51.426ZM40.007 28.615c.067.224-.09.381-.224.493-.27.09-.488-.112-.6-.313.023-.202.18-.448.398-.516.201 0 .313.224.42.336h.006ZM86.813 28.57c.045.225-.023.449-.246.538-.27.09-.488-.134-.6-.313.112-.18.135-.426.398-.47a.5.5 0 0 1 .442.246h.006ZM41.054 28.66c.067.157-.067.224-.112.336-.112 0-.18.135-.308.09-.09-.112-.27-.157-.291-.314-.023-.224.134-.336.29-.425.225-.023.36.134.42.313ZM99.76 28.84c-.067.179-.201.268-.375.358-.179.045-.29-.112-.42-.18-.112-.089-.067-.29-.022-.403.224-.38.823-.201.823.224h-.005ZM101.452 28.929c-.067.246-.308.358-.532.38-.202-.089-.42-.246-.269-.514.09-.09.134-.18.269-.202.269-.09.465.112.532.336ZM90.901 29.086c.112.291-.157.38-.33.515a.968.968 0 0 1-.42-.18.515.515 0 0 1 .313-.582c.202 0 .308.09.443.247H90.9ZM84.791 29.355c.112.044.068.201.045.268-.134.09-.308.314-.51.18-.156-.09-.268-.224-.223-.426.112-.246.576-.269.688-.022ZM86.035 29.511c.022.18-.023.27-.18.359-.156.157-.336-.023-.487-.067-.044-.09-.09-.224-.022-.336a.498.498 0 0 1 .291-.18c.157.045.336.045.398.224ZM48.34 29.534c.134.134-.023.291-.045.425-.112.135-.353.247-.555.112-.224-.09-.201-.38-.156-.56.134-.044.134-.201.308-.201.201.022.313.112.442.224h.006ZM93.276 29.623c.044.224-.18.314-.33.359-.27.09-.398-.112-.51-.291 0-.135.134-.224.179-.336.313-.135.51.09.666.268h-.005ZM92.077 29.623c.09.224-.157.336-.246.448a.442.442 0 0 1-.488-.09c-.112-.066-.112-.2-.112-.335.135-.112.202-.247.359-.291.201 0 .397.112.487.268ZM102.096 29.892c.045.314-.353.157-.51.247-.935.56-2.133.134-3.024-.202.067-.291.398-.18.577-.291.958-.605 1.932.134 2.884.179l.067.067h.006ZM41.295 29.623l-.09.157c-.823.493-1.887.83-2.867.515l-.09-.134c.823-.605 1.91-.762 2.98-.605l.067.067ZM95.544 29.78a.51.51 0 0 1-.224.426c-.224.067-.51 0-.577-.247-.067-.179.112-.358.291-.425.157 0 .42.022.51.246ZM45.27 29.87c-.089.18-.044.358-.268.448-.224.09-.487-.112-.555-.291-.067-.247.112-.314.224-.426.27-.134.465.067.6.269ZM43.697 29.982c.067.157-.067.246-.112.358-.112.135-.313.112-.442.067-.157-.134-.308-.29-.247-.537.135-.112.202-.18.359-.247.201.045.397.135.442.359ZM97.095 30.491a.481.481 0 0 1-.353.404c-.18.022-.336-.112-.42-.224a.35.35 0 0 1 .09-.426c.044-.067.201-.067.29-.112.203.023.36.18.398.358h-.005ZM42.05 30.25c.068.18-.089.247-.111.381-.068.381-.308.628-.488.964-.42.515-1.024.515-1.624.672l-.09-.18c.645-.828 1.334-1.478 2.246-1.881l.068.045ZM95.986 30.738c.045.269-.179.314-.33.425a.5.5 0 0 1-.443-.268c-.067-.247.157-.336.292-.448.224-.045.42.112.487.29h-.006ZM44.604 30.738c-.022.045.023.09.068.112-.023.246-.202.313-.336.425a.594.594 0 0 1-.488-.223c-.09-.202 0-.448.224-.516.202-.022.465 0 .532.202ZM100.074 31.41c.224-.023.263-.291.51-.336.224-.045.42.09.532.246.089.27-.112.404-.291.515-.157.113-.488-.134-.465.157.157.112.291.27.313.448-.044.09-.201.068-.268.023-.644-.27-1.333-.717-1.602-1.39-.09-.2-.51-.358-.269-.537.644-.045 1.176.47 1.535.874h.005ZM102.208 30.715c.112.113.067.314-.023.426-.112.224-.442.135-.644.112-.112-.112-.224-.224-.179-.403a.714.714 0 0 1 .336-.291c.202-.045.353.044.51.156ZM94.144 31.925c.201.247.397.627.487.896-.045.067-.157.045-.202.045-.756-.426-1.73-.896-2.021-1.792-.068-.09-.247-.202-.224-.359.576-.112 1.13.314 1.534.628.157.224.33.336.42.582h.006ZM43.361 31.074c.09.201-.09.358-.201.448-.247.045-.376-.045-.51-.18-.157-.246.134-.447.314-.537.179-.022.29.157.397.269ZM96.921 31.59c.023.134-.156.223-.224.313-.179.022-.353.09-.51-.067-.044-.112-.156-.292-.022-.404.247-.313.6-.067.756.157ZM102.449 31.903c.067.269-.135.448-.314.56-.224.067-.397-.09-.532-.202-.112-.134-.022-.269 0-.426.157-.134.353-.246.577-.156.09.067.179.112.269.224ZM87.076 34.994c0 .269-.487.202-.688.403-.69.359-1.513.359-2.33.336V35.6c.8-.672 1.954-.919 3.018-.605ZM54.668 35.952c-.023.201-.135.313-.336.38a.418.418 0 0 1-.375-.224c-.09-.268.134-.38.29-.492.203.022.376.179.42.336ZM86.701 36.198c-.045.202-.112.426-.336.515-.202.045-.336-.067-.487-.157-.112-.09-.045-.246-.067-.358a.479.479 0 0 1 .89 0ZM91.12 36.288c-.555.358-1.177.784-1.91.784l-1.199-.023-.112-.09c.734-.895 2.067-.895 3.22-.806v.135ZM48.58 36.825c0 .202-.09.359-.29.426-.225.045-.376-.045-.465-.202-.09-.201 0-.403.179-.515.246-.157.487.112.577.291ZM49.695 37.05c.067.111-.045.178-.09.29-.134.068-.308.112-.42 0-.157-.09-.201-.246-.134-.38.067-.135.201-.112.269-.202.156.067.313.134.375.291ZM41.188 39.312c-.224.269-.577-.067-.823-.202-.778-.448-.756-1.322-1.534-1.837.09-.269.285.023.442-.022.134.09.314.18.465.246.756.426.935 1.143 1.445 1.815h.005Z"/><path fill="#fff" d="M105.938 30.626c-.353-.65-.958-.919-1.669-.919-.577.045-1.003.426-1.243.919-.135.493.044.94.42 1.232.156.067.352.045.442-.112.112-.291-.202-.291-.246-.515-.09-.314.022-.583.246-.784.224-.224.599-.112.868-.112.269.179.532.336.666.65.135.38.135.806 0 1.187-.246.56-.8 1.008-1.377 1.12-1.843.268-22.082.179-22.082.179-2.374.224-5.085-.448-7.129.806-.935.448-1.4 1.479-1.646 2.392-.6.537-1.244 1.164-1.73 1.77l-.068-.068c.112-.538.353-1.008.465-1.546.33-.448.33-1.053.577-1.545.845-1.367 1.64-2.75 2.957-3.713.554-.74 1.534-.605 2.374-.605.913.425 1.977.56 3.086.448a.203.203 0 0 0 .067-.157c-.314-.291-.823-.403-1.176-.694-.89-.426-1.73.134-2.666.067-.045-.045-.09-.067-.067-.135.846-.627 1.798-1.075 2.755-1.478.779-.426 1.602-.65 2.42-.963.336 0 .644-.291.957-.09l1.176-.313c.045.022.09.09.18.067.996-.336 2.268-.023 3.399-.045l.157.134 1.064.27c.397.044.577.514 1.002.537.224-.314-.246-.448-.353-.65.487-.112 1.042.023 1.49.224l-.219.247c-.134.246.068.425.27.515.156.045.268-.067.374-.112.292-.202-.022-.403.068-.583 1.646.292 3.22.695 4.732 1.344.42.135.823.448 1.288.426-.465-.426-1.109-.65-1.691-.896-.375-.224-.913-.246-1.199-.56.067-.112.224-.067.286-.157.756-.09 1.4-.65 1.932-1.254.045-.135.285-.09.269-.27-.202-.223-.532.068-.801.046-.935.179-1.333 1.277-2.268 1.478-1.131-.269-2.29-.537-3.422-.829-.554-.09-1.154-.134-1.663-.358l-1.243-.112h-2.269c-.022-.045-.09-.067-.067-.135.801-.201 1.49-.672 2.29-.873l5.954-2.727a14.511 14.511 0 0 0 1.686-1.837.421.421 0 0 0-.247-.426c-.157-.067-.33-.045-.442.09-.27.201 0 .448 0 .694-.27.359-.69.672-1.02.874-.09-.023-6.132 2.75-6.132 2.75-.89.38-1.775.806-2.71 1.008l-1.288.201c-.09.269-.308.426-.555.515-.353.068-.644.292-1.019.292-2.89 1.12-5.886 2.307-8.176 4.586.134-.269.201-.605.224-.94-.045-.337-.023-.718-.247-.986-.05-.124-.212-.482-.162-.61l-.325.212c-.202.493-.375 1.389-.18 1.904.068.403.398.874.09 1.232-1.064 1.3-1.668 2.862-2.374 4.34-.269-.045-.398-.29-.51-.537.756-.964 1.356-2.039 1.58-3.265.157-.112.044-.403.201-.538-.044-.358.202-.717.023-1.008.14-.487-.65-.94-.146-1.254l-.42.201c-.958 1.255.499 3.13-.594 4.34v.09c-.313.403-.464.806-.89 1.075-.532-.224-.734-.829-1.042-1.277-.487-.47-.487-1.433-.201-2.083.201-.65-.135-1.21-.202-1.792l-.224-.134c-.532.694-.733 1.792-.313 2.615.224.403.246.963.576 1.3.202.649.6 1.075.958 1.651.09.224-.134.27-.246.381-.247-.157-.202-.515-.42-.672-.734-1.568-1.686-2.817-2.845-4.094-.045-.201-.247-.38-.135-.604.42-.404.51-1.188.291-1.703-.044-.112-.179-.246-.156-.358l-.336-.27c.044.785-.465 1.48-.247 2.303v.044a42.357 42.357 0 0 0-7.392-4.469l-.207.566c.65.162 2.38 1.215 2.38 1.215.778.291 1.49.762 2.223 1.188 3.019 1.68 5.018 4.452 6.373 7.537.023.247.247.516.09.762-.465-.717-1.132-1.12-1.686-1.702-.157-1.053-.778-2.056-1.691-2.481-.336-.493-1.042-.538-1.602-.695l-8.087-.045c-6.574-.09-12.572.202-19.102.09-.913-.09-2.021-.403-2.29-1.367-.18-.335-.18-.918 0-1.232.246-.425.689-.56 1.131-.604.353.044.6.38.756.627 0 .291-.246.56-.358.806.022.09.112.27.268.202.292-.112.51-.426.577-.717.023-.157.09-.38-.067-.493-.134-.47-.622-.806-1.042-.918-.554-.045-1.13.112-1.512.515-.532.448-.51 1.255-.353 1.882.353.985 1.4 1.657 2.397 1.792l21.617.09c2.111.111 4.486-.247 6.62.179.778.246 1.601.828 1.797 1.702-.022.045-.09.023-.157.023-1.752-1.143-4.065-1.569-6.311-1.3-.89-.045-1.686.291-2.486.515-.42.09-.824-.112-1.087-.358-.8-.717-2.2-.672-3.22-.403 0 .067-.022.134.022.157 1.087-.09 1.73.85 2.71.963.225.045.398-.202.6-.023-1.02.493-2 1.076-3.086 1.39-.336-.068-.51-.382-.778-.56-.42-.471-1.199-.27-1.775-.314-.202.044-.376-.09-.51 0 .18.358.577.56.958.739.554.246 1.198-.023 1.708.314-.135.156-.314.201-.465.313-1.042.403-1.91 1.344-3.063 1.277-1.221.134-2.464-.224-3.288-1.075-.352-.874-1.265-1.344-2.245-1.3-.068.045-.157.045-.135.157.487.291.868.874 1.355 1.21.314.38.913 0 1.199.425.426.292.958.538 1.445.628.353.157.756.224 1.153.313l-.156.09c-2.022.672-4.352.74-6.62.65-.666-.023-1.31-.224-1.977-.202.112.134.336.246.532.314-.179.112-.375.156-.599.179-.269.067-.577.09-.846.224-.352-.023-.666.112-.951.224-.376.403-.824.829-1.266 1.03 0 .09-.023.224.09.224.42-.179.957-.044 1.377-.224.734-.067 1.154-.873 1.73-1.21.622-.492 1.513-.38 2.269-.268.442.112-.045.291.09.582.178.157.33.336.576.269.045-.045.09-.09.157-.112.134-.18.112-.38.022-.56.314-.202.734.022 1.064-.112.846-.022 1.692-.202 2.51-.224.134-.022.29-.157.42-.022-.068.179-.292.201-.202.448.044.201.268.29.442.336.224-.09.42-.247.336-.538-.045-.157-.224-.18-.336-.246.465-.224 1.002-.292 1.467-.516.336-.067.644-.179.935-.313.292-.023.532-.291.801-.18-.112.381-.268.74-.465 1.076-.352 1.187-.621 2.75 0 3.892.068.022.09-.023.135-.045-.465-1.187-.202-2.548.202-3.668.313-1.904 2.268-2.459 3.668-3.175l.067.09c-.375.985-.935 1.926-.846 3.107.045.202-.09.404 0 .538.375-.202.622-.65.823-1.03.157-1.008-.42-2.257.6-2.996 1.82-.717 3.533-1.658 5.64-1.68.066.067.223-.045.245.089-.442.493-1.086.963-1.288 1.568-.71.986-.688 2.66-.375 3.87.202.694-.397 1.075-.689 1.613-.14.19-.179.515-.302.733l.437.05c.375-.402.733-.895.756-1.478a.62.62 0 0 0 .42.448c.157-.246-.135-.425-.157-.672.358-.201.51.247.8.336.466.112.869.314 1.356.314l.157-.157c-.487-.762-1.467-.896-2.313-.94-.442-.74-.442-1.658-.398-2.549.09-.47.18-.963.443-1.389.112-.313.42-.605.621-.85.398-.382.913-.65 1.4-.763h.068c0 .045.022.068.022.068-.6.47-.666 1.12-1.02 1.702-.38.56-.554 1.322-.2 1.943.134.292.066.74.374.941.286-.403.314-.918.465-1.366-.067-.74-.51-1.434-.09-2.145.225-.56.69-.784 1.2-.986 1.22-.112 2.29.516 3.354.986.224.157.599.291.644.605-.023.605-.353 1.21-.824 1.5-.599.359-1.467.404-2.021-.022-.33-.336-.465-.918-.353-1.366.246-.27.577-.493.98-.359.224.112.42.336.711.202a.28.28 0 0 0 .09-.358c-.247-.135-.33-.47-.667-.516-.42-.067-.935-.045-1.22.247a1.581 1.581 0 0 0-.51 1.568c.157.716.689 1.232 1.378 1.433 1.024.247 2.088-.067 2.733-.94.268-.292.33-.605.487-.964 1.064.65 1.865 1.792 2.29 2.952 0 .38.112.784.023 1.12l.778.067c-.067-.18 0-.381.067-.538.291-1.478 1.199-2.705 2.285-3.668.375-.224.291.291.375.448.33.851 1.11 1.456 1.932 1.703.93.156 1.82-.068 2.397-.784.291-.538.644-1.322.157-1.882a1.528 1.528 0 0 0-1.22-.582c-.578 0-.936.403-1.222.828 0 .18-.022.381.135.47.09 0 .269.023.336-.111.045-.336.33-.493.599-.672.246-.135.51 0 .711.134.247.202.291.538.308.874-.045.425-.33.873-.733 1.053-.644.336-1.58.179-2.134-.202-.269-.291-.42-.627-.622-.986-.044-.358-.179-.672 0-1.03.975-.583 2-1.008 3.176-1.12.464.09.868.403 1.176.74 1.019 1.052-.224 2.547.487 3.712.269-.045.269-.403.375-.627.336-.807-.09-1.68-.285-2.459-.27-.492-.42-.918-.846-1.321.112-.045.157-.045.269-.045.465.313.98.672 1.355 1.165a6.01 6.01 0 0 1 .868 3.668c-.18.672-.89.985-1.445 1.232-.224.18-.487.448-.6.717.27.157.645 0 .914-.112.42-.157.666-.695.957-.941.045.022.023.09.045.134.023.247-.112.583.112.65.112-.314.134-.762.202-1.143.291.314.33.717.42 1.12.201.404.532.941 1.064 1.009.134-.202-.023-.404-.067-.583-.068-.56-.532-.851-.846-1.254-.779-1.076-.42-2.75-1.02-3.96-.223-.65-.688-1.12-1.198-1.657l.09-.09c1.086-.022 2 .336 2.996.538 1.22.605 2.996.47 3.579 2.06.246.897.644 1.725 1.265 2.414l.067-.045a.902.902 0 0 0 0-.828c-.134-1.12-1.108-1.39-1.624-2.324l.067-.09c.532.157 1.087.291 1.625.515 1.775.493 3.018 2.24 3.242 4.05 0 1.433-.269 2.614-.823 3.824-.067.18-.375.38-.18.538.247-.18.292-.47.42-.672.734-1.232 1.11-2.93.734-4.497-.022-.292-.352-.516-.201-.807.112.135.246.157.38.202.135-.09.337-.09.42-.247.023-.134.112-.29 0-.403-.134-.201-.42-.201-.644-.157-.111.135-.246.314-.268.493-.224-.38-.443-.873-.801-1.187l.045-.067c1.002.336 1.91.829 2.934 1.097.224.135.465.247.779.247.868.336 1.82.47 2.733.694.666-.067 1.22.247 1.887.09v-.045l-.023.022c-.246-.313-.778-.022-1.064-.246-1.534-.157-2.996-.56-4.374-1.098.023-.067.113-.044.18-.044.224-.112.375-.314.353-.56a.604.604 0 0 0-.51-.247c-.135.067-.314.224-.336.381.022.18.18.38.336.426-.045.044-.135.022-.202.022-.689-.314-1.355-.605-2.021-.918-.247-.045-.443-.247-.69-.292-.509-.246-1.018-.492-1.534-.694-1.422-.74-2.996-1.142-4.508-1.68-.336-.09-.644-.18-.957-.269-.555-.157-1.11-.291-1.664-.448-1.887-.47-4.418-.515-6.065.515-.269-.09-.42.336-.554.067.465-1.232 1.82-1.635 3.04-1.68 8.91-.09 17.26-.156 26.036-.29 1.025 0 2.022-.36 2.554-1.278.375-.537.442-1.456.157-2.06v.022Zm-35.32 8.255c-.09.268-.27.492-.247.784l-.09.044c.067-.336-.269-.537-.179-.896-.18-.269-.18-.605-.33-.896-.202-.358.179-.515.33-.761.314.134.42.425.644.694.134.38-.157.672-.134 1.03h.005Z"/><path fill="#fff" d="M94.72 37.475c0 .067.135.09.09.201-.778.695-1.865.896-2.974.941-.09.023-.179.09-.285.068-.067-.045-.09-.113-.045-.157.8-.874 2.022-1.322 3.22-1.053h-.005ZM91.142 37.833c.09.314-.112.493-.359.605-.246-.022-.375-.18-.487-.358-.067-.18.09-.27.157-.381.18-.18.6-.18.689.134ZM48.916 37.878c.045.157.023.358-.112.47-.09.113-.29.135-.403.113-.157-.023-.246-.202-.286-.337 0-.201.112-.313.286-.425.18 0 .375-.023.51.18h.005ZM44.94 39.334v.157a1.736 1.736 0 0 1-1.444-.336c-.309-.448-.667-.896-1.177-1.12 0-.067-.134-.157 0-.202 1.11 0 1.776.896 2.621 1.501ZM98.097 37.856c-.51.761-.957 1.702-1.864 2.038-.157 0-.292.224-.42.067.358-.85 1.108-1.77 1.976-2.128.09 0 .219-.022.308.023ZM50.205 38.124c.022.247-.157.292-.314.426-.18.023-.269-.112-.38-.246-.09-.224.111-.314.223-.426.18-.045.381.09.465.246h.006ZM100.898 38.259c-.202.291-.112.717-.308 1.03-.443.516-.824 1.098-1.535 1.21-.112-.224.157-.448.269-.65.314-.672.756-1.433 1.467-1.724l.112.134h-.005ZM38.052 38.46c.067.157.135.314 0 .493a.519.519 0 0 1-.51.09.415.415 0 0 1-.179-.538c.135-.201.532-.313.69-.044ZM36.786 38.73c.023.111.09.2.068.313-.068.112-.18.246-.308.269-.247.045-.398-.09-.51-.291-.023-.202.045-.381.218-.47.202-.09.426.021.532.178ZM39.407 38.864c.045.179.09.492-.179.537-.313.135-.487-.09-.666-.269a.51.51 0 0 1 .269-.447c.224-.023.42 0 .576.179ZM43.053 39.155c-.022.157.022.38-.157.426-.112.112-.313.067-.42.044-.045-.134-.291-.246-.157-.403.09-.112.18-.179.308-.246.135.067.336 0 .42.179h.006ZM103.026 39.312c-.068.157-.157.358-.336.358-.202-.022-.398-.045-.51-.246-.09-.247.112-.381.291-.448.224 0 .51.09.555.336ZM98.965 39.418c.023.18-.179.314-.268.381-.314.134-.577-.09-.69-.336.045-.202.202-.336.381-.403.286-.023.443.134.577.358ZM101.715 39.379a.464.464 0 0 1-.201.38c-.18.068-.398.046-.532-.089-.202-.179-.045-.336.089-.47.202-.112.577-.09.644.179ZM37.475 39.754c.045.247-.045.47-.269.56-.201 0-.42-.112-.487-.313-.022-.202.045-.404.224-.47.224-.068.398.066.532.223ZM97.851 40c.067.247-.067.471-.314.583-.179.045-.29-.045-.42-.157-.09-.112-.201-.358-.022-.47.18-.336.622-.202.756.045ZM49.426 40.247c.09.246-.179.291-.246.426-.09.044-.269.067-.336-.023-.112-.134-.247-.269-.18-.47.113-.09.157-.18.292-.224.246-.067.336.157.465.291h.005ZM102.628 40.404c.045.157-.09.224-.112.336-.134.112-.353.134-.51.09-.201-.113-.201-.292-.201-.493.134-.09.157-.202.313-.247.202 0 .443.09.51.314ZM101.25 40.471c.09.269-.157.403-.336.47-.089.023-.224-.044-.246.09.577.291.935.762 1.378 1.187v.18c-.801-.023-1.625-.225-2.201-.852-.157-.112-.42-.112-.6-.269.292-.29.824-.179 1.221-.201.291-.314-.336-.538.045-.807.134-.022.224-.156.398-.112.156.068.246.18.336.314h.005ZM92.167 40.493c.044.112-.09.247-.112.359a.444.444 0 0 1-.488.09c-.111-.157-.29-.292-.223-.516.179-.336.756-.269.823.067ZM42.499 41.277c-.068.202-.157.337-.376.359-.179-.023-.33-.09-.397-.269-.023-.157.09-.246.112-.358.246-.202.689-.068.666.268H42.5ZM44.296 40.986c0 .314-.336.493-.442.807-.336.739-.93 1.41-1.775 1.478-.09-.202.29-.448.375-.65.353-.761 1.064-1.164 1.708-1.635h.134ZM91.635 41.3c.022.246-.202.425-.381.515-.202.067-.353-.09-.465-.18-.179-.178-.067-.358.023-.537.268-.269.644-.045.823.202ZM93.012 41.457a.554.554 0 0 1-.397.492c-.045-.067-.157-.022-.224-.044-.157-.09-.291-.224-.291-.404.112-.112.156-.29.313-.313.202-.023.532 0 .6.269ZM47.74 41.434c.023.247-.156.381-.33.47-.201.023-.336-.111-.42-.268-.045-.202.157-.336.269-.448.269-.09.336.112.487.246h-.005ZM49.275 41.524a.533.533 0 0 1-.42.38c-.157-.044-.33-.089-.398-.268-.022-.224.157-.336.308-.448.224 0 .465.09.51.336ZM97.784 43.092c.112.09.308.202.263.358-.353.157-.644-.246-.974-.313-.532-.538-.936-1.12-1.154-1.792.202-.202.42.044.6.112.509.425.996.985 1.265 1.635ZM98.607 41.524a.552.552 0 0 1-.045.493c-.134.224-.42.179-.621.134-.112-.134-.314-.314-.18-.515.068-.18.27-.224.42-.291.157-.023.27.112.42.179h.006ZM51.313 42.106c.023.18.068.448-.156.56-.202.045-.465-.022-.532-.269-.112-.268.134-.313.268-.448.18-.044.286.045.42.157ZM92.945 43.562c.308.448.532 1.008.577 1.59-.067.158.112.314-.022.426h-.09c-1.002-.716-1.22-1.725-1.602-2.727-.09-.045-.112-.134-.09-.224.225-.202.376.202.6.269l.622.672.005-.006ZM54.203 42.8s0 .046.022.046c-.89.627-2.133 1.008-3.153.403-.022-.068.023-.18.112-.202.645-.201 1.266-.515 1.955-.425l1.064.179ZM49.14 42.913c-.755.47-1.444 1.389-2.374 1.613-.18.067-.285.313-.51.179.398-1.21 1.709-1.86 2.89-1.971v.179h-.005ZM91.635 43.92c.067.18 0 .426-.18.471-.111.112-.33.112-.42 0-.201-.09-.201-.291-.201-.448.067-.157.224-.18.33-.246.202.044.353.044.465.224h.006ZM89.787 44.033c-.135.313-.51.492-.801.582-.756.269-1.445-.09-2.111-.269.022-.179.246-.112.353-.224.733-.157 1.49-.313 2.262-.112.067-.044.224-.067.291.023h.006ZM49.14 44.677c-.067.09-.09.29-.268.358-.157.067-.308 0-.443-.09-.044-.134-.201-.246-.09-.403.046-.157.225-.201.354-.246.224.022.397.157.442.38h.006ZM50.45 44.878c-.066.135-.134.336-.307.426-.18.045-.314-.045-.443-.157-.067-.134-.134-.291-.067-.448.045-.112.202-.134.314-.201.224-.023.42.201.51.38h-.006ZM91.21 45.102c.022.18-.068.292-.158.426-.112.157-.33.18-.487.09-.157-.023-.201-.202-.269-.314-.134-.18.09-.291.157-.448.247-.202.644-.09.756.246ZM92.189 45.058c.022.112.09.224.045.313-.135.112-.224.403-.487.291-.135.045-.202-.134-.264-.179-.09-.224-.022-.56.264-.605.201-.067.336.112.442.18ZM49.65 45.707a.603.603 0 0 1-.224.605c-.246.045-.554.045-.644-.246-.022-.224 0-.516.269-.65.224-.022.487.022.6.291ZM50.916 45.618c-.045.627-.18 1.388-.801 1.747-.358.067-.711.403-1.064.179v-.112c.465-.672 1.31-1.187 1.865-1.814ZM87.726 46.133c.09.134-.067.246-.135.358-.134.157-.38.09-.532.023-.156-.068-.179-.292-.112-.448.045-.135.18-.202.291-.247.202-.022.376.157.488.314ZM53.14 47.163c.307.515.133 1.21.307 1.77-.375.045-.532-.38-.778-.605-.488-.672-.42-1.568-.644-2.346a.118.118 0 0 1 .156-.045c.33.224.577.65.846.94-.045.157.134.157.112.292v-.006ZM88.835 46.312c0 .18-.202.224-.314.336a.796.796 0 0 1-.42-.202c-.067-.224.112-.29.224-.403.224-.09.442.023.51.269ZM91.478 48.306c0 .067-.022.201-.134.157h-.09c-.644-.583-1.288-1.233-1.199-2.123l.135-.022c.6.515 1.266 1.075 1.288 1.993v-.005ZM89.81 47.589c.022.179-.09.313-.203.425-.246.068-.621.045-.666-.29-.022-.225.224-.337.336-.449.269-.067.442.112.532.314ZM88.342 48.06c-.308.828-1.154 1.254-1.73 1.88-.112-.066-.068-.245-.045-.335.224-.851.89-1.68 1.708-2.016.352.045 0 .291.067.47ZM90.01 48.726c0 .201-.2.29-.307.403-.18-.023-.353-.067-.487-.246-.023-.225.156-.292.285-.404a.459.459 0 0 1 .51.247ZM73.484 8.113a.55.55 0 0 1 .55.554.55.55 0 0 1-.55.555H66.9a.55.55 0 0 1-.55-.555.55.55 0 0 1 .55-.554h6.585Zm-4.659.958c.644 0 .034-.779-.313-.779h-.644c-.644 0-.034.779.308.779h.65Zm2.7 0c.643 0 .033-.779-.314-.779h-.644c-.644 0-.034.779.313.779h.645Zm1.987-.779h-.246c-.644 0-.095.779.246.779.432 0 .46-.779 0-.779ZM72.902 15.668l1.26.481 1.238-.481-.487 1.853.98-.201-.336 1.12.336 1.075-.868-.235.38 2-1.237-.483-1.26.482.515-2-1.002.28.268-1.125-.268-1.075.957.157-.47-1.854-.006.006Zm1.86 3.343c.28 0 .307-.392.307-.728 0-.762-.604 0-.912-.717-.224.605-.846.045-.846.695 0 .448 0 .75.442.75h1.008Zm-1.233-.689c0 .291.392.095.678.095.286 0 .678.196.678-.095 0-.414-.392-.269-.678-.269-.286 0-.678-.145-.678.27ZM69.956 18.395v-.235l-.207-.04.163-.173-.101-.19.218.022.129-.23.129.23.218-.022-.106.19.168.174-.213.039v.235l-.196-.151-.202.151ZM68.982 19.65v-.236l-.213-.039.168-.174-.1-.184.212.022.135-.23.123.224.218-.016-.1.184.168.174-.213.04v.235l-.196-.146-.202.145ZM70.64 19.493v-.235l-.213-.04.168-.173-.101-.19.213.022.134-.23.123.23.219-.023-.101.19.168.174-.213.04v.235l-.196-.151-.201.15ZM70.836 20.433V20.3l-.118-.022.09-.101-.056-.106.123.016.073-.134.073.129.123-.011-.056.106.09.1-.118.023v.134l-.112-.09-.112.09ZM69.296 21.503V21.1l-.365-.067.286-.292-.174-.324.37.039.224-.392.219.386.375-.033-.174.324.28.292-.358.067v.403l-.342-.252-.341.252ZM70.08.402l.784 1.92 1.977-.582-1.003 1.82 1.686 1.193-2.033.342.123 2.077-1.534-1.394-1.535 1.394.123-2.077-2.033-.342 1.686-1.193-1.008-1.82 1.983.582.784-1.92ZM62.911 43.545c-.235.09-.325.152-.269.398l.28 1.182c.05.218.068.56-.078.773-.174.252-.538.414-.806.476-.196.044-.61.123-.952-.017-.224-.095-.37-.196-.46-.6l-.29-1.237c-.074-.308-.191-.291-.443-.252l-.023-.09 1.49-.358.022.09c-.29.078-.425.117-.347.442l.291 1.238c.05.212.174.722.807.565.773-.185.65-.756.593-.991l-.268-1.126c-.05-.224-.135-.341-.521-.263l-.023-.095.97-.23.022.09.005.005ZM65.118 43.792c-.134-.24-.493-.61-1.02-.493-.229.05-.447.218-.397.46.045.2.146.263.554.335l.712.123c.162.029.549.169.638.577.073.325-.112.84-.924 1.02-.42.095-.65.01-.784.044-.095.023-.1.096-.106.157l-.13.028-.2-.918.128-.028c.174.353.52.717 1.08.593.533-.117.471-.492.46-.537-.056-.247-.28-.291-.594-.342l-.324-.05c-.823-.135-.896-.454-.93-.628-.05-.224-.022-.761.818-.946.352-.078.588 0 .716-.033.101-.023.112-.085.118-.157l.134-.028.18.806-.123.028-.006-.011ZM68.052 45.26l-1.613.156-.01-.095c.324-.056.436-.073.403-.392l-.19-1.994c-.314.045-.78.106-.813.722l-.129.012-.056-.762 2.705-.257.079.761-.13.011c-.145-.599-.615-.57-.929-.554l.19 1.993c.034.32.14.32.477.303l.01.095h.006ZM71.816 45.26l-.93-.018-.913-1.21h-.123l-.017.746c-.005.302.095.319.392.358v.095l-1.534-.028v-.095c.308-.022.403-.034.409-.342l.033-1.68c.006-.325-.134-.336-.392-.358v-.095l1.462.028c.319.005 1.277.056 1.265.694-.01.47-.476.577-.722.639l.89 1.103c.062.067.13.073.185.078v.095l-.005-.01Zm-1.96-1.35c.593.005.828-.073.84-.566.005-.386-.174-.555-.538-.56-.246 0-.258.04-.286.157l-.016.968Z"/><path fill="#fff" d="m74.79 45.64-1.457-.185.012-.095c.28.017.364.022.375-.1.011-.102-.095-.398-.146-.527l-1.013-.13c-.157.259-.252.404-.258.46-.017.146.196.18.347.207l-.01.096-.914-.112.011-.096c.247 0 .325-.117.493-.386l1.255-1.943.129.017.755 2.11c.152.432.208.566.426.589l-.011.095h.006Zm-1.26-1.064-.342-.974-.538.862.88.112ZM77.427 46.178l-2.576-.47.017-.096c.252.017.392.034.43-.196l.331-1.809c.045-.246-.134-.285-.336-.336l.017-.095 1.557.285-.017.096c-.313-.045-.453-.068-.515.263l-.32 1.764c-.033.18.062.23.36.28.671.123.98-.14 1.26-.526l.128.022-.336.818ZM79.14 46.558l-1.55-.324.022-.096c.24.034.42.056.465-.179l.37-1.798c.05-.246-.157-.296-.36-.352l.018-.09 1.55.325-.016.095c-.207-.034-.425-.078-.476.174l-.375 1.797c-.05.241.129.286.364.353l-.017.095h.006ZM82.288 46.967l-1.462-.151.011-.095c.28.011.364.017.376-.112.01-.101-.107-.398-.157-.527l-1.014-.106c-.157.258-.24.409-.246.465-.017.145.201.179.353.201l-.012.096-.918-.096.011-.095c.247 0 .325-.129.487-.397l1.21-1.966.129.011.8 2.095c.163.425.22.56.438.576l-.012.096.006.005Zm-1.282-1.036-.365-.969-.515.874.88.09v.005ZM70.701 16.284c0-.913-.51-.056-.795-.835-.207.656-.823.107-.823.812 0 .27.073.426.201.51v.269c0 .073.056.129.124.129h.968a.126.126 0 0 0 .124-.13v-.29a.592.592 0 0 0 .196-.465h.005Zm-.79.173c-.268 0-.627.185-.627-.134 0-.448.303-.347.572-.347.269 0 .677-.101.677.347 0 .314-.358.134-.627.134h.006ZM78.653 27.495c.23 0 .42-.162.42-.37 0-.206-.184-.369-.42-.369-.235 0-.42.168-.42.37 0 .201.185.37.42.37ZM76.682 13.965s-.196.33-.196.392c0 .123.09.219.202.219.112 0 .202-.101.202-.219 0-.005-.202-.392-.202-.392h-.006ZM63.264 13.965s-.196.33-.196.392c0 .123.09.219.202.219.112 0 .202-.101.202-.219 0-.005-.202-.392-.202-.392h-.006ZM66.619 13.965s-.196.33-.196.392c0 .123.09.219.201.219.112 0 .202-.101.202-.219 0-.005-.202-.392-.202-.392h-.005ZM69.973 13.965s-.196.33-.196.392c0 .123.09.219.196.219.107 0 .202-.101.202-.219 0-.005-.202-.392-.202-.392ZM73.328 13.965s-.196.33-.196.392c0 .123.09.219.201.219.112 0 .202-.101.202-.219 0-.005-.202-.392-.202-.392h-.005ZM63.276 18.569s.196.33.196.392c0 .123-.09.218-.202.218-.112 0-.202-.095-.202-.218 0-.006.202-.392.202-.392h.006ZM63.276 23.043s.196.33.196.392c0 .123-.09.219-.202.219-.112 0-.202-.096-.202-.219 0-.005.202-.392.202-.392h.006ZM63.807 26.582s.197.33.197.392c0 .118-.09.219-.202.219-.112 0-.202-.1-.202-.219 0-.005.202-.392.202-.392h.005ZM66.624 28.47s.196.33.196.392c0 .123-.09.218-.196.218-.106 0-.201-.095-.201-.218 0-.006.201-.392.201-.392ZM76.856 18.569s-.197.33-.197.392c0 .123.09.218.197.218.106 0 .201-.095.201-.218 0-.006-.201-.392-.201-.392ZM76.856 23.043s-.197.33-.197.392c0 .123.09.219.197.219.106 0 .201-.096.201-.219 0-.005-.201-.392-.201-.392ZM76.318 26.582s-.196.33-.196.392c0 .118.09.219.202.219.112 0 .196-.1.196-.219 0-.005-.202-.392-.202-.392ZM73.501 28.47s-.196.33-.196.392c0 .123.09.218.202.218.112 0 .201-.095.201-.218 0-.006-.201-.392-.201-.392H73.5ZM70.08 30.463s-.196.33-.196.392c0 .124.09.219.196.219.106 0 .201-.1.201-.219 0-.005-.201-.392-.201-.392ZM75.534 23.788c.045.062.146.084.28.04l.129-.36s-.146-.167-.24-.145c-.36.084-.74.129-.947.47 0 .236.168.449.336.555.129-.045.145.084.23.151.022.107-.045.19-.146.19-.252-.257-.695.085-.885-.235.084-.319.252-.677-.022-.98.022-.061.128-.128.061-.19-.106-.297-.42-.062-.61-.062-.314-.044-.572.13-.762.381a.594.594 0 0 0 .168.32c.084-.023.129 0 .146.083l-.213.13c.062.06.062.15.084.234-.146.062-.297-.145-.359-.257 0-.168.023-.465-.212-.51-.04 0-.185.062-.185.062-.05.067-.084.196-.084.353 0 .156.084.38.084.38s.65.482.8.779c-.19.38-.19.913-.632 1.125-.129.085-.129.213-.129.342l.106.084c.275-.151.801-.19.762-.66.106-.191.213-.404.398-.555a.433.433 0 0 1 .487.235c-.062.32-.275.532-.571.639-.045.044-.023.106-.023.168.084.15.32.084.443.061.358-.235.51-.66.823-.784.04.213-.42.274-.129.487.19-.044.443.023.571-.235-.145-.358.504-.532.107-.851 0-.32.336-.448.313-.784-.128-.342-.526-.342-.632-.661.128-.084.313-.062.442 0h.011ZM60.123 27.658c.23 0 .42-.163.42-.37s-.19-.37-.42-.37c-.23 0-.42.163-.42.37s.184.37.42.37ZM38.366 40.365c.23 0 .414-.18.414-.398a.407.407 0 0 0-.414-.398c-.23 0-.415.18-.415.398 0 .218.185.398.415.398ZM52.215 43.45h-.028l-.028-.033v.022s0 .011.011.011h-.045s.012 0 .012-.01v-.051s0-.012-.012-.012h.04s.039 0 .039.017c0 .012-.011.017-.023.017l.029.034.005.005Zm-.056-.033s.023 0 .023-.017c0-.011-.006-.017-.017-.017h-.011v.028l.005.006ZM52.271 43.4s-.011-.023-.028-.023c-.005 0-.011 0-.011.012 0 .005 0 .01.011.01h.017s.017.018.017.029c0 .011-.011.023-.034.023h-.022v-.029s.01.023.028.023c.017 0 .017-.011.017-.011 0-.006-.006-.012-.017-.012h-.011s-.023-.022-.023-.028c0-.005 0-.022.028-.022h.023v.022l.005.006ZM52.411 43.377s-.005 0-.011.006l-.028.067-.022-.05-.023.05-.028-.067s0-.006-.011-.006h.04-.006l.016.045.017-.033v-.012h-.017.045-.011l.011.045.017-.039s0-.011-.011-.011h.022v.005ZM52.417 43.45s.028-.005.033-.028h-.011s-.022 0-.022-.022c0-.006 0-.023.028-.023.01 0 .028.006.028.034 0 .023-.017.04-.056.045v-.006Zm.033-.033h.006v-.011s0-.029-.011-.029c-.006 0-.006.006-.006.017 0 .017 0 .023.011.023Z"/><path fill="#fff" d="M52.49 43.4h.028c.005 0 .016.011.016.022 0 .017-.016.029-.039.029-.011 0-.017 0-.017-.012 0 0 0-.005.006-.005.011 0 .017.01.022.01 0 0 .012 0 .012-.01 0-.006-.006-.012-.017-.017h-.028l.01-.04h.046v.017h-.045v.012l.005-.006ZM77.797 13.422h-15.48l.012 11.839c0 1.204.51 2.262 1.215 2.587l5.953 3.78a.711.711 0 0 0 1.025.056l6.048-3.836c.706-.325 1.216-1.377 1.216-2.587l.01-11.839Zm-.437 12.001c-.078.896-.386 1.641-1.002 2.061l-5.836 3.707h-.034a.737.737 0 0 1-.448.157.752.752 0 0 1-.459-.162l-5.824-3.702c-.621-.42-.924-1.165-1.002-2.06V13.847h14.61v11.57l-.005.005Z"/><path fill="#fff" d="m72.14 30.676.191-.09c-.078.029-.134.062-.19.09ZM60.464 46.844l-1.462.168-.01-.095c.28-.05.358-.062.34-.19-.01-.101-.19-.365-.262-.477l-1.014.118c-.095.286-.151.448-.14.51.017.145.235.128.386.117l.011.095-.912.107-.012-.095c.241-.056.286-.196.392-.493l.762-2.184.129-.017 1.232 1.87c.252.381.336.499.549.47l.011.096Zm-1.473-.734-.56-.862-.32.969.88-.101v-.006Z"/><path fill="#fff" d="M86.102 41.3c-.269-.695-.823-1.165-1.512-1.389-.711-.157-1.467-.045-1.932.493-.801.65-.247 1.725-.224 2.593 0 .179.022.313-.157.403-3.22-.291-6.222-1.098-9.42-1.434-.733-.129-1.472-.095-2.172-.24l-.896-.096c-2.778.09-5.556.247-8.154.919-.555.179-1.176.224-1.73.425-.398-.067-.734.224-1.11.112l-.733.174a.644.644 0 0 1-.247-.017c-.352-.918.712-1.478.376-2.369-.292-.515-.869-1.008-1.535-.918-.756-.09-1.422.336-1.775.918-.51 1.12.134 2.285.336 3.377-.045.358.358.762 0 1.053-.711-.493-1.647-.762-2.509-.515-.269.134-.756-.045-.89.269.957.515 2.178.448 3.242.403.134-.045.224-.067.336.022.09.583-.112 1.367.246 1.882.398.538 1.064.672 1.708.74 2.045-.068 3.865-.673 5.73-1.143.29-.023.51-.18.823-.18.997-.224 2.089-.403 3.153-.425-.465.605-.734 1.277-.936 2.016-.268.605.465.694.69 1.03-.69.202-1.177.672-1.82.941-1.423-.045-2.622.493-3.954.65-.023.291.464.201.51.493-.068.201-.27.224-.42.336-.023.134 0 .156.134.179.134-.157.42-.045.554-.202.442 0 .823-.134 1.243-.157.381-.156.801-.179 1.131-.448.465-.134.756-.448 1.221-.582.667 0 1.266-.224 1.887-.269v.134c-.51.83-1.041 1.68-1.579 2.459-.09.157.023.314.157.358.314.09.622 0 .868-.134.465-.806.89-1.568 1.266-2.391.157-.762.71-1.165 1.265-1.68.09-.045.224-.18.314-.045-.443.515-.734 1.008-1.064 1.568-.18.627-.224 1.434.33 1.949.27.224.667.157 1.025.179.868-.448 1.977.269 2.644-.582.397-.068.464.403.688.627.376.112.779.493 1.154.224-.023-.247-.291-.47-.42-.695-.269-.47-.6-.85-.846-1.276-.112-.314-.308-.516-.358-.83.403.135.756.404 1.198.471.376.157.846.135 1.199.359.291.38.733.604 1.109.85.554.27 1.176.314 1.753.538.224.023.554.202.71 0a.965.965 0 0 0-.33-.246c-.067-.291.398-.134.555-.358-.056-.112-.151-.152-.258-.168-.32-.168-1.109-.23-1.322-.348-.268-.044-.51-.156-.778-.246-1.333 0-2.066-1.21-3.13-1.658.246-.224.621-.403.778-.739.201-.314.269-.829.067-1.187-.201-.695-1.086-.605-1.602-.986l.068-.067c.868-.045 1.624.157 2.397.314 2.133.29 4.11 1.097 6.333 1.142 1.221 0 2.756.067 3.355-1.12.112-.694.246-1.389.353-2.078.269-1.12.997-2.15.89-3.377l.017-.005ZM62.11 51.503l-.308-.29c.157-.202.487-.09.733-.225.577-.179 1.244-.403 1.888-.269-.667.538-1.535.605-2.313.784Zm13.866-.358c.532.24 1.601.476 2.369.56-.068.302-.61.017-.55.448-.688-.269-1.489-.403-1.998-.94.044-.023.09-.09.179-.068Zm-20.844-9.51c.067-.402.157-.828.532-1.12.532-.29 1.266-.223 1.753.068.157.09.269.224.358.426.112.38-.067.784-.336 1.008h-.224c0-.359 0-.717.134-1.008-.022-.27-.246-.292-.42-.404-.375-.112-.71.068-1.002.224-.224.27-.42.605-.285.986.156.247.022.583.111.851l-.067.09c-.263-.291-.621-.605-.554-1.12Zm1.041.64c.33.246.801.134 1.199.2.067.247.067.56-.112.762-.375-.09-.868-.044-1.064-.403.045-.157-.067-.38-.023-.56Zm-.067-.751c.068-.18 0-.448.247-.493.157-.045.397-.045.42.134-.023.27-.045.538-.112.785-.314.022-.465-.157-.555-.426Zm10.417 7.18c-.112-.785.201-1.457.71-2.017.309-.067.667-.134.953.045-.577.157-1.31.291-1.445 1.03.022.292-.067.449.067.695.247.425.801.246 1.11.582 0 .112-.09.247-.203.27-.38-.225-.845-.314-1.198-.606h.006Zm-.801 1.545c.532-.224 1.086-.695 1.691-.493-.42.336-1.109.47-1.691.493Zm2.111.224a16.601 16.601 0 0 1-1.086 2.1c-.045.112-.224.134-.353.157 0-.314.314-.56.442-.829.465-.605.6-1.254 1.132-1.837.134.135-.135.224-.135.403v.006Zm.554-1.3v.09h-.044v-.112h.09s-.068 0-.09.023h.044Zm-.201-.604c-.375-.045-.734-.157-1.064-.269-.224-.224 0-.47 0-.717.313-.493 1.198-.739 1.624-.291a2.405 2.405 0 0 1-.555 1.277h-.005Zm.487 0c.067-.291.202-.672.353-.94-.023.29-.157.694-.353.94Zm.246-1.815c-.29-.067-.442-.403-.755-.403.268-.09.531-.067.845-.022.112.157-.067.291-.09.425Zm.27.672h-.023v-.246h.022v.246Zm.022 1.03c-.023-.089.045-.2.067-.313.112-.112.224.09.269.157a.333.333 0 0 1-.336.157Zm.336-1.388c.112-.314.134-.582.336-.829.224 0 .42 0 .599.09.045.448.6 1.053 0 1.434-.202.09-.487.29-.711.09-.291-.247-.336-.471-.224-.785Zm1.618-.627c-.045-.202.202-.045.291-.135l.69.045c-.36-.045-.802.784-.98.09Zm1.11.291c-.27.09-.466.403-.735.47.135-.246.465-.492.734-.47Zm-.936 1.389v.067h-.023v-.067h.023Zm.045 1.366c-.023.045.022.112-.045.157l-.51-.403c.247-.045.42.067.555.246Zm-.6-.694c.045-.045.157-.045.202 0h-.202Zm-.313-.336c.09-.135.201-.336.353-.336 0 .022.022.045.044.067-.134.112-.246.224-.397.269Zm-.51-.045h-.09l.135-.134c.067.044-.022.09-.045.134Zm.067.851c.292-.313.555.18.667.426.336.493 1.198.94.868 1.613-.42.38-1.087.022-1.557.313-.246-.022-.666.045-.8-.201.246-.717.464-1.523.822-2.15Zm-.621.426.112-.18a9.43 9.43 0 0 1-.734 1.614c-.134-.538.42-.964.622-1.434Zm.98 2.66c-.42.022-1.064.269-1.468-.09.023-.179-.179-.268-.156-.448.353-.134.666.292 1.002-.022.51.022 1.042-.067 1.557.045.246.067.622-.403.666.067-.179.74-1.064.224-1.596.448h-.005Zm1.288-3.22v-.067h.045v.067h-.045Zm.134 1.411c.023.224.247.314.112.515-.045-.09-.179-.29-.112-.515Zm.622 1.344-.112.045c-.112-.09-.067-.336-.045-.47.134.112.246.268.157.425Zm1.109.538c-.023.067-.135.067-.18.022-.666-.851-.98-1.747-1.4-2.682l.09-.023c.532.874.958 1.837 1.49 2.683Zm.823-2.061c-.045.022-.045.067-.045.09-.644.022-1.064-.359-1.557-.695l-.022-.112c.6.045 1.086.426 1.624.717Zm-.577-2.974c.269.067.291.359.314.583-.023.492-.291.918-.756 1.097-.247.135-.622.18-.868.09.532-.022 1.108-.224 1.332-.762l-.022-1.008Zm-.487-.09c.112.314.308.606.201.986-.224.426-.666.426-1.064.515-.201.023-.358-.044-.51-.156.023-.09-.022-.157-.089-.224.067-.291-.51-.583-.112-.83.353-.335 1.199-1.097 1.58-.29H73.3Zm11.284-1.629c-.179.224-.022.582-.246.784 0 .403-.336.605-.622.762-2.643.582-5.241-.314-7.795-.762-3.579-.784-7.75-1.008-11.397-.18a52.765 52.765 0 0 0-5.017 1.188c-1.025.134-2.134.291-3.108-.022-.801-.381-.465-1.412-.712-2.128.045-.56-.156-1.009-.179-1.546a1.323 1.323 0 0 1-.09-.583c.33.045.667.292 1.02.381 1.865.359 3.533-.246 5.264-.56 1.669-.358 3.377-.65 5.13-.784 1.999-.022 4.043-.134 5.953.202.621.022 1.153.18 1.752.224 1.244.157 2.403.493 3.669.582.201.068.442.068.666.112 2 .314 4.245.874 6.155 0 0 .807-.33 1.546-.443 2.33Zm-.621-2.727c.022.358-.314.268-.488.403h-.532c-.112-.18-.067-.448-.067-.627.353.067.756.067 1.087.224Zm-.247-.56c.247-.247-.067-1.658.622-.74 0 .18.022.449-.157.583-.112.09-.291.269-.465.157Zm1.798-.224c-.202.403-.51.694-.958.761.023-.537.51-.918.336-1.523-.29-.426-.868-.56-1.4-.448-.201.134-.112.358-.179.56l-.09.74c-.442 0-.464-.404-.599-.718.023-.47.224-.94.689-1.164.353-.18.935-.157 1.288.044.291.068.622.202.734.47.336.314.246.874.179 1.278ZM47.133 59.897a1.082 1.082 0 0 0-.795-.33c-.308 0-.566.111-.784.33a1.074 1.074 0 0 0-.325.79c0 .307.107.565.325.783.213.219.476.325.784.325.308 0 .571-.106.79-.325.218-.212.33-.47.33-.784 0-.313-.106-.571-.325-.79ZM47.346 68.185v-5.343h-2.828v.27c.32.016.532.094.644.229.112.129.168.431.168.907v3.942c0 .477-.05.768-.145.88-.146.162-.37.246-.667.257v.258h3.646v-.258c-.325-.016-.538-.095-.65-.224-.112-.134-.168-.442-.168-.918Z"/><path fill="#fff" fill-rule="evenodd" d="M2.892 66.802h3.452l.518 1.215c.135.32.207.498.219.543a.963.963 0 0 1 .044.269.38.38 0 0 1-.156.33c-.152.107-.42.157-.801.157h-.196v.269h4.737v-.269c-.302-.022-.531-.106-.694-.257-.213-.197-.493-.672-.829-1.434L5.658 59.6h-.134l-3.5 7.812c-.336.745-.616 1.238-.84 1.478-.23.236-.516.381-.868.432v.269h3.253v-.27c-.51-.038-.829-.094-.957-.173-.219-.129-.33-.33-.33-.605 0-.207.066-.47.2-.79l.41-.951Zm3.452 0h.003l-.006-.006.003.006Zm-1.7-3.904 1.457 3.372H3.144l1.5-3.372Z" clip-rule="evenodd"/><path fill="#fff" d="M16.707 68.123v-5.286l.006-.006h-2.75v.269c.297.04.493.123.583.246.095.123.145.443.145.952v3.612c-.269.381-.504.633-.694.757a.815.815 0 0 1-.47.14.58.58 0 0 1-.348-.107.64.64 0 0 1-.218-.32c-.045-.14-.067-.447-.067-.929v-4.614h-2.75v.268c.297.04.493.124.582.247.096.123.146.442.146.952v2.677c0 .784.05 1.327.151 1.64.101.314.303.589.594.824.302.23.621.347 1.019.347a2.25 2.25 0 0 0 1.08-.258c.326-.179.645-.459.97-.845v.902h2.75v-.258c-.292-.034-.488-.118-.583-.24-.095-.13-.146-.455-.146-.97ZM22.162 62.652l.106 2.302h-.246c-.291-.684-.6-1.148-.918-1.4-.314-.253-.628-.376-.941-.376a.702.702 0 0 0-.504.202.595.595 0 0 0-.207.454c0 .128.05.257.145.375.151.196.582.537 1.294 1.019.705.476 1.17.885 1.394 1.22.224.331.342.707.342 1.12 0 .376-.095.746-.28 1.104-.19.359-.454.639-.795.829-.342.19-.723.291-1.132.291-.325 0-.75-.1-1.293-.302a1.15 1.15 0 0 0-.297-.079c-.157 0-.291.118-.398.359h-.24l-.118-2.425h.246c.219.633.515 1.114.89 1.428.381.32.74.476 1.076.476.23 0 .42-.067.566-.207a.695.695 0 0 0 .224-.521.888.888 0 0 0-.219-.6c-.145-.167-.465-.425-.969-.767-.733-.51-1.215-.901-1.428-1.17a2.018 2.018 0 0 1-.476-1.305c0-.52.18-.991.532-1.406.359-.425.88-.632 1.557-.632.364 0 .717.09 1.064.269a.683.683 0 0 0 .32.106.378.378 0 0 0 .207-.05c.05-.04.134-.14.252-.309h.246v-.005ZM25.735 62.837v-2.47H25.5a8.264 8.264 0 0 1-1.12 1.58c-.426.47-.941.923-1.546 1.349v.252h.88v3.646c0 .722.022 1.165.072 1.327.084.291.274.56.566.8.302.236.66.354 1.092.354.873 0 1.506-.46 1.898-1.384l-.218-.156c-.28.475-.577.716-.89.716a.429.429 0 0 1-.253-.1.567.567 0 0 1-.196-.275c-.033-.112-.05-.364-.05-.756v-4.166h1.602v-.717h-1.602ZM30.635 62.837v1.529c.448-.7.84-1.16 1.176-1.384.336-.23.66-.347.974-.347.27 0 .482.084.645.252.162.163.246.398.246.7 0 .325-.078.571-.24.75a.721.721 0 0 1-.566.27.991.991 0 0 1-.667-.247 67.375 67.375 0 0 1-.122-.105 2.075 2.075 0 0 0-.208-.17.327.327 0 0 0-.168-.044c-.14 0-.275.05-.398.157-.196.162-.347.397-.448.7-.151.464-.23.98-.23 1.545v1.955c.006.274.023.448.056.526.056.129.14.224.253.291.117.056.308.096.576.107v.257H27.87v-.257c.29-.023.492-.101.593-.241.107-.14.157-.504.157-1.092v-3.73c0-.386-.017-.633-.056-.733a.602.602 0 0 0-.207-.297c-.09-.062-.252-.107-.482-.13v-.268h2.756l.005.006Z"/><path fill="#fff" fill-rule="evenodd" d="M35.16 69.68c.655 0 1.394-.364 2.218-1.092l.005-.017c.05.364.18.639.398.823.218.18.515.27.901.27.325 0 .616-.079.874-.236.258-.162.51-.42.75-.778l-.218-.174c-.129.18-.258.269-.38.269a.254.254 0 0 1-.169-.056.354.354 0 0 1-.106-.174c-.023-.078-.034-.274-.034-.582v-2.621c0-.728-.033-1.193-.1-1.394-.113-.314-.353-.61-.729-.88-.37-.274-.879-.408-1.517-.408-.527 0-1.036.084-1.53.252-.492.168-.873.408-1.147.727-.269.314-.409.645-.409.992 0 .246.1.459.303.644.207.185.464.274.767.274.28 0 .51-.084.683-.246a.8.8 0 0 0 .269-.605c0-.19-.09-.392-.275-.6-.134-.15-.201-.274-.201-.374 0-.118.061-.219.184-.303.202-.14.46-.207.773-.207a.93.93 0 0 1 .521.151.725.725 0 0 1 .308.347c.056.13.084.448.084.958v.678c-1.49.683-2.453 1.232-2.895 1.646-.443.415-.666.874-.666 1.389 0 .38.123.694.38.952.252.252.572.375.958.375Zm2.218-3.875v2.257l.005.005c-.319.27-.599.404-.84.404-.213 0-.386-.068-.504-.197a.804.804 0 0 1-.24-.582c0-.269.089-.532.28-.79.285-.392.716-.756 1.299-1.097Z" clip-rule="evenodd"/><path fill="#fff" d="M43.247 59.801v8.384c0 .476.056.784.168.918.112.13.325.208.65.224v.258h-3.646v-.258c.296-.01.52-.095.666-.257.095-.112.146-.403.146-.88v-6.988c0-.47-.056-.773-.168-.902-.112-.135-.325-.213-.644-.23v-.269h2.828Z"/><path fill="#fff" fill-rule="evenodd" d="M52.1 68.588c-.823.728-1.562 1.092-2.217 1.092-.387 0-.706-.123-.958-.375a1.283 1.283 0 0 1-.38-.952c0-.515.223-.974.666-1.389.442-.414 1.405-.963 2.895-1.646v-.678c0-.51-.028-.829-.084-.958a.725.725 0 0 0-.308-.347.917.917 0 0 0-.52-.151c-.314 0-.572.067-.774.207-.123.084-.19.185-.19.303 0 .1.067.224.202.375.184.207.274.409.274.599a.8.8 0 0 1-.269.605c-.173.162-.403.246-.683.246-.302 0-.56-.09-.767-.274-.202-.185-.303-.398-.303-.644 0-.347.135-.678.41-.992.274-.319.654-.56 1.147-.727a4.706 4.706 0 0 1 1.53-.252c.637 0 1.147.134 1.517.408.375.27.616.566.728.88.067.201.1.666.1 1.394v2.62c0 .309.012.505.034.583a.354.354 0 0 0 .107.174c.05.04.1.056.168.056.123 0 .252-.09.38-.269l.219.174c-.241.358-.493.616-.75.778a1.646 1.646 0 0 1-.874.235c-.387 0-.683-.09-.902-.269-.218-.184-.347-.459-.398-.823v.017Zm0-.526v-2.257c-.582.341-1.013.705-1.299 1.097-.185.258-.28.521-.28.79 0 .224.079.415.241.583.118.128.286.195.504.195.24 0 .52-.134.84-.403l-.006-.005Z" clip-rule="evenodd"/><path fill="#fff" d="M57.936 63.71v-.873l-.006-.006h-2.75v.269c.298.04.494.123.583.246.095.123.146.443.146.952v3.814c0 .52-.04.835-.123.94-.118.158-.32.247-.605.275v.258h3.416v-.258c-.252-.033-.431-.117-.527-.252-.09-.134-.134-.453-.134-.957V64.5c.353-.594.74-.89 1.154-.89.128 0 .24.039.341.123.107.073.18.185.224.33.045.146.067.493.067 1.047v3.002c0 .476-.039.779-.117.896-.112.18-.297.286-.549.32v.257h3.416v-.258c-.302-.033-.498-.117-.593-.24-.09-.13-.135-.454-.135-.975v-2.626c0-.779-.039-1.305-.117-1.58a1.714 1.714 0 0 0-.577-.901c-.291-.247-.655-.37-1.092-.37a2.11 2.11 0 0 0-1.025.258c-.32.168-.65.442-.997.817ZM75.761 59.572v.005h-.252c-.1.275-.201.465-.319.566a.586.586 0 0 1-.375.146c-.09 0-.37-.09-.846-.27-.47-.178-.812-.29-1.024-.33a6.724 6.724 0 0 0-1.316-.117c-1.569 0-2.868.51-3.904 1.523-1.036 1.014-1.551 2.257-1.551 3.73 0 .823.168 1.562.504 2.229.263.515.633.98 1.098 1.394.47.409 1.013.74 1.624.997.616.252 1.388.375 2.318.375.728 0 1.428-.073 2.1-.218a9.469 9.469 0 0 0 1.955-.627v-2.039c0-.358.022-.582.067-.672a.734.734 0 0 1 .325-.37c.14-.078.397-.128.756-.15v-.27h-4.76v.27h.251c.236.005.437.05.6.14.168.089.28.19.33.307.05.112.079.359.079.745v2.038a5.35 5.35 0 0 1-.768.224c-.246.051-.487.073-.722.073-.683 0-1.266-.168-1.764-.498-.493-.33-.846-.851-1.07-1.557-.218-.706-.33-1.529-.33-2.47 0-.778.1-1.534.302-2.268.202-.739.543-1.31 1.03-1.719.488-.414 1.06-.622 1.826-.622.767 0 1.473.241 2.117.734.644.493 1.126 1.21 1.45 2.15h.27v-3.444h.016l-.017-.005Z"/><path fill="#fff" fill-rule="evenodd" d="M82.09 63.089a3.152 3.152 0 0 0-1.639-.454h.003-.005.002c-.973 0-1.744.36-2.304 1.081-.56.717-.84 1.59-.84 2.526 0 .935.274 1.764.823 2.475.55.711 1.316 1.07 2.347 1.07 1.03 0 1.842-.392 2.43-1.17.487-.645.728-1.446.728-2.403 0-.661-.134-1.272-.397-1.832a2.873 2.873 0 0 0-1.148-1.293Zm-2.246.336a.841.841 0 0 1 .633-.28l.005.005c.202 0 .37.05.493.151.18.14.314.365.403.673.096.302.14.862.14 1.68 0 1.389-.05 2.313-.145 2.772a1.22 1.22 0 0 1-.375.683.824.824 0 0 1-.544.18.803.803 0 0 1-.593-.27c-.174-.179-.291-.437-.342-.778-.067-.448-.1-.93-.1-1.445 0-.974.027-1.73.078-2.274.056-.548.173-.912.347-1.097Z" clip-rule="evenodd"/><path fill="#fff" d="m86.816 69.787-2.274-5.237c-.274-.633-.487-1.03-.644-1.198-.112-.123-.274-.207-.492-.252v-.269h3.59v.269c-.225 0-.382.04-.466.123a.485.485 0 0 0-.173.375c0 .18.106.516.319 1.003l1.114 2.531.885-2.19c.258-.627.381-1.07.381-1.327a.433.433 0 0 0-.168-.358c-.106-.096-.297-.151-.571-.157v-.269h2.212v.269a.87.87 0 0 0-.52.24c-.135.13-.337.516-.606 1.149l-2.25 5.298h-.337Z"/><path fill="#fff" fill-rule="evenodd" d="M92.142 65.973h3.702c-.04-1.103-.314-1.932-.818-2.492-.498-.566-1.092-.846-1.775-.846-.818 0-1.535.336-2.145 1.003-.605.666-.907 1.562-.907 2.688 0 .918.207 1.685.621 2.307.516.767 1.272 1.154 2.274 1.154.582 0 1.098-.152 1.54-.46.448-.313.851-.845 1.215-1.59l-.246-.157c-.269.42-.52.711-.756.874-.24.162-.499.24-.79.24-.465 0-.868-.201-1.198-.599-.437-.52-.672-1.226-.717-2.122Zm1.798-2.078c.084.291.129.823.129 1.596v.006h-1.966v-.252c0-.75.14-1.333.425-1.764.163-.247.364-.37.616-.37a.61.61 0 0 1 .404.129c.179.145.308.364.392.655Z" clip-rule="evenodd"/><path fill="#fff" d="M99.047 62.837v1.529c.448-.7.84-1.16 1.176-1.384.336-.23.661-.347.975-.347.268 0 .481.084.644.252.162.163.246.398.246.7 0 .325-.078.571-.235.75a.72.72 0 0 1-.56.27.993.993 0 0 1-.667-.247 3.322 3.322 0 0 0-.33-.274.343.343 0 0 0-.168-.045c-.14 0-.275.05-.398.157-.196.162-.347.397-.448.7-.156.464-.23.98-.23 1.545v1.955c.006.274.023.448.057.526.056.129.14.224.252.291.117.056.308.096.576.107v.257h-3.645v-.257c.291-.023.493-.101.593-.241.107-.14.157-.504.157-1.092v-3.73c0-.386-.022-.633-.056-.733a.602.602 0 0 0-.207-.297c-.09-.062-.252-.107-.482-.13v-.268h2.756l-.006.006ZM105.269 63.71v-.879h-2.75v.269c.297.04.493.123.583.246.095.123.145.443.145.952v3.814c0 .52-.039.835-.123.94-.118.158-.319.247-.605.275v.258h3.416v-.258c-.252-.033-.431-.117-.526-.252-.09-.134-.134-.453-.134-.957V64.5c.352-.594.739-.89 1.153-.89.129 0 .241.039.342.123a.597.597 0 0 1 .224.33c.045.146.067.493.067 1.047v3.002c0 .476-.039.779-.118.896-.112.18-.291.286-.548.32v.257h3.416v-.258c-.303-.033-.499-.117-.594-.24-.095-.13-.14-.454-.14-.975v-2.626c0-.779-.039-1.305-.118-1.58a1.713 1.713 0 0 0-.576-.901c-.292-.247-.656-.37-1.092-.37a2.11 2.11 0 0 0-1.025.258c-.319.168-.65.442-.997.817ZM113.092 62.837v.005h-2.744v.27c.297.038.493.122.583.245.095.124.145.443.145.953v3.813c0 .521-.039.835-.123.941-.118.157-.319.247-.605.275v.257h3.478v-.258c-.302-.027-.498-.117-.594-.268-.089-.157-.134-.47-.134-.947V64.5c.258-.364.498-.616.722-.767a.963.963 0 0 1 .527-.151c.129 0 .246.044.358.128a.672.672 0 0 1 .247.359c.05.157.072.537.072 1.148v2.9c0 .398-.016.656-.056.773a.59.59 0 0 1-.218.303.828.828 0 0 1-.442.134v.258h3.494v-.258c-.308-.022-.521-.117-.633-.296-.084-.13-.123-.432-.123-.919V64.49c.219-.303.431-.527.644-.678.213-.151.42-.23.627-.23.135 0 .258.04.359.124.106.073.179.196.229.358.051.163.073.549.073 1.148v2.901c0 .47-.045.767-.129.896-.128.19-.33.297-.604.32v.257h3.488v-.258c-.302-.039-.498-.123-.593-.246-.09-.129-.135-.448-.135-.969v-2.766c0-.723-.056-1.25-.168-1.574a1.604 1.604 0 0 0-.576-.818c-.275-.218-.65-.325-1.115-.325-.386 0-.756.101-1.114.292-.353.196-.717.51-1.104.94-.156-.414-.386-.722-.677-.923-.297-.202-.661-.303-1.092-.303-.375 0-.723.084-1.042.247-.313.162-.655.442-1.025.845v-.885h.006l-.006-.005Z"/><path fill="#fff" fill-rule="evenodd" d="M124.03 65.973h3.701c-.039-1.103-.313-1.932-.817-2.492-.499-.566-1.092-.846-1.776-.846-.817 0-1.534.336-2.144 1.003-.605.666-.908 1.562-.908 2.688 0 .918.208 1.685.622 2.307.515.767 1.271 1.154 2.274 1.154.582 0 1.097-.152 1.54-.46.448-.313.851-.845 1.215-1.59l-.246-.157c-.269.42-.521.711-.757.874-.24.162-.498.24-.789.24-.465 0-.868-.201-1.199-.599-.436-.52-.672-1.226-.716-2.122Zm1.797-2.078c.084.291.129.823.129 1.596v.006h-1.966v-.252c0-.75.14-1.333.426-1.764.162-.247.364-.37.616-.37a.61.61 0 0 1 .403.129c.179.145.308.364.392.655Z" clip-rule="evenodd"/><path fill="#fff" d="M130.744 62.837v.873c.347-.375.678-.65.997-.817a2.11 2.11 0 0 1 1.025-.258c.437 0 .801.123 1.092.37.291.24.482.543.577.901.078.275.117.801.117 1.58v2.626c0 .52.045.846.14.975.096.123.292.207.594.24v.258h-3.416v-.258c.257-.033.437-.14.549-.319.078-.117.117-.42.117-.896V65.11c0-.554-.022-.901-.067-1.047a.597.597 0 0 0-.224-.33.514.514 0 0 0-.342-.123c-.414 0-.8.296-1.153.89v3.618c0 .504.045.823.14.957.095.135.274.219.526.252v.258H128v-.258c.286-.028.487-.117.605-.274.084-.106.123-.42.123-.94v-3.815c0-.51-.05-.829-.145-.952-.09-.123-.286-.207-.583-.246v-.269h2.75l-.006.006ZM138.147 62.837v-2.47h-.235a8.241 8.241 0 0 1-1.12 1.58c-.425.47-.941.923-1.545 1.349v.252h.879v3.646c0 .722.022 1.165.073 1.327.084.291.274.56.565.8.303.236.667.354 1.092.354.874 0 1.507-.46 1.899-1.384l-.219-.156c-.28.475-.577.716-.89.716a.426.426 0 0 1-.252-.1.567.567 0 0 1-.196-.275c-.034-.112-.051-.364-.051-.756v-4.166h1.602v-.717h-1.602Z"/></svg>