<svg width="207" height="90" fill="none" xmlns="http://www.w3.org/2000/svg"><path d="M28.875 32.304h8.101l.027 1.453h-8.29l.162-1.453Zm3.66-10.013.43.754-5.355 15.584c0 .09.107.18.323.269.233.072.52.126.86.161.36.036.71.054 1.05.054h.431v1.238h-6.163v-1.238h.134c.503 0 .897-.072 1.184-.215.288-.144.52-.467.7-.969l5.787-16.687h2.692l5.975 17.118c.125.34.332.556.619.646.305.071.682.107 1.13.107h.135v1.238h-6.971v-1.238h.457c.341 0 .682-.009 1.023-.027.359-.017.655-.044.888-.08.252-.054.377-.108.377-.162l-5.706-16.553ZM58.105 28.563a22.816 22.816 0 0 0-2.018-.108c-.556 0-1.014.054-1.373.161a1.668 1.668 0 0 0-.888.646l-.35-.403c.251-.52.538-.96.861-1.32.341-.376.7-.681 1.077-.914a3.577 3.577 0 0 1 1.265-.458c.448-.09.924-.108 1.426-.054v2.45Zm-7.859 7.697c-1.04 0-1.974-.197-2.8-.592a4.8 4.8 0 0 1-1.91-1.722c-.467-.736-.7-1.597-.7-2.584 0-.987.233-1.848.7-2.584a4.927 4.927 0 0 1 1.938-1.75c.825-.43 1.75-.645 2.772-.645 1.04 0 1.965.215 2.772.645a4.696 4.696 0 0 1 1.938 1.75c.485.736.727 1.597.727 2.584 0 .987-.242 1.848-.727 2.584-.466.735-1.112 1.31-1.938 1.722-.807.395-1.731.592-2.772.592Zm0-1.507c.628 0 1.166-.126 1.615-.377a2.69 2.69 0 0 0 1.077-1.157c.25-.502.376-1.122.376-1.857 0-.718-.125-1.337-.376-1.857a2.662 2.662 0 0 0-1.077-1.185c-.449-.269-.987-.403-1.615-.403-.61 0-1.148.134-1.615.403-.448.27-.798.664-1.05 1.185-.25.52-.376 1.139-.376 1.857 0 .735.125 1.355.377 1.857.25.502.6.888 1.05 1.157.466.252 1.004.377 1.614.377Zm-.404 11.977c-1.202 0-2.287-.116-3.256-.35-.97-.215-1.74-.583-2.315-1.103-.574-.52-.861-1.211-.861-2.073 0-.43.116-.834.35-1.21.233-.36.574-.7 1.022-1.023.449-.306 1.023-.62 1.723-.943l.969.7c-.467.215-.843.449-1.13.7-.288.251-.494.511-.62.78a2.195 2.195 0 0 0-.188.889c0 .43.152.798.457 1.103.306.305.772.539 1.4.7.646.18 1.471.27 2.476.27h.915c.934 0 1.75-.117 2.45-.35.717-.234 1.274-.557 1.668-.97.413-.394.62-.843.62-1.345 0-.52-.198-.898-.593-1.13-.377-.234-1.094-.35-2.153-.35h-6.083l-.107-.028c-.557-.287-1.005-.565-1.346-.834-.323-.287-.556-.583-.7-.888a2.52 2.52 0 0 1-.188-.97c0-.43.107-.834.323-1.21.215-.377.538-.736.969-1.077.43-.359.969-.69 1.614-.996l1.023.7c-.359.18-.681.368-.969.565-.269.198-.475.413-.619.646a1.365 1.365 0 0 0-.188.7c0 .377.188.655.565.834.395.162.951.243 1.669.243h4.091c1.077 0 1.974.125 2.692.376.735.234 1.282.602 1.641 1.104.377.484.566 1.103.566 1.857 0 1.059-.323 1.938-.97 2.638-.627.7-1.462 1.21-2.502 1.534-1.041.34-2.19.511-3.446.511h-.969ZM61.252 33.623c0 .86.117 1.641.35 2.341.234.682.556 1.256.97 1.723.412.466.896.825 1.453 1.076a4.33 4.33 0 0 0 1.803.377c.736 0 1.364-.143 1.884-.43a5.065 5.065 0 0 0 1.373-1.05c.376-.43.69-.861.942-1.292l1.238 1.103a7.168 7.168 0 0 1-1.292 1.589 5.66 5.66 0 0 1-1.803 1.157c-.682.269-1.48.404-2.396.404-1.31 0-2.494-.288-3.553-.862a6.558 6.558 0 0 1-2.503-2.449c-.61-1.059-.915-2.306-.915-3.741 0-1.418.287-2.665.861-3.741.592-1.077 1.373-1.92 2.342-2.53.987-.61 2.081-.915 3.284-.915.986 0 1.848.16 2.583.484a4.69 4.69 0 0 1 1.884 1.453c.52.628.916 1.427 1.185 2.396.269.95.404 2.063.404 3.337H60.767V32.6h8.774l-.754.565c-.017-.897-.098-1.678-.242-2.341-.143-.665-.359-1.212-.646-1.642a2.778 2.778 0 0 0-1.076-.97c-.43-.215-.942-.322-1.534-.322-.557 0-1.086.134-1.588.403-.485.252-.916.628-1.292 1.13-.36.503-.646 1.104-.862 1.804-.197.7-.296 1.498-.296 2.396ZM86.948 38.198c0 .395.207.655.62.78.43.126.969.19 1.614.19h.027v1.183h-4.44V37.31l-.216-.054V23.018c0-.27-.072-.475-.215-.619-.144-.143-.368-.26-.673-.35a9.13 9.13 0 0 0-1.158-.242l-.296-.054v-1.211h4.737v17.656Zm-6.755-11.816c.718 0 1.355.108 1.91.323.575.198 1.104.52 1.589.97.484.43.942.995 1.372 1.695l-.026 2.288c-.377-.88-.808-1.597-1.292-2.153-.467-.557-.987-.96-1.561-1.212a4.448 4.448 0 0 0-1.912-.403c-.645 0-1.22.134-1.722.403-.502.27-.924.655-1.265 1.158-.341.502-.601 1.103-.78 1.803-.18.7-.27 1.49-.27 2.369 0 .825.09 1.579.27 2.26.179.682.43 1.265.753 1.75.34.484.754.852 1.238 1.103.502.252 1.068.377 1.696.377.718 0 1.364-.143 1.938-.43a4.996 4.996 0 0 0 1.588-1.32c.484-.591.924-1.309 1.319-2.152l.026 2.126c-.466.736-.95 1.346-1.453 1.83a5.08 5.08 0 0 1-1.615 1.104c-.574.233-1.238.35-1.992.35-1.238 0-2.332-.288-3.283-.862-.933-.592-1.669-1.408-2.207-2.449-.539-1.059-.808-2.288-.808-3.687 0-1.436.27-2.692.808-3.768.556-1.095 1.319-1.947 2.288-2.557.986-.61 2.117-.915 3.39-.915ZM106.747 22.587a5.36 5.36 0 0 0-2.476.593 6.274 6.274 0 0 0-1.992 1.668c-.574.718-1.022 1.58-1.345 2.584-.323 1.005-.485 2.126-.485 3.365 0 1.238.153 2.36.458 3.364.323 1.005.771 1.866 1.345 2.584a5.94 5.94 0 0 0 2.1 1.669c.825.394 1.749.592 2.772.592 1.059 0 1.992-.243 2.799-.727a6.27 6.27 0 0 0 2.073-1.992 8.894 8.894 0 0 0 1.211-2.799l1.588.592c-.305 1.274-.817 2.405-1.534 3.392a7.364 7.364 0 0 1-2.665 2.314c-1.059.556-2.27.835-3.633.835-1.346 0-2.584-.234-3.715-.7a8.923 8.923 0 0 1-2.907-2.019c-.825-.88-1.462-1.92-1.91-3.122-.45-1.202-.673-2.53-.673-3.983 0-1.436.233-2.755.7-3.957.466-1.202 1.112-2.243 1.937-3.122a8.55 8.55 0 0 1 2.853-2.019 8.363 8.363 0 0 1 3.472-.727c1.221 0 2.27.189 3.149.566a5.53 5.53 0 0 1 2.181 1.56c.592.665 1.031 1.463 1.318 2.396l-.969-.027.431-4.225h1.561v5.76h-1.749c-.287-.898-.691-1.67-1.211-2.315a5.629 5.629 0 0 0-1.938-1.534c-.772-.377-1.687-.566-2.746-.566ZM126.148 32.062v1.318c-.898.09-1.705.207-2.423.35-.7.144-1.31.314-1.83.512-.502.197-.915.43-1.238.7-.323.269-.565.574-.727.915-.161.34-.242.717-.242 1.13 0 .449.099.834.296 1.157.197.323.476.575.834.754.359.18.772.27 1.239.27.628 0 1.184-.144 1.668-.431.503-.306.942-.736 1.319-1.292a8.95 8.95 0 0 0 1.023-1.938l.027 1.803a5.956 5.956 0 0 1-1.077 1.75 4.586 4.586 0 0 1-1.588 1.157c-.592.269-1.265.404-2.018.404a5.178 5.178 0 0 1-2.127-.431 3.853 3.853 0 0 1-1.534-1.238c-.377-.556-.565-1.202-.565-1.938s.188-1.373.565-1.911c.395-.556.969-1.032 1.723-1.427.753-.394 1.686-.717 2.799-.968 1.112-.27 2.404-.485 3.876-.646Zm-.458 8.29v-2.854l-.269-.08v-6.514c0-.753-.108-1.355-.323-1.803-.197-.449-.502-.763-.915-.942-.395-.18-.879-.27-1.454-.27-.879 0-1.606.18-2.18.539a5.163 5.163 0 0 0-1.372 1.265c-.018-.215 0-.413.053-.592.054-.18.135-.341.243-.485.107-.161.233-.287.376-.376.162-.108.332-.198.512-.27v2.773h-2.342v-2.746a8.013 8.013 0 0 1 1.077-.7 8.088 8.088 0 0 1 1.669-.645 7.925 7.925 0 0 1 2.126-.27c.646 0 1.256.081 1.83.243a4.443 4.443 0 0 1 1.561.726c.467.323.835.763 1.104 1.32.269.538.403 1.201.403 1.991v7.536c0 .251.099.449.297.592.197.144.457.243.78.296.323.054.7.081 1.13.081v1.184h-4.306ZM140.763 26.463v2.396a1.561 1.561 0 0 0-.458-.108 5.155 5.155 0 0 0-1.022-.108c-.485 0-.907.072-1.265.216a2.774 2.774 0 0 0-.942.592c-.27.269-.521.61-.754 1.023-.233.412-.485.906-.754 1.48l-.027-1.723c.288-.771.628-1.435 1.023-1.991.413-.575.888-1.023 1.427-1.346a3.482 3.482 0 0 1 1.857-.511c.179 0 .35.008.511.026.18 0 .314.018.404.054Zm-9.393 13.888v-1.184h.053c.628 0 1.149-.063 1.561-.188.413-.126.62-.386.62-.78v-9.071c0-.27-.072-.467-.216-.592-.143-.144-.359-.26-.646-.35-.287-.09-.655-.18-1.103-.27l-.269-.053v-1.211h4.387v3.956l.242-.242v7.913c0 .27.126.466.377.592.269.126.574.206.915.242.359.036.664.054.915.054h.458v1.184h-7.294ZM144.81 33.623c0 .86.117 1.641.35 2.341.233.682.556 1.256.969 1.723.413.466.897.825 1.453 1.076a4.336 4.336 0 0 0 1.804.377c.735 0 1.363-.143 1.884-.43a5.054 5.054 0 0 0 1.372-1.05c.377-.43.691-.861.942-1.292l1.239 1.103a7.182 7.182 0 0 1-1.292 1.589 5.668 5.668 0 0 1-1.804 1.157c-.682.269-1.48.404-2.395.404-1.31 0-2.494-.288-3.553-.862a6.555 6.555 0 0 1-2.503-2.449c-.61-1.059-.915-2.306-.915-3.741 0-1.418.287-2.665.861-3.741.592-1.077 1.373-1.92 2.342-2.53.987-.61 2.081-.915 3.283-.915.987 0 1.849.16 2.584.484a4.685 4.685 0 0 1 1.884 1.453c.521.628.915 1.427 1.185 2.396.269.95.403 2.063.403 3.337h-10.577V32.6h8.774l-.754.565c-.018-.897-.098-1.678-.242-2.341-.143-.665-.359-1.212-.646-1.642a2.78 2.78 0 0 0-1.076-.97c-.431-.215-.943-.322-1.535-.322-.556 0-1.085.134-1.588.403-.484.252-.915.628-1.292 1.13-.358.503-.646 1.104-.861 1.804-.197.7-.296 1.498-.296 2.396ZM31.835 67.144V52.151h1.642c.7 0 1.301.134 1.804.404.502.269.879.681 1.13 1.238.27.538.404 1.229.404 2.072s-.135 1.561-.404 2.153a2.924 2.924 0 0 1-1.184 1.32c-.503.286-1.122.43-1.857.43H31v2.045h3.418c1.561 0 2.907-.242 4.038-.726 1.13-.503 2-1.203 2.61-2.1.61-.915.915-1.983.915-3.203 0-1.794-.655-3.194-1.965-4.198-1.291-1.005-3.113-1.508-5.463-1.508h-9.797v1.777h.269c.466 0 .852.063 1.157.188.305.126.458.386.458.78v13.62c0 .394-.153.655-.458.78-.305.126-.69.189-1.157.189h-.27v1.776h9.233v-1.776h-1.185c-.18-.018-.34-.036-.484-.054a7.78 7.78 0 0 0-.35-.08c-.09-.037-.135-.082-.135-.135ZM54.526 55.355v4.172a5.949 5.949 0 0 0-1.588-.216c-.412 0-.798.045-1.157.135-.359.072-.69.197-.996.377a2.741 2.741 0 0 0-.78.672 5.255 5.255 0 0 0-.647 1.05v-1.56c.252-.934.548-1.75.889-2.45.34-.718.771-1.283 1.292-1.696.52-.413 1.184-.619 1.991-.619.216 0 .413.018.593.054.179.018.314.045.403.08ZM43.572 69.189V67.52h.027c.412 0 .753-.053 1.023-.161.269-.108.403-.323.403-.646V58.1c0-.197-.045-.35-.134-.458a.813.813 0 0 0-.404-.242 5.586 5.586 0 0 0-.7-.215l-.215-.054v-1.723H49.6v4.36l.323-.322v7.59c0 .143.099.251.296.323.197.072.43.116.7.134.287.018.538.027.753.027h.216v1.669h-8.317ZM71.49 62.299c0 1.4-.324 2.646-.97 3.741-.628 1.077-1.534 1.92-2.718 2.53-1.166.592-2.548.888-4.145.888-1.597 0-2.988-.296-4.172-.888-1.166-.61-2.072-1.453-2.718-2.53-.628-1.095-.942-2.342-.942-3.741 0-1.059.18-2.028.538-2.907.359-.88.88-1.633 1.561-2.26A7.173 7.173 0 0 1 60.4 55.65c.97-.341 2.055-.512 3.257-.512s2.279.17 3.23.512c.969.34 1.794.834 2.476 1.48a6.09 6.09 0 0 1 1.588 2.26c.359.88.538 1.85.538 2.908Zm-10.605 0c0 1.112.107 2.054.323 2.826.215.754.53 1.328.942 1.722a2.1 2.1 0 0 0 1.507.593c.61 0 1.112-.198 1.507-.593.413-.394.727-.968.942-1.722.216-.772.323-1.714.323-2.826 0-1.13-.107-2.073-.323-2.826-.215-.754-.53-1.32-.942-1.696-.395-.377-.897-.565-1.507-.565-.592 0-1.094.188-1.507.565-.413.377-.727.942-.942 1.696-.216.753-.323 1.695-.323 2.826ZM84.032 57.615c0-.107-.09-.206-.269-.296a1.801 1.801 0 0 0-.619-.188 3.343 3.343 0 0 0-.753-.08h-.054v-1.643h5.194v1.642h-.053c-.198 0-.395.036-.593.108-.179.072-.34.188-.484.35-.144.161-.27.386-.377.673l-3.849 11.008h-4.764l-3.956-11.224a1.53 1.53 0 0 0-.323-.538.964.964 0 0 0-.485-.296 2.377 2.377 0 0 0-.673-.08h-.026v-1.643h8.047v1.642h-.054c-.269 0-.538.01-.807.027-.27.018-.494.045-.673.081-.18.018-.27.063-.27.135l3.338 9.877-.592-.565 3.095-8.99ZM92.235 53.524c-.825 0-1.48-.197-1.964-.592-.467-.395-.7-.942-.7-1.642s.233-1.238.7-1.614c.484-.395 1.139-.593 1.964-.593.808 0 1.445.198 1.911.593.485.376.727.915.727 1.614 0 .7-.242 1.248-.727 1.642-.466.395-1.103.592-1.91.592Zm2.53 1.884v11.305c0 .323.135.538.404.646.27.108.601.161.996.161h.027v1.669h-7.805V67.52h.026c.413 0 .754-.053 1.023-.161.27-.108.404-.323.404-.646V58.1c0-.287-.099-.485-.296-.592-.197-.126-.511-.233-.942-.323l-.216-.054v-1.723h6.38ZM112.746 66.632c0 .287.107.485.323.592.233.09.565.162.995.216l.108.026v1.723h-6.029v-3.176l-.323.215V52.071c0-.197-.054-.35-.161-.457-.09-.108-.234-.189-.431-.243a5.3 5.3 0 0 0-.727-.215l-.215-.054V49.38h6.46v17.252Zm-8.882-11.493c.825 0 1.543.126 2.153.377.61.251 1.148.628 1.615 1.13.466.503.879 1.131 1.238 1.885l-.081 2.691c-.377-.825-.745-1.507-1.103-2.045-.359-.557-.736-.96-1.131-1.212-.377-.269-.825-.403-1.346-.403-.448 0-.843.116-1.184.35-.323.215-.601.538-.834.969-.216.412-.377.924-.485 1.534-.089.61-.134 1.292-.134 2.045 0 .718.045 1.364.134 1.938.108.574.26 1.059.458 1.454.215.394.475.69.78.888.323.197.691.296 1.104.296.502 0 .951-.144 1.346-.43.394-.306.78-.754 1.157-1.347.377-.592.789-1.354 1.238-2.287l.054 2.664c-.431.844-.888 1.552-1.373 2.127a4.986 4.986 0 0 1-1.642 1.264c-.592.288-1.309.431-2.153.431-1.238 0-2.324-.287-3.257-.861-.915-.592-1.632-1.409-2.153-2.45-.502-1.058-.753-2.287-.753-3.687 0-1.435.269-2.7.807-3.795.538-1.112 1.283-1.974 2.234-2.584.969-.628 2.072-.942 3.311-.942ZM120.389 62.353c0 .79.072 1.498.216 2.126.143.61.358 1.13.646 1.561.305.413.69.727 1.157.942.466.197 1.005.296 1.615.296.646 0 1.202-.117 1.669-.35a4.106 4.106 0 0 0 1.184-.942 6.34 6.34 0 0 0 .834-1.211l1.696 1.211a6.328 6.328 0 0 1-1.346 1.803c-.556.52-1.229.933-2.019 1.239-.771.287-1.695.43-2.772.43-1.561 0-2.934-.287-4.118-.861-1.166-.574-2.072-1.39-2.718-2.45-.646-1.076-.969-2.35-.969-3.821 0-1.436.314-2.692.942-3.768a6.727 6.727 0 0 1 2.611-2.504c1.112-.61 2.368-.915 3.768-.915 1.13 0 2.117.17 2.96.512a5.217 5.217 0 0 1 2.154 1.48c.574.646 1.013 1.471 1.318 2.476.305.987.458 2.145.458 3.472h-9.878v-1.91h5.895l-.593.78c-.018-.915-.071-1.678-.161-2.288-.09-.61-.224-1.086-.404-1.426-.179-.36-.404-.62-.673-.781-.269-.161-.592-.242-.969-.242-.376 0-.717.098-1.022.296-.288.197-.548.511-.781.942-.215.413-.386.942-.511 1.588-.126.646-.189 1.417-.189 2.315ZM142.027 55.355v4.172a5.93 5.93 0 0 0-1.588-.216c-.413 0-.799.045-1.158.135-.359.072-.69.197-.996.377a2.735 2.735 0 0 0-.78.672 5.25 5.25 0 0 0-.646 1.05v-1.56c.251-.934.547-1.75.888-2.45.341-.718.772-1.283 1.292-1.696.52-.413 1.184-.619 1.992-.619.215 0 .413.018.592.054.179.018.314.045.404.08Zm-10.955 13.834V67.52h.027c.413 0 .754-.053 1.023-.161.269-.108.404-.323.404-.646V58.1c0-.197-.045-.35-.135-.458a.812.812 0 0 0-.404-.242 5.552 5.552 0 0 0-.699-.215l-.216-.054v-1.723h6.029v4.36l.323-.322v7.59c0 .143.099.251.296.323.198.072.431.116.7.134.287.018.538.027.754.027h.215v1.669h-8.317ZM154.355 58.315h11.52v2.073h-11.52v-2.073Zm-4.118 10.874v-1.776h.269c.467 0 .853-.063 1.158-.189.305-.125.457-.386.457-.78v-13.62c0-.394-.152-.654-.457-.78-.305-.125-.691-.188-1.158-.188h-.269v-1.777h8.936v1.777h-.215c-.18 0-.368.009-.565.027-.18 0-.359.018-.539.053a1.988 1.988 0 0 0-.403.081c-.09.018-.135.054-.135.108v15.019c0 .053.045.098.135.134.107.018.242.045.403.08l.539.055H159.173v1.776h-8.936Zm11.601 0v-1.776H162.618c.198-.018.377-.036.539-.054.161-.036.287-.063.376-.08.108-.037.162-.082.162-.135v-15.02c0-.053-.054-.089-.162-.107a1.492 1.492 0 0 0-.376-.08 2.498 2.498 0 0 0-.539-.054 5.693 5.693 0 0 0-.565-.027h-.215v-1.777h8.936v1.777h-.27c-.466 0-.852.063-1.157.188-.305.126-.458.386-.458.78v13.62c0 .394.153.655.458.78.305.126.691.189 1.157.189h.27v1.776h-8.936ZM178.185 55.408v9.367c0 .466.045.852.135 1.157.108.305.269.53.485.673.215.126.502.189.861.189.413 0 .789-.108 1.13-.323.359-.216.709-.548 1.05-.996.341-.467.673-1.077.996-1.83l.054 2.53c-.377.735-.817 1.345-1.319 1.83a5.224 5.224 0 0 1-1.696 1.103 5.91 5.91 0 0 1-2.072.35c-.897 0-1.687-.17-2.369-.511a3.805 3.805 0 0 1-1.588-1.561c-.377-.7-.565-1.561-.565-2.584V58.1c0-.287-.099-.485-.296-.592-.198-.126-.512-.233-.942-.323l-.242-.054v-1.723h6.378Zm9.017 0v11.224c0 .18.054.323.162.43.107.108.26.19.457.243.197.054.44.099.727.135l.134.026v1.723h-6.056v-3.095l-.323.108V58.1c0-.287-.134-.493-.403-.619s-.619-.215-1.05-.27l-.404-.08v-1.723h6.756ZM199.885 69.458c-.789 0-1.489-.099-2.099-.296a4.535 4.535 0 0 1-1.588-.915c-.467-.413-.897-.951-1.292-1.615l.081-3.337c.376.771.735 1.444 1.076 2.018.341.556.709.987 1.104 1.292.395.287.861.43 1.399.43.449 0 .835-.107 1.158-.322.341-.233.619-.565.834-.996.215-.43.377-.942.485-1.534.107-.61.161-1.292.161-2.046 0-.735-.054-1.381-.161-1.938-.108-.574-.261-1.058-.458-1.453s-.449-.69-.754-.888a1.937 1.937 0 0 0-1.076-.296c-.503 0-.96.143-1.373.43-.395.287-.789.727-1.184 1.32-.377.591-.79 1.345-1.238 2.26l-.054-2.691c.52-.88 1.032-1.588 1.534-2.127.502-.556 1.041-.96 1.615-1.21.592-.27 1.283-.405 2.072-.405 1.221 0 2.288.296 3.203.889.933.574 1.651 1.39 2.154 2.449.502 1.04.753 2.26.753 3.66 0 1.436-.269 2.71-.807 3.822-.539 1.095-1.283 1.956-2.234 2.584-.951.61-2.055.915-3.311.915Zm-8.855-17.387c0-.197-.045-.35-.134-.457a.817.817 0 0 0-.404-.243 5.644 5.644 0 0 0-.7-.215l-.242-.054V49.38h6.379v16.794l-.566.189-1.399 2.853h-2.934V52.071Z" fill="#fff"/><path d="M2.033 90V0h-3.845v90h3.845Z" fill="#fff" mask="url(#path-1-inside-1_1685_28411)"/></svg>