<svg width="252" height="90" fill="none" xmlns="http://www.w3.org/2000/svg"><path d="M30.31 29.03h9l.03 1.62h-9.21l.18-1.62Zm4.05-11.16.51.84-5.97 17.37c0 .1.12.2.36.3.26.08.58.14.96.18.38.04.76.06 1.14.06h.48V38H25v-1.38h.15c.56 0 1-.08 1.32-.24.32-.16.58-.52.78-1.08l6.45-18.6h2.97l6.69 19.08c.14.38.37.62.69.72.34.08.76.12 1.26.12h.15V38h-7.77v-1.38h.51c.38 0 .76-.01 1.14-.03.4-.02.73-.05.99-.09.28-.06.42-.12.42-.18l-6.39-18.45Zm16.395 4.86v10.41c0 .78.08 1.42.24 1.92.18.48.45.84.81 1.08.38.22.89.33 1.53.33.66 0 1.28-.13 1.86-.39.58-.26 1.13-.64 1.65-1.14.52-.52 1.01-1.16 1.47-1.92l.03 1.98c-.52.72-1.05 1.33-1.59 1.83-.54.48-1.13.85-1.77 1.11-.62.24-1.33.36-2.13.36-.94 0-1.77-.17-2.49-.51-.72-.34-1.28-.87-1.68-1.59-.4-.72-.6-1.63-.6-2.73v-7.98c0-.44-.18-.74-.54-.9-.34-.18-.89-.33-1.65-.45l-.36-.06v-1.35h5.22Zm9.72 0V35.6c0 .28.1.5.3.66.22.16.51.27.87.33.38.06.81.09 1.29.09h.09V38h-4.95v-3.12l-.27-.39v-9c0-.44-.19-.74-.57-.9-.36-.18-.93-.32-1.71-.42l-.66-.09v-1.35h5.61Zm13.441 11.34c0-.42-.11-.77-.33-1.05-.22-.3-.52-.54-.9-.72-.36-.2-.78-.36-1.26-.48a22.2 22.2 0 0 0-1.47-.39c-.62-.18-1.24-.37-1.86-.57-.6-.2-1.15-.46-1.65-.78-.5-.34-.9-.76-1.2-1.26-.3-.52-.45-1.18-.45-1.98 0-.86.22-1.62.66-2.28.44-.68 1.07-1.2 1.89-1.56.84-.38 1.85-.57 3.03-.57.9 0 1.69.07 2.37.21.7.14 1.28.32 1.74.54.46.2.8.39 1.02.57v3.24h-2.55v-2.82c.2-.02.37.01.51.09.16.08.28.19.36.33.1.12.16.27.18.45.02.18 0 .37-.06.57a2.69 2.69 0 0 0-.87-.84c-.36-.24-.77-.41-1.23-.51-.44-.12-.93-.18-1.47-.18-1.06 0-1.85.23-2.37.69-.52.46-.78 1.04-.78 1.74 0 .46.11.84.33 1.14.24.3.56.55.96.75.4.18.84.34 1.32.48.5.14 1.02.28 1.56.42.6.16 1.2.34 1.8.54.6.2 1.14.46 1.62.78.48.32.86.73 1.14 1.23.3.5.45 1.13.45 1.89 0 .86-.24 1.64-.72 2.34-.48.68-1.16 1.22-2.04 1.62-.88.4-1.95.6-3.21.6-.96 0-1.83-.08-2.61-.24-.76-.14-1.44-.34-2.04-.6-.6-.26-1.13-.54-1.59-.84v-3.39h2.61v3.78c-.3-.18-.53-.35-.69-.51-.14-.18-.24-.36-.3-.54-.06-.18-.08-.36-.06-.54.02-.18.06-.37.12-.57.32.42.71.76 1.17 1.02.46.26.97.46 1.53.6.56.12 1.17.18 1.83.18.72 0 1.34-.1 1.86-.3.54-.2.95-.49 1.23-.87.28-.4.42-.87.42-1.41Zm3.319-9.69v-1.5h.15c.6 0 1.11-.04 1.53-.12.44-.1.77-.26.99-.48.22-.22.33-.54.33-.96l1.86 1.41h5.04v1.65h-9.9Zm5.43 8.49c0 .88.11 1.59.33 2.13.24.54.56.94.96 1.2.42.24.91.36 1.47.36.42 0 .81-.04 1.17-.12.36-.08.67-.16.93-.24v1.65c-.18.08-.4.15-.66.21-.24.08-.51.14-.81.18-.28.04-.58.06-.9.06-.88 0-1.72-.16-2.52-.48-.78-.32-1.42-.87-1.92-1.65-.48-.8-.72-1.9-.72-3.3v-9.69l.24-.21v-4.41h2.43v14.31Zm16.651-10.35v2.67c-.14-.06-.31-.1-.51-.12a5.739 5.739 0 0 0-1.14-.12c-.54 0-1.01.08-1.41.24-.4.14-.75.36-1.05.66-.3.3-.58.68-.84 1.14-.26.44-.54.98-.84 1.62l-.03-1.89c.32-.86.7-1.6 1.14-2.22.46-.64.99-1.14 1.59-1.5.62-.38 1.31-.57 2.07-.57.2 0 .39.01.57.03.2 0 .35.02.45.06ZM88.846 38v-1.32h.06c.7 0 1.28-.07 1.74-.21.46-.14.69-.43.69-.87V25.49c0-.3-.08-.52-.24-.66-.16-.16-.4-.29-.72-.39-.32-.1-.73-.2-1.23-.3l-.3-.06v-1.35h4.89v4.38l.27-.27v8.85c0 .3.14.52.42.66.3.14.64.23 1.02.27.38.04.72.06 1.02.06h.51V38h-8.13Zm22.001-9.24v1.47c-1 .1-1.9.23-2.7.39-.78.16-1.46.35-2.04.57-.56.22-1.02.48-1.38.78-.36.28-.63.62-.81 1.02-.18.38-.27.8-.27 1.26 0 .5.11.93.33 1.29.22.36.53.65.93.87.4.2.86.3 1.38.3.7 0 1.32-.17 1.86-.51.56-.34 1.05-.81 1.47-1.41.44-.62.81-1.34 1.11-2.16l.06 1.98c-.3.74-.7 1.39-1.2 1.95s-1.09.99-1.77 1.29c-.66.3-1.41.45-2.25.45-.86 0-1.65-.16-2.37-.48-.7-.32-1.27-.78-1.71-1.38-.42-.62-.63-1.34-.63-2.16 0-.82.21-1.53.63-2.13.42-.62 1.05-1.15 1.89-1.59.86-.44 1.91-.8 3.15-1.08 1.24-.3 2.68-.54 4.32-.72Zm-.51 9.24v-3.18l-.3-.09v-7.26c0-.86-.12-1.53-.36-2.01-.22-.5-.56-.85-1.02-1.05-.44-.22-.98-.33-1.62-.33-.98 0-1.79.21-2.43.63-.64.4-1.15.87-1.53 1.41-.04-.24-.03-.46.03-.66.06-.22.15-.41.27-.57.14-.16.29-.3.45-.42.18-.12.37-.21.57-.27v3.09h-2.61v-3.06c.3-.24.7-.5 1.2-.78.52-.28 1.14-.52 1.86-.72.72-.2 1.51-.3 2.37-.3.72 0 1.4.08 2.04.24.64.16 1.22.43 1.74.81.52.38.93.88 1.23 1.5.3.6.45 1.34.45 2.22v8.4c0 .28.11.5.33.66.22.16.51.27.87.33s.78.09 1.26.09V38h-4.8Zm10.951-22.08V35.6c0 .44.22.73.66.87.46.14 1.05.21 1.77.21h.06V38h-7.68v-1.32h.06c.72 0 1.31-.07 1.77-.21.46-.14.69-.43.69-.87V18.68c0-.3-.08-.53-.24-.69-.16-.16-.4-.29-.72-.39-.32-.1-.74-.19-1.26-.27l-.33-.06v-1.35h5.22Zm7.428 3.45c-.52 0-.96-.16-1.32-.48-.34-.34-.51-.79-.51-1.35s.17-1 .51-1.32c.36-.32.8-.48 1.32-.48s.95.16 1.29.48c.36.32.54.76.54 1.32s-.18 1.01-.54 1.35c-.34.32-.77.48-1.29.48Zm1.47 3.36V35.6c0 .44.23.73.69.87.48.14 1.08.21 1.8.21h.03V38h-7.68v-1.32h.03c.7 0 1.28-.07 1.74-.21.48-.14.72-.43.72-.87V25.49c0-.44-.18-.74-.54-.9-.36-.16-.91-.31-1.65-.45l-.33-.06v-1.35h5.19Zm14.321 6.03v1.47c-1 .1-1.9.23-2.7.39-.78.16-1.46.35-2.04.57-.56.22-1.02.48-1.38.78-.36.28-.63.62-.81 1.02-.18.38-.27.8-.27 1.26 0 .5.11.93.33 1.29.22.36.53.65.93.87.4.2.86.3 1.38.3.7 0 1.32-.17 1.86-.51.56-.34 1.05-.81 1.47-1.41.44-.62.81-1.34 1.11-2.16l.06 1.98c-.3.74-.7 1.39-1.2 1.95s-1.09.99-1.77 1.29c-.66.3-1.41.45-2.25.45-.86 0-1.65-.16-2.37-.48-.7-.32-1.27-.78-1.71-1.38-.42-.62-.63-1.34-.63-2.16 0-.82.21-1.53.63-2.13.42-.62 1.05-1.15 1.89-1.59.86-.44 1.91-.8 3.15-1.08 1.24-.3 2.68-.54 4.32-.72Zm-.51 9.24v-3.18l-.3-.09v-7.26c0-.86-.12-1.53-.36-2.01-.22-.5-.56-.85-1.02-1.05-.44-.22-.98-.33-1.62-.33-.98 0-1.79.21-2.43.63-.64.4-1.15.87-1.53 1.41-.04-.24-.03-.46.03-.66.06-.22.15-.41.27-.57.14-.16.29-.3.45-.42.18-.12.37-.21.57-.27v3.09h-2.61v-3.06c.3-.24.7-.5 1.2-.78.52-.28 1.14-.52 1.86-.72.72-.2 1.51-.3 2.37-.3.72 0 1.4.08 2.04.24.64.16 1.22.43 1.74.81.52.38.93.88 1.23 1.5.3.6.45 1.34.45 2.22v8.4c0 .28.11.5.33.66.22.16.51.27.87.33s.78.09 1.26.09V38h-4.8Zm5.88 0v-1.32h.06c.46 0 .87-.03 1.23-.09.38-.06.67-.17.87-.33.22-.16.33-.38.33-.66V25.49c0-.3-.08-.52-.24-.66-.16-.16-.4-.29-.72-.39-.32-.1-.73-.2-1.23-.3l-.3-.06v-1.35h4.89v3.18l.27.33v10.14c0 .06.12.12.36.18.24.04.53.07.87.09.34.02.65.03.93.03h.09V38h-7.41Zm17.49 0h-7.41v-1.32h.06c.28 0 .59-.01.93-.03.34-.02.63-.05.87-.09.26-.06.39-.12.39-.18v-8.82c0-.76-.09-1.38-.27-1.86-.16-.5-.43-.86-.81-1.08-.36-.24-.86-.36-1.5-.36-.66 0-1.29.14-1.89.42-.6.26-1.17.65-1.71 1.17-.52.5-1.02 1.14-1.5 1.92l-.03-1.95c.54-.74 1.08-1.36 1.62-1.86.56-.52 1.16-.9 1.8-1.14.66-.26 1.39-.39 2.19-.39.96 0 1.79.17 2.49.51.72.34 1.28.87 1.68 1.59.4.7.6 1.61.6 2.73v8.34c0 .28.1.5.3.66.2.16.48.27.84.33.38.06.81.09 1.29.09h.06V38ZM36.94 53.86c-.78 0-1.49.2-2.13.6-.62.4-1.15.97-1.59 1.71-.44.74-.78 1.63-1.02 2.67-.22 1.04-.33 2.21-.33 3.51 0 1.34.12 2.54.36 3.6.24 1.04.58 1.93 1.02 2.67.46.72 1.03 1.27 1.71 1.65.68.38 1.46.57 2.34.57.96 0 1.8-.24 2.52-.72.74-.5 1.36-1.18 1.86-2.04.5-.88.86-1.88 1.08-3l2.16.87c-.3 1.44-.81 2.72-1.53 3.84a7.43 7.43 0 0 1-2.76 2.58c-1.14.62-2.5.93-4.08.93s-3.02-.26-4.32-.78a9.977 9.977 0 0 1-3.39-2.22c-.96-.98-1.71-2.14-2.25-3.48-.52-1.34-.78-2.83-.78-4.47 0-1.64.27-3.13.81-4.47.56-1.34 1.31-2.49 2.25-3.45.96-.98 2.06-1.73 3.3-2.25 1.24-.52 2.56-.78 3.96-.78 1.42 0 2.59.24 3.51.72.94.48 1.69 1.15 2.25 2.01.58.84 1.03 1.8 1.35 2.88l-1.59-.3.57-5.01h2.37v6.72h-2.73c-.28-.92-.64-1.72-1.08-2.4-.44-.68-.97-1.21-1.59-1.59-.62-.38-1.37-.57-2.25-.57Zm19.444 9.9v1.8c-.68.08-1.29.19-1.83.33-.52.14-.98.32-1.38.54-.4.2-.73.43-.99.69-.24.24-.43.52-.57.84-.12.32-.18.66-.18 1.02 0 .46.07.84.21 1.14.16.3.38.53.66.69.28.14.61.21.99.21.48 0 .9-.12 1.26-.36.38-.26.72-.62 1.02-1.08.3-.46.56-1.01.78-1.65l.03 2.1c-.28.7-.65 1.3-1.11 1.8-.46.48-1.02.85-1.68 1.11-.64.24-1.38.36-2.22.36-1.04 0-1.94-.15-2.7-.45-.74-.32-1.32-.78-1.74-1.38-.4-.62-.6-1.37-.6-2.25 0-.84.21-1.56.63-2.16.44-.6 1.08-1.11 1.92-1.53.84-.42 1.89-.77 3.15-1.05 1.26-.3 2.71-.54 4.35-.72Zm-.3 9.24v-2.97l-.36.03V61.9c0-.56-.08-1.01-.24-1.35-.16-.34-.4-.58-.72-.72-.32-.16-.73-.24-1.23-.24-.72 0-1.32.16-1.8.48-.46.3-.81.68-1.05 1.14-.18-.2-.28-.39-.3-.57-.02-.2.01-.38.09-.54.1-.18.25-.33.45-.45s.44-.2.72-.24v3.18h-4.26v-3.24c.3-.24.74-.51 1.32-.81.6-.32 1.35-.6 2.25-.84.9-.24 1.95-.36 3.15-.36 1.02 0 1.95.1 2.79.3.86.2 1.6.51 2.22.93.62.42 1.1.97 1.44 1.65.34.66.51 1.47.51 2.43v7.5c0 .22.06.39.18.51s.29.21.51.27c.22.04.48.08.78.12l.12.03V73h-6.57ZM75.52 57.58v4.65c-.16-.04-.34-.08-.54-.12-.18-.04-.38-.07-.6-.09-.22-.02-.43-.03-.63-.03-.48 0-.92.05-1.32.15-.38.08-.74.22-1.08.42-.32.18-.61.43-.87.75s-.5.71-.72 1.17v-1.74c.28-1.04.61-1.95.99-2.73.38-.8.86-1.43 1.44-1.89.58-.46 1.32-.69 2.22-.69.24 0 .46.02.66.06.2.02.35.05.45.09ZM63.311 73v-1.83h.03c.46 0 .83-.06 1.11-.18.3-.12.45-.36.45-.72v-9.66c0-.22-.05-.38-.15-.48-.08-.12-.22-.22-.42-.3-.2-.08-.46-.15-.78-.21l-.24-.06v-1.92h6.72v4.86l.36-.36v8.49c0 .14.11.25.33.33.22.08.48.14.78.18.3.02.58.03.84.03h.24V73h-9.27Zm18.698-7.62c0 .88.08 1.67.24 2.37.16.68.41 1.26.75 1.74.34.46.76.81 1.26 1.05.52.24 1.12.36 1.8.36.72 0 1.34-.14 1.86-.42.52-.28.96-.63 1.32-1.05.38-.44.7-.88.96-1.32l1.86 1.32c-.38.76-.88 1.43-1.5 2.01-.62.58-1.37 1.04-2.25 1.38-.86.32-1.89.48-3.09.48-1.74 0-3.27-.32-4.59-.96-1.3-.64-2.31-1.55-3.03-2.73-.72-1.2-1.08-2.62-1.08-4.26 0-1.6.35-3 1.05-4.2a7.437 7.437 0 0 1 2.91-2.82c1.24-.66 2.64-.99 4.2-.99 1.26 0 2.36.19 3.3.57.96.36 1.76.91 2.4 1.65.64.72 1.13 1.64 1.47 2.76.34 1.1.51 2.38.51 3.84h-11.04v-2.1h6.6l-.66.84c-.02-1-.08-1.84-.18-2.52-.1-.68-.25-1.22-.45-1.62-.2-.4-.45-.69-.75-.87-.3-.18-.66-.27-1.08-.27-.42 0-.8.11-1.14.33-.32.22-.61.57-.87 1.05-.24.46-.43 1.05-.57 1.77-.14.72-.21 1.59-.21 2.61Zm37.917-1.35c-.12.6-.35 1.3-.69 2.1-.34.78-.8 1.59-1.38 2.43-.56.84-1.25 1.62-2.07 2.34-.82.7-1.78 1.28-2.88 1.74-1.08.44-2.32.66-3.72.66-1.62 0-3.05-.25-4.29-.75-1.24-.52-2.21-1.26-2.91-2.22-.68-.98-1.02-2.16-1.02-3.54 0-.88.17-1.67.51-2.37.36-.72.86-1.35 1.5-1.89.66-.56 1.43-1.03 2.31-1.41.9-.4 1.88-.71 2.94-.93l.93 1.11c-.66.32-1.22.72-1.68 1.2a4.57 4.57 0 0 0-1.05 1.65c-.24.62-.36 1.34-.36 2.16 0 .9.16 1.69.48 2.37.34.68.84 1.21 1.5 1.59.66.38 1.46.57 2.4.57.76 0 1.49-.15 2.19-.45.7-.32 1.35-.75 1.95-1.29a9.01 9.01 0 0 0 1.59-1.8c.46-.66.81-1.34 1.05-2.04.26-.7.39-1.38.39-2.04 0-.08-.1-.14-.3-.18a4.8 4.8 0 0 0-.66-.09c-.26-.02-.5-.03-.72-.03h-.18v-1.95h6.21v1.95h-.3c-.32 0-.6.03-.84.09-.22.04-.41.14-.57.3-.14.16-.25.4-.33.72Zm2.28 8.97h-5.7a46.389 46.389 0 0 1-3.6-3.18c-1.12-1.1-2.14-2.22-3.06-3.36-.9-1.14-1.68-2.27-2.34-3.39-.66-1.12-1.17-2.2-1.53-3.24-.34-1.04-.51-2.01-.51-2.91 0-1.18.27-2.17.81-2.97.56-.82 1.32-1.44 2.28-1.86.98-.44 2.12-.66 3.42-.66 1.78 0 3.13.41 4.05 1.23.94.8 1.41 1.84 1.41 3.12 0 .74-.18 1.42-.54 2.04-.34.6-.82 1.14-1.44 1.62-.6.46-1.32.87-2.16 1.23-.82.36-1.71.68-2.67.96l-.84-1.77c.7-.26 1.3-.52 1.8-.78.52-.28.94-.58 1.26-.9.32-.34.56-.7.72-1.08.16-.4.24-.85.24-1.35 0-.6-.13-1.07-.39-1.41-.24-.36-.63-.54-1.17-.54-.38 0-.72.09-1.02.27-.28.18-.5.48-.66.9-.16.42-.24.97-.24 1.65 0 .72.12 1.47.36 2.25.24.76.59 1.56 1.05 2.4.48.84 1.09 1.72 1.83 2.64.74.9 1.61 1.86 2.61 2.88 1 1 2.15 2.06 3.45 3.18.24.22.47.4.69.54.22.14.44.25.66.33.24.06.52.09.84.09h.39V73Zm17.173-2.1c.72 0 1.33-.1 1.83-.3.5-.2.88-.5 1.14-.9.26-.4.39-.91.39-1.53 0-.54-.13-.99-.39-1.35-.26-.38-.64-.7-1.14-.96-.48-.26-1.06-.49-1.74-.69-.66-.22-1.4-.45-2.22-.69-.78-.24-1.54-.52-2.28-.84-.74-.34-1.41-.76-2.01-1.26a5.98 5.98 0 0 1-1.41-1.92c-.34-.76-.51-1.69-.51-2.79 0-1.34.32-2.47.96-3.39.66-.94 1.53-1.65 2.61-2.13 1.1-.5 2.3-.75 3.6-.75 1.1 0 2.07.15 2.91.45.84.3 1.57.8 2.19 1.5.62.68 1.15 1.61 1.59 2.79l-1.53-.21.6-4.23h2.16v5.64h-2.52c-.26-.76-.63-1.4-1.11-1.92-.46-.54-1-.95-1.62-1.23-.62-.28-1.3-.42-2.04-.42-.64 0-1.19.1-1.65.3-.46.2-.81.48-1.05.84-.22.36-.33.79-.33 1.29 0 .52.13.95.39 1.29.26.34.62.63 1.08.87.48.22 1.03.42 1.65.6.64.18 1.31.36 2.01.54.88.24 1.72.52 2.52.84.8.32 1.51.74 2.13 1.26.64.5 1.14 1.13 1.5 1.89.36.74.54 1.66.54 2.76 0 1.42-.32 2.66-.96 3.72-.62 1.06-1.51 1.88-2.67 2.46-1.16.58-2.55.87-4.17.87-1.16 0-2.27-.18-3.33-.54a7.45 7.45 0 0 1-2.79-1.74c-.82-.82-1.47-1.92-1.95-3.3l1.62.33-.57 4.95h-2.31v-6.69h2.7c.36.96.85 1.79 1.47 2.49.64.68 1.36 1.2 2.16 1.56.82.36 1.67.54 2.55.54Zm16.372-13.26v10.47c0 .5.05.92.15 1.26.12.34.3.59.54.75.24.16.56.24.96.24.46 0 .88-.12 1.26-.36.4-.24.79-.62 1.17-1.14.38-.52.75-1.19 1.11-2.01l.06 2.76c-.42.82-.91 1.5-1.47 2.04-.56.54-1.19.95-1.89 1.23s-1.47.42-2.31.42c-1 0-1.89-.19-2.67-.57a4.24 4.24 0 0 1-1.77-1.74c-.4-.78-.6-1.74-.6-2.88v-7.5c0-.32-.11-.54-.33-.66-.22-.14-.57-.25-1.05-.33l-.27-.06v-1.92h7.11Zm10.05 0v12.51c0 .22.06.39.18.51s.29.21.51.27c.22.04.49.08.81.12l.15.03V73h-6.75v-3.45l-.36.12v-9.06c0-.32-.15-.54-.45-.66-.3-.14-.69-.25-1.17-.33l-.45-.06v-1.92h7.53Zm11.647 22.05h-9.3v-1.83h.03c.3 0 .57-.03.81-.09.24-.06.43-.16.57-.3.14-.12.21-.29.21-.51V60.61c0-.22-.05-.38-.15-.48-.1-.12-.25-.22-.45-.3-.2-.08-.46-.15-.78-.21l-.24-.06v-1.92h6.72v3.99l.36.06v15.9c0 .06.1.11.3.15.22.04.47.07.75.09.3.02.57.03.81.03h.36v1.83Zm2.19-6.39c-.78 0-1.48-.09-2.1-.27-.6-.18-1.15-.46-1.65-.84-.48-.38-.94-.87-1.38-1.47l.09-3.57c.3.7.61 1.32.93 1.86.34.52.72.92 1.14 1.2.44.28.94.42 1.5.42.5 0 .93-.12 1.29-.36.38-.26.69-.63.93-1.11.24-.5.42-1.08.54-1.74.12-.68.18-1.44.18-2.28 0-.82-.06-1.54-.18-2.16-.12-.64-.29-1.18-.51-1.62-.22-.46-.51-.8-.87-1.02-.34-.22-.74-.33-1.2-.33-.54 0-1.03.16-1.47.48-.44.3-.85.74-1.23 1.32-.36.56-.72 1.24-1.08 2.04l-.06-3.03c.48-.78.97-1.42 1.47-1.92.52-.52 1.09-.91 1.71-1.17.64-.26 1.37-.39 2.19-.39 1.38 0 2.58.33 3.6.99 1.04.64 1.84 1.55 2.4 2.73.56 1.16.84 2.52.84 4.08 0 1.6-.3 3.02-.9 4.26-.6 1.22-1.43 2.18-2.49 2.88-1.06.68-2.29 1.02-3.69 1.02Zm17.575 6.39h-9.3v-1.83h.03c.3 0 .57-.03.81-.09.24-.06.43-.16.57-.3.14-.12.21-.29.21-.51V60.61c0-.22-.05-.38-.15-.48-.1-.12-.25-.22-.45-.3-.2-.08-.46-.15-.78-.21l-.24-.06v-1.92h6.72v3.99l.36.06v15.9c0 .06.1.11.3.15.22.04.47.07.75.09.3.02.57.03.81.03h.36v1.83Zm2.19-6.39c-.78 0-1.48-.09-2.1-.27-.6-.18-1.15-.46-1.65-.84-.48-.38-.94-.87-1.38-1.47l.09-3.57c.3.7.61 1.32.93 1.86.34.52.72.92 1.14 1.2.44.28.94.42 1.5.42.5 0 .93-.12 1.29-.36.38-.26.69-.63.93-1.11.24-.5.42-1.08.54-1.74.12-.68.18-1.44.18-2.28 0-.82-.06-1.54-.18-2.16-.12-.64-.29-1.18-.51-1.62-.22-.46-.51-.8-.87-1.02-.34-.22-.74-.33-1.2-.33-.54 0-1.03.16-1.47.48-.44.3-.85.74-1.23 1.32-.36.56-.72 1.24-1.08 2.04l-.06-3.03c.48-.78.97-1.42 1.47-1.92.52-.52 1.09-.91 1.71-1.17.64-.26 1.37-.39 2.19-.39 1.38 0 2.58.33 3.6.99 1.04.64 1.84 1.55 2.4 2.73.56 1.16.84 2.52.84 4.08 0 1.6-.3 3.02-.9 4.26-.6 1.22-1.43 2.18-2.49 2.88-1.06.68-2.29 1.02-3.69 1.02Zm26.005-7.98c0 1.56-.36 2.95-1.08 4.17-.7 1.2-1.71 2.14-3.03 2.82-1.3.66-2.84.99-4.62.99-1.78 0-3.33-.33-4.65-.99-1.3-.68-2.31-1.62-3.03-2.82-.7-1.22-1.05-2.61-1.05-4.17 0-1.18.2-2.26.6-3.24.4-.98.98-1.82 1.74-2.52.78-.72 1.7-1.27 2.76-1.65 1.08-.38 2.29-.57 3.63-.57 1.34 0 2.54.19 3.6.57 1.08.38 2 .93 2.76 1.65.78.7 1.37 1.54 1.77 2.52.4.98.6 2.06.6 3.24Zm-11.82 0c0 1.24.12 2.29.36 3.15.24.86.59 1.51 1.05 1.95.46.42 1.02.63 1.68.63.68 0 1.24-.21 1.68-.63.46-.44.81-1.09 1.05-1.95.24-.86.36-1.91.36-3.15 0-1.28-.12-2.33-.36-3.15-.24-.84-.59-1.47-1.05-1.89-.44-.44-1-.66-1.68-.66-.66 0-1.22.22-1.68.66-.46.42-.81 1.05-1.05 1.89-.24.82-.36 1.87-.36 3.15Zm25.304-7.74v4.65c-.16-.04-.34-.08-.54-.12-.18-.04-.38-.07-.6-.09-.22-.02-.43-.03-.63-.03-.48 0-.92.05-1.32.15-.38.08-.74.22-1.08.42-.32.18-.61.43-.87.75s-.5.71-.72 1.17v-1.74c.28-1.04.61-1.95.99-2.73.38-.8.86-1.43 1.44-1.89.58-.46 1.32-.69 2.22-.69.24 0 .46.02.66.06.2.02.35.05.45.09ZM226.682 73v-1.83h.03c.46 0 .83-.06 1.11-.18.3-.12.45-.36.45-.72v-9.66c0-.22-.05-.38-.15-.48-.08-.12-.22-.22-.42-.3-.2-.08-.46-.15-.78-.21l-.24-.06v-1.92h6.72v4.86l.36-.36v8.49c0 .14.11.25.33.33.22.08.48.14.78.18.3.02.58.03.84.03h.24V73h-9.27Zm12.894-13.23v-1.98h.12c.42 0 .79-.03 1.11-.09.34-.08.6-.21.78-.39.18-.2.27-.48.27-.84l3.03 1.17h6.09v2.13h-11.4Zm7.53 7.95c0 .78.08 1.4.24 1.86.18.44.43.76.75.96.32.18.71.27 1.17.27.38 0 .74-.04 1.08-.12.36-.1.62-.17.78-.21v2.28c-.16.08-.4.16-.72.24-.3.08-.67.15-1.11.21-.42.06-.9.09-1.44.09-1.18 0-2.24-.17-3.18-.51-.94-.34-1.69-.91-2.25-1.71-.54-.82-.81-1.91-.81-3.27v-9.6l.24-.24.03-4.5h5.22v14.25Z" fill="#fff"/><path d="M2.68 90V0h-3.84v90h3.84Z" fill="#fff" mask="url(#path-1-inside-1_2037_11954)"/></svg>