<svg width="120" height="24" viewBox="0 0 120 24" fill="none" xmlns="http://www.w3.org/2000/svg">
<g clip-path="url(#clip0_2_2160)">
<path d="M14.43 10L12 2L9.57 10H2L8.18 14.41L5.83 22L12 17.31L18.18 22L15.83 14.41L22 10H14.43Z" fill="#04819C"/>
</g>
<g clip-path="url(#clip1_2_2160)">
<path d="M38.43 10L36 2L33.57 10H26L32.18 14.41L29.83 22L36 17.31L42.18 22L39.83 14.41L46 10H38.43Z" fill="#04819C"/>
</g>
<g clip-path="url(#clip2_2_2160)">
<path d="M62.43 10L60 2L57.57 10H50L56.18 14.41L53.83 22L60 17.31L66.18 22L63.83 14.41L70 10H62.43Z" fill="#DBDBDB"/>
</g>
<g clip-path="url(#clip3_2_2160)">
<path d="M86.43 10L84 2L81.57 10H74L80.18 14.41L77.83 22L84 17.31L90.18 22L87.83 14.41L94 10H86.43Z" fill="#DBDBDB"/>
</g>
<g clip-path="url(#clip4_2_2160)">
<path d="M110.43 10L108 2L105.57 10H98L104.18 14.41L101.83 22L108 17.31L114.18 22L111.83 14.41L118 10H110.43Z" fill="#DBDBDB"/>
</g>
<defs>
<clipPath id="clip0_2_2160">
<rect width="24" height="24" fill="white"/>
</clipPath>
<clipPath id="clip1_2_2160">
<rect width="24" height="24" fill="white" transform="translate(24)"/>
</clipPath>
<clipPath id="clip2_2_2160">
<rect width="24" height="24" fill="white" transform="translate(48)"/>
</clipPath>
<clipPath id="clip3_2_2160">
<rect width="24" height="24" fill="white" transform="translate(72)"/>
</clipPath>
<clipPath id="clip4_2_2160">
<rect width="24" height="24" fill="white" transform="translate(96)"/>
</clipPath>
</defs>
</svg>
