<svg width="14" height="18" viewBox="0 0 14 18" fill="none" xmlns="http://www.w3.org/2000/svg">
<rect width="14" height="18" fill="#F5F5F5"/>
<rect width="1512" height="1552" transform="translate(-1279 -1331)" fill="white"/>
<rect x="-22" y="-15.5" width="121" height="50" rx="4" fill="#51376B"/>
<path d="M6.9987 13.6663C7.91536 13.6663 8.66536 12.9163 8.66536 11.9997C8.66536 11.083 7.91536 10.333 6.9987 10.333C6.08203 10.333 5.33203 11.083 5.33203 11.9997C5.33203 12.9163 6.08203 13.6663 6.9987 13.6663ZM11.9987 6.16634H11.1654V4.49967C11.1654 2.19967 9.2987 0.333008 6.9987 0.333008C4.6987 0.333008 2.83203 2.19967 2.83203 4.49967V6.16634H1.9987C1.08203 6.16634 0.332031 6.91634 0.332031 7.83301V16.1663C0.332031 17.083 1.08203 17.833 1.9987 17.833H11.9987C12.9154 17.833 13.6654 17.083 13.6654 16.1663V7.83301C13.6654 6.91634 12.9154 6.16634 11.9987 6.16634ZM4.41536 4.49967C4.41536 3.07467 5.5737 1.91634 6.9987 1.91634C8.4237 1.91634 9.58203 3.07467 9.58203 4.49967V6.16634H4.41536V4.49967ZM11.9987 16.1663H1.9987V7.83301H11.9987V16.1663Z" fill="white"/>
<path d="M115 60H-1161V62H115V60Z" fill="#EEEEEE" mask="url(#path-1-inside-1_205_2706)"/>
</svg>
