<svg width="20" height="20" viewBox="0 0 20 20" fill="none" xmlns="http://www.w3.org/2000/svg">
<rect width="20" height="20" fill="#F5F5F5"/>
<g id="QI File Upload - Step 4D - view partially success">
<rect width="1512" height="1542" transform="translate(-136 -442)" fill="white"/>
<g id="Body">
<g id="Scoped Notification">
<g id="Scoped Notification_2">
<rect x="-17.5" y="-17.5" width="719" height="203" rx="1.5" fill="#EDF2EC"/>
<g id="Icon">
<path id="icon/action/info_24px" d="M10 0C4.48 0 0 4.48 0 10C0 15.52 4.48 20 10 20C15.52 20 20 15.52 20 10C20 4.48 15.52 0 10 0Z" fill="#4D8144"/>
<g id="Group 11484">
<path id="Path" d="M10 15C9.45 15 9 14.55 9 14V10C9 9.45 9.45 9 10 9C10.55 9 11 9.45 11 10V14C11 14.55 10.55 15 10 15Z" fill="white"/>
<path id="Path_2" d="M11 6C11 6.55228 10.5523 7 10 7C9.44772 7 9 6.55228 9 6C9 5.44772 9.44772 5 10 5C10.5523 5 11 5.44772 11 6Z" fill="white"/>
</g>
</g>
<rect x="-17.5" y="-17.5" width="719" height="203" rx="1.5" stroke="#4D8144"/>
</g>
</g>
</g>
</g>
</svg>
