<svg width="20" height="20" viewBox="0 0 20 20" fill="none" xmlns="http://www.w3.org/2000/svg">
<rect width="20" height="20" fill="#F5F5F5"/>
<g id="QI File Upload - Step 4A - View pending ">
<rect width="1512" height="1470" transform="translate(-208 -1060)" fill="white"/>
<g id="Body">
<g id="Frame 11787">
<g id="Content">
<g id="Uploaded file">
<g id="Uploaded file card">
<rect x="-49.5" y="-429.5" width="679" height="523" rx="1.5" fill="white"/>
<g id="Scoped Notification">
<rect x="-17.5" y="-17.5" width="615" height="79" rx="1.5" fill="#F7FCFD"/>
<g id="Icon">
<path id="icon/action/info_24px" d="M10 0C4.48 0 0 4.48 0 10C0 15.52 4.48 20 10 20C15.52 20 20 15.52 20 10C20 4.48 15.52 0 10 0Z" fill="#00546E"/>
<g id="Group 11484">
<path id="Path" d="M10 15C9.45 15 9 14.55 9 14V10C9 9.45 9.45 9 10 9C10.55 9 11 9.45 11 10V14C11 14.55 10.55 15 10 15Z" fill="white"/>
<path id="Path_2" d="M11 6C11 6.55228 10.5523 7 10 7C9.44772 7 9 6.55228 9 6C9 5.44772 9.44772 5 10 5C10.5523 5 11 5.44772 11 6Z" fill="white"/>
</g>
</g>
<rect x="-17.5" y="-17.5" width="615" height="79" rx="1.5" stroke="#52B1CD"/>
</g>
<rect x="-49.5" y="-429.5" width="679" height="523" rx="1.5" stroke="#888888"/>
</g>
</g>
</g>
</g>
</g>
</g>
</svg>
