<svg width="20" height="20" viewBox="0 0 20 20" fill="none" xmlns="http://www.w3.org/2000/svg">
<rect width="20" height="20" fill="#F5F5F5"/>
<g id="QI File Upload - Step 4E - view success">
<rect width="1512" height="1470" transform="translate(-136 -442)" fill="white"/>
<g id="Body">
<g id="Scoped Notification">
<g id="Scoped Notification_2">
<rect x="-18" y="-18" width="720" height="156" rx="2" fill="#4D8144"/>
<g id="Icon">
<path id="icon/action/check_circle_24px" d="M10 0C4.48 0 0 4.48 0 10C0 15.52 4.48 20 10 20C15.52 20 20 15.52 20 10C20 4.48 15.52 0 10 0Z" fill="white"/>
<path id="Path" d="M7.94686 13.7559L5.222 10.7595C5.07987 10.6036 5 10.3919 5 10.1711C5 9.95032 5.07987 9.73862 5.222 9.58268C5.51802 9.25717 5.9962 9.25717 6.29221 9.58268L8.48576 11.9864L13.7078 6.24413C14.0038 5.91862 14.482 5.91862 14.778 6.24413C15.074 6.56964 15.074 7.09546 14.778 7.42097L9.01707 13.7559C8.72865 14.0814 8.24288 14.0814 7.94686 13.7559Z" fill="#4D8144"/>
</g>
</g>
</g>
</g>
</g>
</svg>
