<?xml version="1.0"?>
<svg xmlns="http://www.w3.org/2000/svg" xmlns:xlink="http://www.w3.org/1999/xlink" xmlns:svgjs="http://svgjs.com/svgjs" version="1.1" width="512" height="512" x="0" y="0" viewBox="0 0 512 512" style="enable-background:new 0 0 512 512" xml:space="preserve" class=""><g><g xmlns="http://www.w3.org/2000/svg"><path d="m241 331h-15c-8.291 0-15-6.709-15-15s6.709-15 15-15h30c8.276 0 15-6.724 15-15s-6.724-15-15-15c-24.814 0-45-20.186-45-45 0-19.53 12.578-36.024 30-42.237v-61.247c-67.315 7.573-120 64.177-120 133.484s52.685 125.911 120 133.484z" fill="#52386b" data-original="#000000"/><path d="m391 256c0-69.307-52.685-125.911-120-133.484v58.484h15c8.291 0 15 6.709 15 15s-6.709 15-15 15h-30c-8.276 0-15 6.724-15 15s6.724 15 15 15c24.814 0 45 20.186 45 45 0 19.53-12.578 36.024-30 42.237v61.247c67.315-7.573 120-64.177 120-133.484z" fill="#52386b" data-original="#000000"/><path d="m226 0c-8.291 0-15 6.709-15 15v60c0 8.291 6.709 15 15 15h60c8.291 0 15-6.709 15-15v-60c0-8.291-6.709-15-15-15z" fill="#52386b" data-original="#000000"/><path d="m211 437v60c0 8.291 6.709 15 15 15h60c8.291 0 15-6.709 15-15v-60c0-8.291-6.709-15-15-15h-60c-8.291 0-15 6.709-15 15z" fill="#52386b" data-original="#000000"/><circle cx="45" cy="256" r="45" fill="#52386b" data-original="#000000"/><circle cx="467" cy="256" r="45" fill="#52386b" data-original="#000000"/><path d="m452.216 179.55c7.485-3.56 10.679-12.51 7.119-19.98-22.207-46.743-60.161-84.697-106.904-106.904-7.427-3.53-16.45-.366-19.98 7.119-3.56 7.471-.366 16.421 7.119 19.98 40.503 19.248 73.418 52.163 92.666 92.666 3.561 7.51 12.539 10.654 19.98 7.119z" fill="#52386b" data-original="#000000"/><path d="m352.431 459.335c46.743-22.207 84.697-60.161 106.904-106.904 3.56-7.471.366-16.421-7.119-19.98-7.456-3.56-16.421-.352-19.98 7.119-19.248 40.503-52.163 73.418-92.666 92.666-7.485 3.56-10.679 12.51-7.119 19.98 3.561 7.51 12.539 10.654 19.98 7.119z" fill="#52386b" data-original="#000000"/><path d="m59.784 332.45c-7.485 3.56-10.679 12.51-7.119 19.98 22.207 46.743 60.161 84.697 106.904 106.904 7.449 3.539 16.423.382 19.98-7.119 3.56-7.471.366-16.421-7.119-19.98-40.503-19.248-73.418-52.163-92.666-92.666-3.544-7.47-12.509-10.678-19.98-7.119z" fill="#52386b" data-original="#000000"/><path d="m52.665 159.569c-3.56 7.471-.366 16.421 7.119 19.98 7.449 3.539 16.423.382 19.98-7.119 19.248-40.503 52.163-73.418 92.666-92.666 7.485-3.56 10.679-12.51 7.119-19.98-3.545-7.485-12.539-10.649-19.98-7.119-46.743 22.207-84.697 60.161-106.904 106.904z" fill="#52386b" data-original="#000000"/></g></g></svg>
