<?xml version="1.0"?>
<svg xmlns="http://www.w3.org/2000/svg" xmlns:xlink="http://www.w3.org/1999/xlink" xmlns:svgjs="http://svgjs.com/svgjs" version="1.1" width="512" height="512" x="0" y="0" viewBox="0 0 24 24" style="enable-background:new 0 0 512 512" xml:space="preserve"><g><path xmlns="http://www.w3.org/2000/svg" d="m4.55 23.98c.064.013.132.02.2.02h14.25c2.757 0 5-2.243 5-5v-4c0-1.654-1.346-3-3-3h-5v-9c0-1.654-1.346-3-3-3h-10c-1.654 0-3 1.346-3 3v16c0 2.605 2.003 4.751 4.55 4.98zm17.45-5.98v1c0 1.654-1.346 3-3 3h-10.002c.629-.836 1.002-1.875 1.002-3v-1zm-20-15c0-.551.448-1 1-1h10c.552 0 1 .449 1 1v9h-3c-1.654 0-3 1.346-3 3v4c0 1.654-1.346 3-3 3s-3-1.346-3-3z" fill="#52386b" data-original="#000000"/><circle xmlns="http://www.w3.org/2000/svg" cx="8" cy="5" r="2" fill="#52386b" data-original="#000000"/></g></svg>
