<?xml version="1.0"?>
<svg id="icon-avatar" xmlns="http://www.w3.org/2000/svg" xmlns:xlink="http://www.w3.org/1999/xlink" xmlns:svgjs="http://svgjs.com/svgjs" version="1.1" viewBox="0 0 512 512" style="enable-background:new 0 0 512 512" xml:space="preserve" class=""><g>
<g xmlns="http://www.w3.org/2000/svg">
	<g>
		<path d="M256,0C115.2,0,0,115.2,0,256s115.2,256,256,256s256-115.2,256-256S396.8,0,256,0z M428.8,396.8c-9.6-3.2-16-9.6-25.6-9.6    l-70.4-12.8c-6.4,0-12.8-9.6-12.8-16v-16c3.2-6.4,9.6-16,12.8-22.4c3.2-6.4,9.6-16,12.8-19.2c12.8-12.8,28.8-28.8,32-51.2    c3.2-19.2,0-28.8-3.2-38.4c0-19.2,0-44.8-6.4-64c0-25.6-6.4-38.4-16-51.2c-9.6-9.6-19.2-9.6-28.8-12.8c-3.2,0-9.6,0-9.6-3.2    c-22.4-9.6-38.4-16-57.6-16c-41.6,3.2-96,28.8-112,76.8c-6.4,12.8-6.4,38.4-3.2,57.6v12.8c-6.4,6.4-9.6,16-6.4,35.2    c3.2,19.2,19.2,35.2,32,51.2c3.2,3.2,6.4,12.8,12.8,19.2c3.2,9.6,9.6,16,12.8,22.4v16c0,6.4-6.4,12.8-12.8,16L108.8,384    c-9.6,3.2-19.2,6.4-25.6,9.6C51.2,358.4,32,310.4,32,256c0-124.8,99.2-224,224-224s224,99.2,224,224    C480,310.4,460.8,358.4,428.8,396.8z" fill="#52386b" data-original="#000000" class=""/>
	</g>
</g>
<g xmlns="http://www.w3.org/2000/svg">
</g>
<g xmlns="http://www.w3.org/2000/svg">
</g>
<g xmlns="http://www.w3.org/2000/svg">
</g>
<g xmlns="http://www.w3.org/2000/svg">
</g>
<g xmlns="http://www.w3.org/2000/svg">
</g>
<g xmlns="http://www.w3.org/2000/svg">
</g>
<g xmlns="http://www.w3.org/2000/svg">
</g>
<g xmlns="http://www.w3.org/2000/svg">
</g>
<g xmlns="http://www.w3.org/2000/svg">
</g>
<g xmlns="http://www.w3.org/2000/svg">
</g>
<g xmlns="http://www.w3.org/2000/svg">
</g>
<g xmlns="http://www.w3.org/2000/svg">
</g>
<g xmlns="http://www.w3.org/2000/svg">
</g>
<g xmlns="http://www.w3.org/2000/svg">
</g>
<g xmlns="http://www.w3.org/2000/svg">
</g>
</g></svg>
