<?xml version="1.0"?>
<svg id="icon-file-upload" xmlns="http://www.w3.org/2000/svg" xmlns:xlink="http://www.w3.org/1999/xlink" xmlns:svgjs="http://svgjs.com/svgjs" version="1.1" viewBox="0 0 24 24" style="enable-background:new 0 0 512 512" xml:space="preserve" class=""><g><path xmlns="http://www.w3.org/2000/svg" d="m17.5 11c-3.584 0-6.5 2.916-6.5 6.5s2.916 6.5 6.5 6.5 6.5-2.916 6.5-6.5-2.916-6.5-6.5-6.5zm3.33 6.475c-.147.181-.363.275-.58.275-.168 0-.336-.056-.475-.169l-1.525-1.248v3.917c0 .414-.336.75-.75.75s-.75-.336-.75-.75v-3.917l-1.525 1.248c-.318.261-.794.215-1.055-.105-.263-.321-.216-.793.105-1.056l2.75-2.25c.275-.226.674-.226.949 0l2.75 2.25c.322.262.369.734.106 1.055z" fill="#52386b" data-original="#000000" class=""/><path xmlns="http://www.w3.org/2000/svg" d="m13.25 0h-10.5c-1.52 0-2.75 1.23-2.75 2.75v15.5c0 1.52 1.23 2.75 2.75 2.75h7.56c-.52-1.06-.81-2.25-.81-3.5 0-.87.14-1.72.41-2.5.056-.175.126-.341.193-.509-.641.3-1.349.479-2.103.479-1.11 0-2.14-.36-2.96-.98l3.49-3.49c.14-.14.22-.33.22-.53v-4.94c2.41.36 4.25 2.44 4.25 4.94 0 .345-.035.682-.102 1.008.035-.025.066-.054.102-.078.89-.61 1.9-1.05 3-1.26v-6.89c0-1.52-1.23-2.75-2.75-2.75zm-6 9.66-3.27 3.27c-.62-.82-.98-1.85-.98-2.96 0-2.5 1.84-4.58 4.25-4.94z" fill="#52386b" data-original="#000000" class=""/></g></svg>
