<?xml version="1.0"?>
<svg id="icon-button" xmlns="http://www.w3.org/2000/svg" xmlns:xlink="http://www.w3.org/1999/xlink" xmlns:svgjs="http://svgjs.com/svgjs" version="1.1" viewBox="0 0 511.999 511.999" style="enable-background:new 0 0 512 512" xml:space="preserve" class=""><g>
<g xmlns="http://www.w3.org/2000/svg">
	<g>
		<path d="M256.258,60.462H72.376C32.468,60.462,0,92.93,0,132.838v170.211c0,39.908,32.468,72.376,72.376,72.376h126.357    c0.074-1.123,0.172-2.247,0.323-3.372c1.579-11.78,7.333-22.14,15.627-29.686H72.376c-21.68,0-39.318-17.638-39.318-39.318    V132.838c0-21.68,17.638-39.318,39.318-39.318h183.882c21.68,0,39.318,17.638,39.318,39.318v43.018    c6.855-3.539,14.498-5.425,22.436-5.425c3.618,0,7.173,0.398,10.623,1.157v-38.75C328.634,92.93,296.166,60.462,256.258,60.462z" fill="#52386b" data-original="#000000"/>
	</g>
</g>
<g xmlns="http://www.w3.org/2000/svg">
	<g>
		<path d="M164.317,109.461c-59.818,0-108.483,48.665-108.483,108.482s48.665,108.482,108.483,108.482    c11.724,0,23.015-1.877,33.599-5.333l-63.329-63.329c-9.254-9.253-14.35-21.557-14.35-34.643c0-13.087,5.096-25.39,14.35-34.643    c9.253-9.254,21.557-14.351,34.643-14.351c13.087,0,25.39,5.097,34.643,14.35l28.759,28.759c1.029-1.257,2.13-2.476,3.303-3.649    c9.253-9.254,21.557-14.35,34.643-14.35c0.203,0,0.402,0.014,0.605,0.017C262.299,148.311,217.761,109.461,164.317,109.461z" fill="#52386b" data-original="#000000"/>
	</g>
</g>
<g xmlns="http://www.w3.org/2000/svg">
	<g>
		<path d="M511.954,374.252c-0.159-3.318-0.711-6.619-1.652-9.793c-1.893-6.396-5.363-12.424-10.411-17.474    c-5.633-5.633-11.265-11.267-16.898-16.901c0.944-7.038,1.193-14.152,0.748-21.23c-0.832-13.215-4.128-26.332-9.673-38.357    c-5.32-11.537-12.71-22.084-21.692-31.066c0,0-60.553-60.487-61.259-61.062c-6.098-4.974-14.4-7.054-22.16-5.551    c-5.253,1.017-10.13,3.62-13.911,7.402c-4.605,4.605-7.196,10.462-7.771,16.476c-0.575,6.013,0.864,12.183,4.317,17.415    c0.987,1.494,2.138,2.912,3.453,4.228l-5.991-5.991l-11.983-11.983c-5.263-5.263-12.161-7.894-19.059-7.894    c-8.856,0-17.632,4.731-22.514,12.124c-6.007,9.099-5.757,21.368,0.454,30.301c0.891,1.283,1.896,2.485,3.001,3.59    c0,0-3.376-3.376-3.376-3.375l-2.833-2.833l-3.104-3.104c-3.947-3.947-8.814-6.414-13.911-7.402    c-8.689-1.683-17.917,1.111-24.208,7.402c-3.947,3.947-6.414,8.814-7.401,13.911c-0.987,5.096-0.494,10.423,1.48,15.291    c0.328,0.811,0.699,1.61,1.11,2.392c0.822,1.565,1.809,3.066,2.961,4.477c0.575,0.706,1.192,1.39,1.85,2.047l-63.229-63.229    c-5.027-5.027-11.951-7.894-19.059-7.894c-7.11,0-14.032,2.867-19.059,7.894c-10.248,10.248-10.329,27.79,0,38.12    c0,0,111.008,111.008,111.004,111.007l-9.978-1.338c-1.214-0.163-2.423-0.242-3.617-0.242    c-13.295-0.001-24.865,9.835-26.681,23.375c-1.944,14.498,8.638,28.354,23.132,30.298c0,0,105.127,14.769,108.076,15.488    c12.445,3.033,25.779,3.456,38.446,1.757c0,0,16.901,16.898,16.902,16.898c4.404,4.403,9.784,7.791,15.67,9.83    c6.497,2.251,13.406,2.839,20.193,1.748c6.337-1.019,12.408-3.525,17.608-7.289c0.644-0.465,38.962-38.222,38.964-38.225    C508.085,397.409,512.503,385.719,511.954,374.252z" fill="#52386b" data-original="#000000"/>
	</g>
</g>
<g xmlns="http://www.w3.org/2000/svg">
</g>
<g xmlns="http://www.w3.org/2000/svg">
</g>
<g xmlns="http://www.w3.org/2000/svg">
</g>
<g xmlns="http://www.w3.org/2000/svg">
</g>
<g xmlns="http://www.w3.org/2000/svg">
</g>
<g xmlns="http://www.w3.org/2000/svg">
</g>
<g xmlns="http://www.w3.org/2000/svg">
</g>
<g xmlns="http://www.w3.org/2000/svg">
</g>
<g xmlns="http://www.w3.org/2000/svg">
</g>
<g xmlns="http://www.w3.org/2000/svg">
</g>
<g xmlns="http://www.w3.org/2000/svg">
</g>
<g xmlns="http://www.w3.org/2000/svg">
</g>
<g xmlns="http://www.w3.org/2000/svg">
</g>
<g xmlns="http://www.w3.org/2000/svg">
</g>
<g xmlns="http://www.w3.org/2000/svg">
</g>
</g></svg>
