<?xml version="1.0"?>
<svg id="icon-pill" xmlns="http://www.w3.org/2000/svg" xmlns:xlink="http://www.w3.org/1999/xlink" xmlns:svgjs="http://svgjs.com/svgjs" version="1.1" viewBox="0 0 24 24" style="enable-background:new 0 0 512 512" xml:space="preserve"><g><path xmlns="http://www.w3.org/2000/svg" d="m14.25 5c-.468 0-.907.182-1.236.512l-2.044 2.044 2.474 2.474 2.043-2.043c.331-.33.513-.77.513-1.237 0-.965-.785-1.75-1.75-1.75z" fill="#52386b" data-original="#000000"/><path xmlns="http://www.w3.org/2000/svg" d="m7.513 11.013c-.331.33-.513.77-.513 1.237 0 .965.785 1.75 1.75 1.75.468 0 .907-.182 1.236-.512h.001l2.043-2.043-2.474-2.475z" fill="#52386b" data-original="#000000"/><path xmlns="http://www.w3.org/2000/svg" d="m21.25 0h-18.5c-1.517 0-2.75 1.233-2.75 2.75v13.5c0 1.517 1.233 2.75 2.75 2.75h1.25v4.25c0 .303.183.577.463.693.093.038.19.057.287.057.195 0 .387-.076.53-.22l4.78-4.78h11.19c1.517 0 2.75-1.233 2.75-2.75v-13.5c0-1.517-1.233-2.75-2.75-2.75zm-4.349 9.402-5.499 5.499c-.708.708-1.649 1.099-2.652 1.099-2.067 0-3.75-1.682-3.75-3.75 0-1.002.391-1.944 1.099-2.652l5.5-5.5c.707-.707 1.648-1.098 2.651-1.098 2.067 0 3.75 1.682 3.75 3.75 0 1.002-.391 1.944-1.099 2.652z" fill="#52386b" data-original="#000000"/></g></svg>
