<?xml version="1.0"?>
<svg id="icon-component-library" xmlns="http://www.w3.org/2000/svg" xmlns:xlink="http://www.w3.org/1999/xlink" xmlns:svgjs="http://svgjs.com/svgjs" version="1.1" viewBox="0 0 24 24" style="enable-background:new 0 0 512 512" xml:space="preserve"><g><path xmlns="http://www.w3.org/2000/svg" d="m21 4h-1v-3c0-.552-.448-1-1-1h-15c-1.654 0-2.999 1.345-3 2.999v.001 18c0 1.654 1.346 3 3 3h17c.552 0 1-.448 1-1v-18c0-.552-.448-1-1-1zm-10 15.668-4.671-1.698c-.198-.072-.329-.26-.329-.47v-5.375l5 2.083zm7-2.168c0 .21-.131.398-.329.47l-4.671 1.698v-5.46l5-2.083zm-6-4.5-6-2.5 6-2.5 6 2.5zm6-9h-14c-.551 0-1-.449-1-1s.449-1 1-1h14z" fill="#52386b" data-original="#000000"/></g></svg>
