<?xml version="1.0"?>
<svg id="icon-package-installation" xmlns="http://www.w3.org/2000/svg" xmlns:xlink="http://www.w3.org/1999/xlink" xmlns:svgjs="http://svgjs.com/svgjs" version="1.1" viewBox="0 0 512 512" style="enable-background:new 0 0 512 512" xml:space="preserve" class=""><g><path xmlns="http://www.w3.org/2000/svg" d="m474.667969 85.332031h-69.335938c-11.773437 0-21.332031 9.558594-21.332031 21.335938 0 11.773437 9.558594 21.332031 21.332031 21.332031h64v234.667969h-426.664062v-234.667969h64c11.773437 0 21.332031-9.558594 21.332031-21.332031 0-11.777344-9.558594-21.335938-21.332031-21.335938h-69.335938c-20.605469 0-37.332031 16.726563-37.332031 37.335938v288c0 20.605469 16.726562 37.332031 37.332031 37.332031h163.371094c-2.515625 10.6875-9.152344 28.03125-26.921875 45.78125-3.050781 3.050781-3.96875 7.636719-2.304688 11.625 1.644532 3.992188 5.546876 6.59375 9.855469 6.59375h149.335938c4.308593 0 8.210937-2.601562 9.855469-6.59375 1.640624-3.988281.722656-8.574219-2.304688-11.625-17.726562-17.726562-24.554688-35.070312-27.199219-45.78125h163.648438c20.605469 0 37.332031-16.726562 37.332031-37.332031v-288c0-20.609375-16.726562-37.335938-37.332031-37.335938zm0 0" fill="#52386b" data-original="#000000"/><path xmlns="http://www.w3.org/2000/svg" d="m155.007812 145.066406 17.238282 29.867188c2.6875 4.671875 8.425781 6.589844 13.398437 4.5l22.121094-9.34375c5.398437 4.117187 11.136719 7.746094 17.472656 10.390625l2.941407 23.488281c.664062 5.355469 5.1875 9.363281 10.5625 9.363281h34.496093c5.375 0 9.917969-4.007812 10.582031-9.34375l2.941407-23.488281c6.335937-2.644531 12.097656-6.292969 17.472656-10.386719l22.121094 9.320313c4.972656 2.089844 10.710937.171875 13.398437-4.5l17.238282-29.867188c2.6875-4.652344 1.492187-10.582031-2.792969-13.84375l-19.222657-14.550781c.425782-3.304687 1.023438-6.570313 1.023438-10.003906 0-3.4375-.597656-6.699219-1.003906-10.007813l19.222656-14.546875c4.289062-3.242187 5.484375-9.175781 2.792969-13.847656l-17.257813-29.867187c-2.6875-4.648438-8.425781-6.589844-13.375-4.5l-22.121094 9.324218c-5.398437-4.117187-11.136718-7.746094-17.472656-10.390625l-2.945312-23.488281c-.683594-5.332031-5.207032-9.34375-10.582032-9.34375h-34.496093c-5.375 0-9.917969 4.011719-10.582031 9.34375l-2.941407 23.488281c-6.359375 2.644531-12.097656 6.292969-17.496093 10.390625l-22.097657-9.324218c-4.972656-2.089844-10.710937-.171876-13.398437 4.5l-17.238282 29.867187c-2.6875 4.652344-1.492187 10.582031 2.792969 13.847656l19.222657 14.546875c-.425782 3.308594-1.023438 6.570313-1.023438 10.007813 0 3.433593.597656 6.699219 1.003906 10.003906l-19.203125 14.550781c-4.285156 3.242188-5.503906 9.171875-2.792969 13.84375zm100.992188-81.066406c23.574219 0 42.667969 19.09375 42.667969 42.667969 0 23.570312-19.09375 42.664062-42.667969 42.664062s-42.667969-19.09375-42.667969-42.664062c0-23.574219 19.09375-42.667969 42.667969-42.667969zm0 0" fill="#52386b" data-original="#000000"/></g></svg>
