<?xml version="1.0"?>
<svg id="icon-tree" xmlns="http://www.w3.org/2000/svg" xmlns:xlink="http://www.w3.org/1999/xlink" xmlns:svgjs="http://svgjs.com/svgjs" version="1.1" viewBox="0 0 490.667 490.667" style="enable-background:new 0 0 512 512" xml:space="preserve" class=""><g>
<g xmlns="http://www.w3.org/2000/svg">
	<g>
		<path d="M405.333,342.421V288c0-29.397-23.936-53.333-53.333-53.333h-96v-86.421c36.096-5.227,64-36.075,64-73.579    C320,33.493,286.507,0,245.333,0s-74.667,33.493-74.667,74.667c0,37.504,27.904,68.352,64,73.579v86.421h-96    c-29.397,0-53.333,23.936-53.333,53.333v54.421c-36.096,5.227-64,36.075-64,73.579c0,41.173,33.493,74.667,74.667,74.667    s74.667-33.493,74.667-74.667c0-37.504-27.904-68.352-64-73.579V288c0-17.643,14.357-32,32-32H352c17.643,0,32,14.357,32,32    v54.421c-36.096,5.227-64,36.075-64,73.579c0,41.173,33.493,74.667,74.667,74.667s74.667-33.493,74.667-74.667    C469.333,378.496,441.429,347.648,405.333,342.421z" fill="#52386b" data-original="#000000"/>
	</g>
</g>
<g xmlns="http://www.w3.org/2000/svg">
</g>
<g xmlns="http://www.w3.org/2000/svg">
</g>
<g xmlns="http://www.w3.org/2000/svg">
</g>
<g xmlns="http://www.w3.org/2000/svg">
</g>
<g xmlns="http://www.w3.org/2000/svg">
</g>
<g xmlns="http://www.w3.org/2000/svg">
</g>
<g xmlns="http://www.w3.org/2000/svg">
</g>
<g xmlns="http://www.w3.org/2000/svg">
</g>
<g xmlns="http://www.w3.org/2000/svg">
</g>
<g xmlns="http://www.w3.org/2000/svg">
</g>
<g xmlns="http://www.w3.org/2000/svg">
</g>
<g xmlns="http://www.w3.org/2000/svg">
</g>
<g xmlns="http://www.w3.org/2000/svg">
</g>
<g xmlns="http://www.w3.org/2000/svg">
</g>
<g xmlns="http://www.w3.org/2000/svg">
</g>
</g></svg>
