<?xml version="1.0"?>
<svg id="icon-header" xmlns="http://www.w3.org/2000/svg" xmlns:xlink="http://www.w3.org/1999/xlink" xmlns:svgjs="http://svgjs.com/svgjs" version="1.1" viewBox="0 0 24 24" style="enable-background:new 0 0 512 512" xml:space="preserve"><g><path xmlns="http://www.w3.org/2000/svg" d="m22.25 0h-20.5c-.965 0-1.75.785-1.75 1.75v2.5c0 .965.785 1.75 1.75 1.75h20.5c.965 0 1.75-.785 1.75-1.75v-2.5c0-.965-.785-1.75-1.75-1.75z" fill="#52386b" data-original="#000000"/><path xmlns="http://www.w3.org/2000/svg" d="m.75 9.5h9.5c.414 0 .75-.336.75-.75s-.336-.75-.75-.75h-9.5c-.414 0-.75.336-.75.75s.336.75.75.75z" fill="#52386b" data-original="#000000"/><path xmlns="http://www.w3.org/2000/svg" d="m.75 13h9.5c.414 0 .75-.336.75-.75s-.336-.75-.75-.75h-9.5c-.414 0-.75.336-.75.75s.336.75.75.75z" fill="#52386b" data-original="#000000"/><path xmlns="http://www.w3.org/2000/svg" d="m.75 16.5h9.5c.414 0 .75-.336.75-.75s-.336-.75-.75-.75h-9.5c-.414 0-.75.336-.75.75s.336.75.75.75z" fill="#52386b" data-original="#000000"/><path xmlns="http://www.w3.org/2000/svg" d="m.75 20h9.5c.414 0 .75-.336.75-.75s-.336-.75-.75-.75h-9.5c-.414 0-.75.336-.75.75s.336.75.75.75z" fill="#52386b" data-original="#000000"/><path xmlns="http://www.w3.org/2000/svg" d="m.75 23.5h9.5c.414 0 .75-.336.75-.75s-.336-.75-.75-.75h-9.5c-.414 0-.75.336-.75.75s.336.75.75.75z" fill="#52386b" data-original="#000000"/><path xmlns="http://www.w3.org/2000/svg" d="m23.25 8h-9.5c-.414 0-.75.336-.75.75s.336.75.75.75h9.5c.414 0 .75-.336.75-.75s-.336-.75-.75-.75z" fill="#52386b" data-original="#000000"/><path xmlns="http://www.w3.org/2000/svg" d="m23.25 11.5h-9.5c-.414 0-.75.336-.75.75s.336.75.75.75h9.5c.414 0 .75-.336.75-.75s-.336-.75-.75-.75z" fill="#52386b" data-original="#000000"/><path xmlns="http://www.w3.org/2000/svg" d="m23.25 15h-9.5c-.414 0-.75.336-.75.75s.336.75.75.75h9.5c.414 0 .75-.336.75-.75s-.336-.75-.75-.75z" fill="#52386b" data-original="#000000"/><path xmlns="http://www.w3.org/2000/svg" d="m23.25 18.5h-9.5c-.414 0-.75.336-.75.75s.336.75.75.75h9.5c.414 0 .75-.336.75-.75s-.336-.75-.75-.75z" fill="#52386b" data-original="#000000"/><path xmlns="http://www.w3.org/2000/svg" d="m23.25 22h-9.5c-.414 0-.75.336-.75.75s.336.75.75.75h9.5c.414 0 .75-.336.75-.75s-.336-.75-.75-.75z" fill="#52386b" data-original="#000000"/></g></svg>
