<?xml version="1.0"?>
<svg id="icon-text-area" xmlns="http://www.w3.org/2000/svg" xmlns:xlink="http://www.w3.org/1999/xlink" xmlns:svgjs="http://svgjs.com/svgjs" version="1.1" viewBox="0 0 24 24" style="enable-background:new 0 0 512 512" xml:space="preserve" class=""><g><g xmlns="http://www.w3.org/2000/svg"><path d="m12 9h-7c-.552 0-1 .448-1 1v1.5c0 .552.448 1 1 1s1-.448 1-1v-.5h1.5v6h-.5c-.552 0-1 .448-1 1s.448 1 1 1h3c.552 0 1-.448 1-1s-.448-1-1-1h-.5v-6h1.5v.5c0 .552.448 1 1 1s1-.448 1-1v-1.5c0-.552-.448-1-1-1z" fill="#52386b" data-original="#000000" class=""/></g><g xmlns="http://www.w3.org/2000/svg"><path d="m19 11h-3c-.552 0-1-.448-1-1s.448-1 1-1h3c.552 0 1 .448 1 1s-.448 1-1 1z" fill="#52386b" data-original="#000000" class=""/></g><g xmlns="http://www.w3.org/2000/svg"><path d="m19 15h-3c-.552 0-1-.448-1-1s.448-1 1-1h3c.552 0 1 .448 1 1s-.448 1-1 1z" fill="#52386b" data-original="#000000" class=""/></g><g xmlns="http://www.w3.org/2000/svg"><path d="m19 19h-3c-.552 0-1-.448-1-1s.448-1 1-1h3c.552 0 1 .448 1 1s-.448 1-1 1z" fill="#52386b" data-original="#000000" class=""/></g><g xmlns="http://www.w3.org/2000/svg"><path d="m21 1h-18c-1.654 0-3 1.346-3 3v16c0 1.654 1.346 3 3 3h18c1.654 0 3-1.346 3-3v-16c0-1.654-1.346-3-3-3zm0 20h-18c-.551 0-1-.448-1-1v-14h20v14c0 .552-.449 1-1 1z" fill="#52386b" data-original="#000000" class=""/></g></g></svg>
