<?xml version="1.0"?>
<svg id="icon-human-centered" xmlns="http://www.w3.org/2000/svg" xmlns:xlink="http://www.w3.org/1999/xlink" xmlns:svgjs="http://svgjs.com/svgjs" version="1.1" viewBox="0 0 24 24" style="enable-background:new 0 0 512 512" xml:space="preserve" class=""><g><path xmlns="http://www.w3.org/2000/svg" d="m17.5 12c-.157 0-.314-.05-.447-.148-.62-.46-6.053-4.601-6.053-8.114 0-2.061 1.683-3.738 3.75-3.738 1.063 0 2.054.446 2.75 1.194.696-.748 1.687-1.194 2.75-1.194 2.067 0 3.75 1.677 3.75 3.738 0 3.513-5.433 7.653-6.053 8.113-.133.099-.29.149-.447.149z" fill="#52386b" data-original="#000000" class=""/><path xmlns="http://www.w3.org/2000/svg" d="m19.14 13.46c-.48.35-1.05.54-1.64.54s-1.16-.19-1.64-.54c-1.61-1.2-6.86-5.42-6.86-9.72 0-1.35.46-2.59 1.26-3.57-4.13.81-7.26 4.47-7.26 8.83 0 .62-.18 1.23-.51 1.76l-2.33 3.7c-.11.17-.16.35-.16.54 0 .56.44 1 1 1h2v3c0 1.1.9 2 2 2 .22 0 .43-.03.59-.09l2.41-.74v3.33c0 .28.22.5.5.5h9c.28 0 .5-.22.5-.5v-5.03c0-1.54.47-3.03 1.36-4.3.35-.5.65-1.03.89-1.58-.45.37-.83.66-1.11.87z" fill="#52386b" data-original="#000000" class=""/></g></svg>
