<?xml version="1.0"?>
<svg id="icon-datatable" xmlns="http://www.w3.org/2000/svg" xmlns:xlink="http://www.w3.org/1999/xlink" xmlns:svgjs="http://svgjs.com/svgjs" version="1.1" viewBox="0 0 512 512" style="enable-background:new 0 0 512 512" xml:space="preserve" class=""><g><path xmlns="http://www.w3.org/2000/svg" d="m448 0h-384c-35.285156 0-64 28.714844-64 64v341.332031c0 35.285157 28.714844 64 64 64h384c35.285156 0 64-28.714843 64-64v-341.332031c0-35.285156-28.714844-64-64-64zm-288 149.332031h74.667969v64h-74.667969zm-42.667969 64h-74.664062v-64h74.664062zm160-64h74.667969v64h-74.667969zm117.335938 0h74.664062v64h-74.664062zm-352 106.667969h74.664062v64h-74.664062zm117.332031 0h74.667969v64h-74.667969zm74.667969 106.667969v64h-74.667969v-64zm42.664062 0h74.667969v64h-74.667969zm0-42.667969v-64h74.667969v64zm117.335938-64h74.664062v64h-74.664062zm-352 149.332031v-42.664062h74.664062v64h-53.332031c-11.753906 0-21.332031-9.578125-21.332031-21.335938zm405.332031 21.335938h-53.332031v-64h74.664062v42.664062c0 11.757813-9.578125 21.335938-21.332031 21.335938zm0 0" fill="#52386b" data-original="#000000" class=""/></g></svg>
