<?xml version="1.0"?>
<svg id="icon-card" xmlns="http://www.w3.org/2000/svg" xmlns:xlink="http://www.w3.org/1999/xlink" xmlns:svgjs="http://svgjs.com/svgjs" version="1.1" viewBox="0 0 24 24" style="enable-background:new 0 0 512 512" xml:space="preserve" class=""><g><path xmlns="http://www.w3.org/2000/svg" d="m0 23c0 .552.448 1 1 1h22c.552 0 1-.448 1-1v-5c0-.552-.448-1-1-1h-22c-.552 0-1 .448-1 1z" fill="#52386b" data-original="#000000" class=""/><path xmlns="http://www.w3.org/2000/svg" d="m23 0h-22c-.552 0-1 .448-1 1v5c0 .552.448 1 1 1h22c.552 0 1-.448 1-1v-5c0-.552-.448-1-1-1z" fill="#52386b" data-original="#000000" class=""/><path xmlns="http://www.w3.org/2000/svg" d="m1 15.5h22c.552 0 1-.448 1-1v-5c0-.552-.448-1-1-1h-22c-.552 0-1 .448-1 1v5c0 .552.448 1 1 1z" fill="#52386b" data-original="#000000" class=""/></g></svg>
