<?xml version="1.0"?>
<svg id="icon-slider" xmlns="http://www.w3.org/2000/svg" xmlns:xlink="http://www.w3.org/1999/xlink" xmlns:svgjs="http://svgjs.com/svgjs" version="1.1" viewBox="0 0 24 24" style="enable-background:new 0 0 512 512" xml:space="preserve" class=""><g><g xmlns="http://www.w3.org/2000/svg" fill="rgb(0,0,0)"><path d="m2.25 5c0-1.51878 1.23122-2.75 2.75-2.75 1.25878 0 2.32002.84575 2.64648 2h12.85352c.4142 0 .75.33579.75.75s-.3358.75-.75.75h-12.85352c-.32646 1.15425-1.3877 2-2.64648 2-1.51878 0-2.75-1.23122-2.75-2.75z" fill="#52386b" data-original="#000000" class=""/><path d="m7.64648 19.75c-.32646 1.1543-1.3877 2-2.64648 2-1.51878 0-2.75-1.2312-2.75-2.75s1.23122-2.75 2.75-2.75c1.25878 0 2.32002.8457 2.64648 2h12.85352c.4142 0 .75.3358.75.75s-.3358.75-.75.75z" fill="#52386b" data-original="#000000" class=""/><path d="m2.75 12c0-.4142.33579-.75.75-.75h7.3535c.3265-1.1543 1.3877-2 2.6465-2s2.32.8457 2.6465 2h4.3535c.4142 0 .75.3358.75.75s-.3358.75-.75.75h-4.3535c-.3265 1.1543-1.3877 2-2.6465 2s-2.32-.8457-2.6465-2h-7.3535c-.41421 0-.75-.3358-.75-.75z" fill="#52386b" data-original="#000000" class=""/></g></g></svg>
