<?xml version="1.0"?>
<svg id="icon-progress-ring" xmlns="http://www.w3.org/2000/svg" xmlns:xlink="http://www.w3.org/1999/xlink" xmlns:svgjs="http://svgjs.com/svgjs" version="1.1" viewBox="0 0 16 16" style="enable-background:new 0 0 512 512" xml:space="preserve" class=""><g><g xmlns="http://www.w3.org/2000/svg" id="XMLID_214_"><path id="XMLID_215_" d="m16 6.8c-.2-1.3-.7-2.6-1.5-3.6l-1.6 1.2c.6.8 1 1.7 1.1 2.7 1.2-.2.7-.1 2-.3z" fill="#52386b" data-original="#000000" class=""/><path id="XMLID_557_" d="m12.8 1.6c-1-.8-2.3-1.4-3.6-1.6-.2 1.3-.1.8-.3 2 1 .1 1.9.5 2.7 1.1z" fill="#52386b" data-original="#000000" class=""/><path id="XMLID_558_" d="m8 14c-3.3 0-6-2.7-6-6 0-3 2.3-5.6 5.2-6l-.3-2c-3.9.6-6.9 4-6.9 8 0 4.4 3.6 8 8 8 4 0 7.4-2.9 7.9-6.9l-2-.3c-.3 2.9-2.9 5.2-5.9 5.2z" fill="#52386b" data-original="#000000" class=""/></g></g></svg>
