<?xml version="1.0"?>
<svg id="icon-dual-list-box" xmlns="http://www.w3.org/2000/svg" xmlns:xlink="http://www.w3.org/1999/xlink" xmlns:svgjs="http://svgjs.com/svgjs" version="1.1" viewBox="0 0 24 24" style="enable-background:new 0 0 512 512" xml:space="preserve" class=""><g><path xmlns="http://www.w3.org/2000/svg" d="m18 0h-12c-1.654 0-3 1.346-3 3v15c0 .265.105.52.293.707l5 5c.187.188.442.293.707.293h9c1.654 0 3-1.346 3-3v-18c0-1.654-1.346-3-3-3zm1 21c0 .551-.449 1-1 1h-8v-2.25c0-1.517-1.233-2.75-2.75-2.75h-2.25v-14c0-.551.449-1 1-1h12c.551 0 1 .449 1 1z" fill="#52386b" data-original="#000000"/><path xmlns="http://www.w3.org/2000/svg" d="m15.25 8h-6.5c-.965 0-1.75-.785-1.75-1.75v-.5c0-.965.785-1.75 1.75-1.75h6.5c.965 0 1.75.785 1.75 1.75v.5c0 .965-.785 1.75-1.75 1.75z" fill="#52386b" data-original="#000000"/><path xmlns="http://www.w3.org/2000/svg" d="m16 12h-8c-.552 0-1-.448-1-1s.448-1 1-1h8c.552 0 1 .448 1 1s-.448 1-1 1z" fill="#52386b" data-original="#000000"/><path xmlns="http://www.w3.org/2000/svg" d="m16 16h-8c-.552 0-1-.448-1-1s.448-1 1-1h8c.552 0 1 .448 1 1s-.448 1-1 1z" fill="#52386b" data-original="#000000"/></g></svg>
