<?xml version="1.0"?>
<svg id="icon-radio-button" xmlns="http://www.w3.org/2000/svg" xmlns:xlink="http://www.w3.org/1999/xlink" xmlns:svgjs="http://svgjs.com/svgjs" version="1.1" viewBox="0 0 512 512" style="enable-background:new 0 0 512 512" xml:space="preserve" class=""><g><g xmlns="http://www.w3.org/2000/svg"><g id="Page-1_46_"><g id="_x30_47---Radio-Buttons"><g clip-rule="evenodd" fill-rule="evenodd"><circle id="Oval_55_" cx="97.103" cy="370.759" r="97.103" fill="#52386b" data-original="#000000"/><path id="Rectangle_42_" d="m282.483 88.276h176.552c29.252 0 52.966 23.713 52.966 52.966 0 29.252-23.713 52.966-52.966 52.966h-176.552c-29.252 0-52.966-23.713-52.966-52.966 0-29.253 23.714-52.966 52.966-52.966z" fill="#52386b" data-original="#000000"/><path id="Rectangle_41_" d="m282.483 317.793h176.552c29.252 0 52.966 23.713 52.966 52.966 0 29.252-23.713 52.966-52.966 52.966h-176.552c-29.252 0-52.966-23.713-52.966-52.966 0-29.252 23.714-52.966 52.966-52.966z" fill="#52386b" data-original="#000000"/><circle id="Oval_54_" cx="97.103" cy="141.241" r="44.138" fill="#52386b" data-original="#000000"/></g><path id="Shape_85_" d="m97.103 44.138c-53.628 0-97.103 43.475-97.103 97.103s43.475 97.103 97.103 97.103 97.103-43.475 97.103-97.103c0-25.753-10.231-50.452-28.441-68.663s-42.908-28.44-68.662-28.44zm0 158.896c-34.127 0-61.793-27.666-61.793-61.793s27.666-61.793 61.793-61.793 61.793 27.666 61.793 61.793c-.043 34.11-27.683 61.75-61.793 61.793z" fill="#52386b" data-original="#000000"/></g></g></g></g></svg>
