<?xml version="1.0"?>
<svg id="icon-tile" xmlns="http://www.w3.org/2000/svg" xmlns:xlink="http://www.w3.org/1999/xlink" xmlns:svgjs="http://svgjs.com/svgjs" version="1.1" viewBox="0 0 512 512" style="enable-background:new 0 0 512 512" xml:space="preserve" class=""><g>
<g xmlns="http://www.w3.org/2000/svg">
	<g>
		<path d="M506.837,268.181l-126.272-75.776h-0.021l-19.691-11.819l18.219-11.605c3.072-1.963,4.928-5.355,4.928-9.003    c0-3.648-1.856-7.04-4.928-9.003L261.739,76.309c-3.499-2.219-7.957-2.219-11.456,0l-117.333,74.667    c-3.072,1.984-4.928,5.376-4.928,9.024s1.856,7.04,4.928,9.003l18.219,11.605l-19.691,11.819h-0.021L5.184,268.203    c-3.2,1.92-5.163,5.376-5.184,9.109c0,3.733,1.92,7.189,5.12,9.152l245.333,149.333c1.707,1.024,3.627,1.557,5.547,1.557    s3.84-0.512,5.547-1.557L506.88,286.464c3.2-1.941,5.141-5.419,5.12-9.152C512.021,273.557,510.037,270.101,506.837,268.181z     M135.936,341.099l-104.64-63.701l105.493-63.296l99.349,63.232L135.936,341.099z M256.043,264.683l-98.773-62.848l14.059-8.427    l78.955,50.261c1.749,1.109,3.733,1.664,5.739,1.664c2.005,0,3.989-0.555,5.739-1.664l78.997-50.261l14.059,8.427L256.043,264.683    z M376.085,341.099l-100.203-63.765l99.349-63.232l105.493,63.296L376.085,341.099z" fill="#52386b" data-original="#000000"/>
	</g>
</g>
<g xmlns="http://www.w3.org/2000/svg">
</g>
<g xmlns="http://www.w3.org/2000/svg">
</g>
<g xmlns="http://www.w3.org/2000/svg">
</g>
<g xmlns="http://www.w3.org/2000/svg">
</g>
<g xmlns="http://www.w3.org/2000/svg">
</g>
<g xmlns="http://www.w3.org/2000/svg">
</g>
<g xmlns="http://www.w3.org/2000/svg">
</g>
<g xmlns="http://www.w3.org/2000/svg">
</g>
<g xmlns="http://www.w3.org/2000/svg">
</g>
<g xmlns="http://www.w3.org/2000/svg">
</g>
<g xmlns="http://www.w3.org/2000/svg">
</g>
<g xmlns="http://www.w3.org/2000/svg">
</g>
<g xmlns="http://www.w3.org/2000/svg">
</g>
<g xmlns="http://www.w3.org/2000/svg">
</g>
<g xmlns="http://www.w3.org/2000/svg">
</g>
</g></svg>
