<?xml version="1.0"?>
<svg id="icon-inclusive" xmlns="http://www.w3.org/2000/svg" xmlns:xlink="http://www.w3.org/1999/xlink" xmlns:svgjs="http://svgjs.com/svgjs" version="1.1" viewBox="0 0 512 512" style="enable-background:new 0 0 512 512" xml:space="preserve" class=""><g><g xmlns="http://www.w3.org/2000/svg"><path d="m437.02 74.98c-48.353-48.351-112.64-74.98-181.02-74.98s-132.667 26.629-181.02 74.98c-48.351 48.352-74.98 112.64-74.98 181.02s26.629 132.668 74.98 181.02c48.353 48.351 112.64 74.98 181.02 74.98s132.667-26.629 181.02-74.98c48.351-48.352 74.98-112.64 74.98-181.02s-26.629-132.668-74.98-181.02zm-10.081 242.473c-16.695 17.097-39.048 26.512-62.939 26.512-32.303 0-61.945-17.651-77.36-46.065-3.95-7.282-1.25-16.387 6.031-20.337 7.284-3.951 16.387-1.25 20.338 6.032 10.164 18.733 29.702 30.371 50.991 30.371 15.744 0 30.474-6.204 41.476-17.471 10.997-11.262 16.848-26.147 16.473-41.914-.352-14.798-6.368-28.796-16.941-39.415-10.572-10.619-24.543-16.694-39.338-17.107-14.947-.343-28.944 4.603-40.158 14.765l-123.45 110.231c-15.147 13.52-34.393 20.986-54.062 20.91-23.894 0-46.247-9.417-62.942-26.515-16.69-17.094-25.567-39.678-24.997-63.592.537-22.483 9.632-43.72 25.61-59.8 15.979-16.082 37.16-25.309 59.639-25.982 33.859-1.036 65.697 17.825 81.091 47.999 3.764 7.379.833 16.414-6.546 20.178-7.38 3.766-16.414.835-20.179-6.546-10.146-19.893-31.145-32.309-53.468-31.645-14.77.443-28.713 6.53-39.257 17.142-10.545 10.612-16.546 24.594-16.898 39.37-.377 15.768 5.473 30.654 16.47 41.917 11.002 11.268 25.732 17.473 41.478 17.473 12.328.071 24.409-4.661 34.081-13.287l123.448-110.231c16.85-15.229 38.461-22.956 60.977-22.376 22.515.629 43.738 9.837 59.76 25.928 16.02 16.09 25.138 37.352 25.673 59.87.567 23.912-8.311 46.494-25.001 63.585z" fill="#52386b" data-original="#000000" class=""/></g></g></svg>
