<?xml version="1.0"?>
<svg id="icon-toggle" xmlns="http://www.w3.org/2000/svg" xmlns:xlink="http://www.w3.org/1999/xlink" xmlns:svgjs="http://svgjs.com/svgjs" version="1.1" viewBox="0 0 512 512" style="enable-background:new 0 0 512 512" xml:space="preserve" class=""><g><path xmlns="http://www.w3.org/2000/svg" d="m394.667969 0h-277.335938c-64.679687 0-117.332031 52.628906-117.332031 117.332031 0 64.707031 52.652344 117.335938 117.332031 117.335938h277.335938c64.679687 0 117.332031-52.628907 117.332031-117.335938 0-64.703125-52.652344-117.332031-117.332031-117.332031zm-277.335938 170.667969c-29.417969 0-53.332031-23.9375-53.332031-53.335938 0-29.394531 23.914062-53.332031 53.332031-53.332031 29.421875 0 53.335938 23.9375 53.335938 53.332031 0 29.398438-23.914063 53.335938-53.335938 53.335938zm0 0" fill="#52386b" data-original="#000000" class=""/><path xmlns="http://www.w3.org/2000/svg" d="m394.667969 277.332031h-277.335938c-64.679687 0-117.332031 52.628907-117.332031 117.335938 0 64.703125 52.652344 117.332031 117.332031 117.332031h277.335938c64.679687 0 117.332031-52.628906 117.332031-117.332031 0-64.707031-52.652344-117.335938-117.332031-117.335938zm0 170.667969c-29.421875 0-53.335938-23.9375-53.335938-53.332031 0-29.398438 23.914063-53.335938 53.335938-53.335938 29.417969 0 53.332031 23.9375 53.332031 53.335938 0 29.394531-23.914062 53.332031-53.332031 53.332031zm0 0" fill="#52386b" data-original="#000000" class=""/></g></svg>
