<?xml version="1.0"?>
<svg id="icon-footer" xmlns="http://www.w3.org/2000/svg" xmlns:xlink="http://www.w3.org/1999/xlink" xmlns:svgjs="http://svgjs.com/svgjs" version="1.1" viewBox="0 0 24 24" style="enable-background:new 0 0 512 512" xml:space="preserve" class=""><g><path xmlns="http://www.w3.org/2000/svg" d="m23.25 9h-22.5c-.414 0-.75.336-.75.75s.336.75.75.75h22.5c.414 0 .75-.336.75-.75s-.336-.75-.75-.75z" fill="#52386b" data-original="#000000"/><path xmlns="http://www.w3.org/2000/svg" d="m23.25 6h-22.5c-.414 0-.75.336-.75.75s.336.75.75.75h22.5c.414 0 .75-.336.75-.75s-.336-.75-.75-.75z" fill="#52386b" data-original="#000000"/><path xmlns="http://www.w3.org/2000/svg" d="m23.25 3h-22.5c-.414 0-.75.336-.75.75s.336.75.75.75h22.5c.414 0 .75-.336.75-.75s-.336-.75-.75-.75z" fill="#52386b" data-original="#000000"/><path xmlns="http://www.w3.org/2000/svg" d="m23.25 0h-22.5c-.414 0-.75.336-.75.75s.336.75.75.75h22.5c.414 0 .75-.336.75-.75s-.336-.75-.75-.75z" fill="#52386b" data-original="#000000"/><path xmlns="http://www.w3.org/2000/svg" d="m23.25 12h-22.5c-.414 0-.75.336-.75.75s.336.75.75.75h22.5c.414 0 .75-.336.75-.75s-.336-.75-.75-.75z" fill="#52386b" data-original="#000000"/><path xmlns="http://www.w3.org/2000/svg" d="m23.25 15h-22.5c-.414 0-.75.336-.75.75s.336.75.75.75h22.5c.414 0 .75-.336.75-.75s-.336-.75-.75-.75z" fill="#52386b" data-original="#000000"/><path xmlns="http://www.w3.org/2000/svg" d="m22.25 18h-20.5c-.965 0-1.75.785-1.75 1.75v2.5c0 .965.785 1.75 1.75 1.75h20.5c.965 0 1.75-.785 1.75-1.75v-2.5c0-.965-.785-1.75-1.75-1.75z" fill="#52386b" data-original="#000000"/></g></svg>
