<?xml version="1.0"?>
<svg id="icon-combobox" xmlns="http://www.w3.org/2000/svg" xmlns:xlink="http://www.w3.org/1999/xlink" xmlns:svgjs="http://svgjs.com/svgjs" version="1.1" viewBox="0 0 24 24" style="enable-background:new 0 0 512 512" xml:space="preserve" class=""><g><path xmlns="http://www.w3.org/2000/svg" d="m21 0h-18c-1.654 0-3 1.346-3 3v3c0 1.654 1.346 3 3 3h18c1.654 0 3-1.346 3-3v-3c0-1.654-1.346-3-3-3zm1 6c0 .551-.449 1-1 1h-8v-5h8c.551 0 1 .449 1 1z" fill="#52386b" data-original="#000000" class=""/><path xmlns="http://www.w3.org/2000/svg" d="m17.5 6c-.145 0-.29-.042-.416-.126l-2.25-1.5c-.345-.23-.438-.695-.208-1.04s.695-.438 1.04-.208l1.834 1.223 1.834-1.223c.344-.23.81-.137 1.04.208s.137.81-.208 1.04l-2.25 1.5c-.126.084-.271.126-.416.126z" fill="#52386b" data-original="#000000" class=""/><path xmlns="http://www.w3.org/2000/svg" d="m21 24h-18c-1.654 0-3-1.346-3-3v-9c0-.552.448-1 1-1h22c.552 0 1 .448 1 1v9c0 1.654-1.346 3-3 3zm-19-11v8c0 .551.449 1 1 1h18c.551 0 1-.449 1-1v-8z" fill="#52386b" data-original="#000000" class=""/><path xmlns="http://www.w3.org/2000/svg" d="m18 19c-.827 0-1.5-.673-1.5-1.5s.673-1.5 1.5-1.5 1.5.673 1.5 1.5-.673 1.5-1.5 1.5z" fill="#52386b" data-original="#000000" class=""/></g></svg>
