<?xml version="1.0"?>
<svg id="icon-tab" xmlns="http://www.w3.org/2000/svg" xmlns:xlink="http://www.w3.org/1999/xlink" xmlns:svgjs="http://svgjs.com/svgjs" version="1.1" viewBox="0 0 24 24" style="enable-background:new 0 0 512 512" xml:space="preserve" class=""><g><g xmlns="http://www.w3.org/2000/svg"><path d="m17.5 7h-15c-1.381 0-2.5 1.119-2.5 2.5v12c0 1.381 1.119 2.5 2.5 2.5h15c1.381 0 2.5-1.119 2.5-2.5v-12c0-1.381-1.119-2.5-2.5-2.5zm-.5 15h-14c-.551 0-1-.448-1-1v-9h16v9c0 .552-.449 1-1 1z" fill="#52386b" data-original="#000000" class=""/></g><g xmlns="http://www.w3.org/2000/svg"><path d="m21.5 0h-15c-1.38 0-2.5 1.12-2.5 2.5v2.5h18v11.95c1.14-.23 2-1.24 2-2.45v-12c0-1.38-1.12-2.5-2.5-2.5z" fill="#52386b" data-original="#000000" class=""/></g></g></svg>
