<?xml version="1.0"?>
<svg id="icon-carousel" xmlns="http://www.w3.org/2000/svg" xmlns:xlink="http://www.w3.org/1999/xlink" xmlns:svgjs="http://svgjs.com/svgjs" version="1.1" viewBox="0 0 24 24" style="enable-background:new 0 0 512 512" xml:space="preserve"><g><path xmlns="http://www.w3.org/2000/svg" d="m22.25 0h-11.5c-.96 0-1.75.79-1.75 1.75v20.5c0 .96.79 1.75 1.75 1.75h11.5c.96 0 1.75-.79 1.75-1.75v-20.5c0-.96-.79-1.75-1.75-1.75zm-11.75 1.75c0-.14.11-.25.25-.25h11.5c.14 0 .25.11.25.25v13.26c-1.75.07-3.34.68-4.46 1.24-1.71-.67-3.37-1.25-4.95-1.25-.85 0-1.72.12-2.59.37z" fill="#52386b" data-original="#000000"/><path xmlns="http://www.w3.org/2000/svg" d="m1.75 24h3.5c.96 0 1.75-.79 1.75-1.75v-20.5c0-.96-.79-1.75-1.75-1.75h-3.5c-.96 0-1.75.79-1.75 1.75v13.96.08 6.46c0 .96.79 1.75 1.75 1.75zm-.25-22.25c0-.14.11-.25.25-.25h3.5c.14 0 .25.11.25.25v12.28c-1.03.3-2.12.93-2.86 1.64-.4-.2-.79-.36-1.14-.47z" fill="#52386b" data-original="#000000"/><path xmlns="http://www.w3.org/2000/svg" d="m16.75 9c.96 0 1.75-.79 1.75-1.75 0-.83-.58-1.52-1.35-1.7-.4-.65-1.11-1.05-1.9-1.05s-1.5.4-1.9 1.05c-.77.18-1.35.87-1.35 1.7 0 .96.79 1.75 1.75 1.75z" fill="#52386b" data-original="#000000"/></g></svg>
