<?xml version="1.0"?>
<svg id="icon-progress-bar" xmlns="http://www.w3.org/2000/svg" xmlns:xlink="http://www.w3.org/1999/xlink" xmlns:svgjs="http://svgjs.com/svgjs" version="1.1" viewBox="0 0 512 512" style="enable-background:new 0 0 512 512" xml:space="preserve" class=""><g><g xmlns="http://www.w3.org/2000/svg"><g><path d="m484.13 336.5h-456.26c-15.37 0-27.87 12.5-27.87 27.87v74.26c0 15.37 12.5 27.87 27.87 27.87h456.26c15.37 0 27.87-12.5 27.87-27.87v-74.26c0-15.37-12.5-27.87-27.87-27.87zm-148.13 80h-271c-8.28 0-15-6.72-15-15s6.72-15 15-15h271c8.28 0 15 6.72 15 15s-6.72 15-15 15z" fill="#52386b" data-original="#000000"/></g><g><g><path d="m256 114.53c-8.284 0-15-6.716-15-15v-39.03c0-8.284 6.716-15 15-15 8.285 0 15 6.716 15 15v39.03c0 8.284-6.715 15-15 15z" fill="#52386b" data-original="#000000"/></g><g><path d="m256 301.874c-8.284 0-15-6.716-15-15v-39.03c0-8.284 6.716-15 15-15 8.285 0 15 6.716 15 15v39.03c0 8.284-6.715 15-15 15z" fill="#52386b" data-original="#000000"/></g><g><path d="m369.187 188.687h-39.03c-8.284 0-15-6.716-15-15s6.716-15 15-15h39.03c8.284 0 15 6.716 15 15s-6.715 15-15 15z" fill="#52386b" data-original="#000000"/></g><g><path d="m181.844 188.687h-39.031c-8.284 0-15-6.716-15-15s6.716-15 15-15h39.031c8.284 0 15 6.716 15 15s-6.716 15-15 15z" fill="#52386b" data-original="#000000"/></g><g><path d="m192.957 131.857-27.599-27.6c-5.857-5.858-5.857-15.355 0-21.213 5.858-5.858 15.356-5.858 21.213 0l27.599 27.6c5.857 5.858 5.857 15.355 0 21.213-5.857 5.857-15.355 5.86-21.213 0z" fill="#52386b" data-original="#000000"/></g><g><path d="m325.43 264.329-27.599-27.6c-5.858-5.858-5.858-15.355 0-21.213 5.857-5.857 15.355-5.859 21.213 0l27.599 27.6c5.858 5.858 5.858 15.355 0 21.213s-15.357 5.859-21.213 0z" fill="#52386b" data-original="#000000"/></g><g><path d="m297.831 131.857c-5.858-5.857-5.858-15.354 0-21.213l27.599-27.6c5.857-5.857 15.355-5.859 21.213 0 5.858 5.857 5.858 15.354 0 21.213l-27.599 27.6c-5.858 5.858-15.356 5.859-21.213 0z" fill="#52386b" data-original="#000000"/></g><g><path d="m165.359 264.329c-5.858-5.857-5.858-15.354 0-21.213l27.599-27.6c5.858-5.857 15.355-5.859 21.213 0 5.858 5.857 5.858 15.354 0 21.213l-27.599 27.6c-5.859 5.858-15.356 5.858-21.213 0z" fill="#52386b" data-original="#000000"/></g></g></g></g></svg>
