<?xml version="1.0"?>
<svg id="icon-datepicker" xmlns="http://www.w3.org/2000/svg" xmlns:xlink="http://www.w3.org/1999/xlink" xmlns:svgjs="http://svgjs.com/svgjs" version="1.1" viewBox="0 0 24 24" style="enable-background:new 0 0 512 512" xml:space="preserve" class=""><g><g xmlns="http://www.w3.org/2000/svg"><path d="m6.75 20h3.5c.414 0 .75-.336.75-.75s-.336-.75-.75-.75h-2.75v-.5c0-.551.449-1 1-1 1.378 0 2.5-1.122 2.5-2.5s-1.122-2.5-2.5-2.5h-1.75c-.414 0-.75.336-.75.75s.336.75.75.75h1.75c.551 0 1 .449 1 1s-.449 1-1 1c-1.378 0-2.5 1.122-2.5 2.5v1.25c0 .414.336.75.75.75z" fill="#52386b" data-original="#000000" class=""/><path d="m15.5 18.5h-1.75c-.414 0-.75.336-.75.75s.336.75.75.75h1.75c1.378 0 2.5-1.122 2.5-2.5s-1.122-2.5-2.5-2.5h-1v-1.5h2.75c.414 0 .75-.336.75-.75s-.336-.75-.75-.75h-3.5c-.414 0-.75.336-.75.75v3c0 .414.336.75.75.75h1.75c.551 0 1 .449 1 1s-.449 1-1 1z" fill="#52386b" data-original="#000000" class=""/><path d="m21 3h-1v-2c0-.552-.448-1-1-1h-1c-.552 0-1 .448-1 1v2h-10v-2c0-.552-.448-1-1-1h-1c-.552 0-1 .448-1 1v2h-1c-1.654 0-3 1.346-3 3v15c0 1.654 1.346 3 3 3h18c1.654 0 3-1.346 3-3v-15c0-1.654-1.346-3-3-3zm1 18c0 .551-.449 1-1 1h-18c-.551 0-1-.449-1-1v-10.96h20z" fill="#52386b" data-original="#000000" class=""/></g></g></svg>
