<?xml version="1.0"?>
<svg id="icon-pagination" xmlns="http://www.w3.org/2000/svg" xmlns:xlink="http://www.w3.org/1999/xlink" xmlns:svgjs="http://svgjs.com/svgjs" version="1.1" viewBox="0 0 64 64" style="enable-background:new 0 0 512 512" xml:space="preserve" class=""><g><path xmlns="http://www.w3.org/2000/svg" d="m15.74 22.57a1 1 0 0 0 1 0l7.76-3.88a1 1 0 0 0 0-1.79l-7.76-3.88a1 1 0 0 0 -1.45.89v7.76a1 1 0 0 0 .45.9z" fill="#52386b" data-original="#000000" class=""/><path xmlns="http://www.w3.org/2000/svg" d="m28.15 22.57a1 1 0 0 0 1 0l7.76-3.88a1 1 0 0 0 0-1.79l-7.76-3.88a1 1 0 0 0 -1.45.89v7.76a1 1 0 0 0 .45.9z" fill="#52386b" data-original="#000000" class=""/><path xmlns="http://www.w3.org/2000/svg" d="m40.56 22.57a1 1 0 0 0 1 0l7.76-3.88a1 1 0 0 0 0-1.79l-7.76-3.88a1 1 0 0 0 -1.45.89v7.76a1 1 0 0 0 .45.9z" fill="#52386b" data-original="#000000" class=""/><path xmlns="http://www.w3.org/2000/svg" d="m9.17 30.55a8.17 8.17 0 1 0 8.17 8.17 8.18 8.18 0 0 0 -8.17-8.17zm1 11.59a1 1 0 0 1 -2 0v-6.84a1 1 0 0 1 2 0z" fill="#52386b" data-original="#000000" class=""/><path xmlns="http://www.w3.org/2000/svg" d="m32 26.4a12.32 12.32 0 1 0 12.32 12.32 12.33 12.33 0 0 0 -12.32-12.32zm3.13 12.36a1 1 0 0 1 -1 1h-3.25v2.24h3.25a1 1 0 0 1 0 2h-4.25a1 1 0 0 1 -1-1v-4.32a1 1 0 0 1 1-1h3.25v-2.25h-3.25a1 1 0 0 1 0-2h4.25a1 1 0 0 1 1 1z" fill="#52386b" data-original="#000000" class=""/><path xmlns="http://www.w3.org/2000/svg" d="m54.83 30.55a8.17 8.17 0 1 0 8.17 8.17 8.18 8.18 0 0 0 -8.17-8.17zm2.69 11.59a1 1 0 0 1 -1 1h-3.38a1 1 0 0 1 0-2h2.38v-1.39h-2.38a1 1 0 0 1 -1-1.07 1 1 0 0 1 1-1h2.38v-1.38h-2.38a1 1 0 0 1 0-2h3.38a1 1 0 0 1 1 1z" fill="#52386b" data-original="#000000" class=""/></g></svg>
