<?xml version="1.0"?>
<svg id="icon-accordian" xmlns="http://www.w3.org/2000/svg" xmlns:xlink="http://www.w3.org/1999/xlink" xmlns:svgjs="http://svgjs.com/svgjs" version="1.1" viewBox="0 0 24 24" style="enable-background:new 0 0 512 512" xml:space="preserve" class=""><g><path xmlns="http://www.w3.org/2000/svg" d="m21 1h-18c-1.654 0-3 1.346-3 3v16c0 1.654 1.346 3 3 3h18c1.654 0 3-1.346 3-3v-16c0-1.654-1.346-3-3-3zm0 20h-18c-.551 0-1-.448-1-1v-14h20v14c0 .552-.449 1-1 1z" fill="#52386b" data-original="#000000" class=""/><path xmlns="http://www.w3.org/2000/svg" d="m19.25 17h-14.5c-.965 0-1.75-.785-1.75-1.75v-3.5c0-.965.785-1.75 1.75-1.75h14.5c.965 0 1.75.785 1.75 1.75v3.5c0 .965-.785 1.75-1.75 1.75zm-14.5-5.5c-.138 0-.25.112-.25.25v3.5c0 .138.112.25.25.25h14.5c.138 0 .25-.112.25-.25v-3.5c0-.138-.112-.25-.25-.25z" fill="#52386b" data-original="#000000" class=""/><path xmlns="http://www.w3.org/2000/svg" d="m13.25 16.75c-.414 0-.75-.336-.75-.75v-5c0-.414.336-.75.75-.75s.75.336.75.75v5c0 .414-.336.75-.75.75z" fill="#52386b" data-original="#000000" class=""/><path xmlns="http://www.w3.org/2000/svg" d="m16.75 14.75c-.192 0-.384-.073-.53-.22l-1-1c-.214-.215-.279-.537-.163-.817s.39-.463.693-.463h2c.303 0 .577.183.693.463s.052.603-.163.817l-1 1c-.146.147-.338.22-.53.22z" fill="#52386b" data-original="#000000" class=""/></g></svg>
