<?xml version="1.0"?>
<svg id="icon-timepicker" xmlns="http://www.w3.org/2000/svg" xmlns:xlink="http://www.w3.org/1999/xlink" xmlns:svgjs="http://svgjs.com/svgjs" version="1.1" viewBox="0 0 24 24" style="enable-background:new 0 0 512 512" xml:space="preserve" class=""><g><path xmlns="http://www.w3.org/2000/svg" d="m12 7.5c-3.309 0-6 2.691-6 6s2.691 6 6 6 6-2.691 6-6-2.691-6-6-6zm2.457 8.457c-.195.195-.451.293-.707.293s-.512-.098-.707-.293l-1.75-1.75c-.188-.187-.293-.441-.293-.707v-2.75c0-.553.447-1 1-1s1 .447 1 1v2.336l1.457 1.457c.391.391.391 1.023 0 1.414z" fill="#52386b" data-original="#000000" class=""/><path xmlns="http://www.w3.org/2000/svg" d="m21 1h-18c-1.654 0-3 1.346-3 3v16c0 1.654 1.346 3 3 3h18c1.654 0 3-1.346 3-3v-16c0-1.654-1.346-3-3-3zm0 20h-18c-.551 0-1-.448-1-1v-14h20v14c0 .552-.449 1-1 1z" fill="#52386b" data-original="#000000" class=""/></g></svg>
