<?xml version="1.0"?>
<svg id="icon-map" xmlns="http://www.w3.org/2000/svg" xmlns:xlink="http://www.w3.org/1999/xlink" xmlns:svgjs="http://svgjs.com/svgjs" version="1.1" viewBox="0 0 512 512" style="enable-background:new 0 0 512 512" xml:space="preserve" class=""><g>
<g xmlns="http://www.w3.org/2000/svg">
	<g>
		<g>
			<polygon points="0,351.904 160,298.56 160,172.288 0,225.632    " fill="#52386b" data-original="#000000" class=""/>
			<polygon points="0,191.904 160,138.56 160,10.592 0,50.624    " fill="#52386b" data-original="#000000" class=""/>
			<polygon points="0,497.696 160,457.664 160,332.288 0,385.632    " fill="#52386b" data-original="#000000" class=""/>
			<polygon points="192,458.656 352,512 352,385.664 192,332.32    " fill="#52386b" data-original="#000000" class=""/>
			<polygon points="384,64 384,190.464 512,139.264 512,0    " fill="#52386b" data-original="#000000" class=""/>
			<polygon points="384,350.496 512,299.296 512,173.728 384,224.928    " fill="#52386b" data-original="#000000" class=""/>
			<polygon points="192,298.56 352,351.904 352,225.632 192,172.288    " fill="#52386b" data-original="#000000" class=""/>
			<polygon points="384,508.32 512,444.32 512,333.728 384,384.928    " fill="#52386b" data-original="#000000" class=""/>
			<polygon points="192,138.592 352,191.904 352,65.632 192,12.32    " fill="#52386b" data-original="#000000" class=""/>
		</g>
	</g>
</g>
<g xmlns="http://www.w3.org/2000/svg">
</g>
<g xmlns="http://www.w3.org/2000/svg">
</g>
<g xmlns="http://www.w3.org/2000/svg">
</g>
<g xmlns="http://www.w3.org/2000/svg">
</g>
<g xmlns="http://www.w3.org/2000/svg">
</g>
<g xmlns="http://www.w3.org/2000/svg">
</g>
<g xmlns="http://www.w3.org/2000/svg">
</g>
<g xmlns="http://www.w3.org/2000/svg">
</g>
<g xmlns="http://www.w3.org/2000/svg">
</g>
<g xmlns="http://www.w3.org/2000/svg">
</g>
<g xmlns="http://www.w3.org/2000/svg">
</g>
<g xmlns="http://www.w3.org/2000/svg">
</g>
<g xmlns="http://www.w3.org/2000/svg">
</g>
<g xmlns="http://www.w3.org/2000/svg">
</g>
<g xmlns="http://www.w3.org/2000/svg">
</g>
</g></svg>
