<?xml version="1.0"?>
<svg xmlns="http://www.w3.org/2000/svg" xmlns:xlink="http://www.w3.org/1999/xlink" xmlns:svgjs="http://svgjs.com/svgjs" version="1.1" width="512" height="512" x="0" y="0" viewBox="0 0 512 512" style="enable-background:new 0 0 512 512" xml:space="preserve"><g>
<g xmlns="http://www.w3.org/2000/svg">
	<g>
		<path d="M256,0c-5.888,0-10.667,4.779-10.667,10.667v42.667C245.333,59.221,250.112,64,256,64s10.667-4.779,10.667-10.667V10.667    C266.667,4.779,261.888,0,256,0z" fill="#52386b" data-original="#000000"/>
	</g>
</g>
<g xmlns="http://www.w3.org/2000/svg">
	<g>
		<path d="M426.667,170.667H384c-5.888,0-10.667,4.779-10.667,10.667S378.112,192,384,192h42.667    c5.888,0,10.667-4.779,10.667-10.667S432.555,170.667,426.667,170.667z" fill="#52386b" data-original="#000000"/>
	</g>
</g>
<g xmlns="http://www.w3.org/2000/svg">
	<g>
		<path d="M128,170.667H85.333c-5.888,0-10.667,4.779-10.667,10.667S79.445,192,85.333,192H128c5.888,0,10.667-4.779,10.667-10.667    S133.888,170.667,128,170.667z" fill="#52386b" data-original="#000000"/>
	</g>
</g>
<g xmlns="http://www.w3.org/2000/svg">
	<g>
		<path d="M384.213,53.12c-4.16-4.16-10.923-4.16-15.083,0l-30.165,30.165c-4.16,4.16-4.16,10.923,0,15.083    c2.091,2.069,4.821,3.115,7.552,3.115c2.731,0,5.461-1.045,7.531-3.115l30.165-30.165C388.373,64.043,388.373,57.28,384.213,53.12    z" fill="#52386b" data-original="#000000"/>
	</g>
</g>
<g xmlns="http://www.w3.org/2000/svg">
	<g>
		<path d="M173.035,83.285L142.869,53.12c-4.16-4.16-10.923-4.16-15.083,0c-4.16,4.16-4.16,10.923,0,15.083l30.144,30.165    c2.091,2.069,4.821,3.115,7.552,3.115s5.461-1.045,7.552-3.115C177.195,94.208,177.195,87.445,173.035,83.285z" fill="#52386b" data-original="#000000"/>
	</g>
</g>
<g xmlns="http://www.w3.org/2000/svg">
	<g>
		<path d="M256,106.667c-41.173,0-74.667,33.493-74.667,74.667c0,5.888,4.779,10.667,10.667,10.667s10.667-4.779,10.667-10.667    C202.667,151.936,226.603,128,256,128s53.333,23.936,53.333,53.333c0,5.888,4.779,10.667,10.667,10.667    s10.667-4.779,10.667-10.667C330.667,140.16,297.173,106.667,256,106.667z" fill="#52386b" data-original="#000000"/>
	</g>
</g>
<g xmlns="http://www.w3.org/2000/svg">
	<g>
		<path d="M354.176,322.901c-8.576-11.456-24.64-14.187-36.565-6.272l-34.347,22.912c-3.285,2.176-7.509,2.389-10.944,0.533    c-3.477-1.856-5.653-5.461-5.653-9.408V181.333c0-5.888-4.779-10.667-10.667-10.667s-10.667,4.779-10.667,10.667v117.333    c0,5.888-4.779,10.667-10.667,10.667S224,304.555,224,298.667v-53.333c0-5.888-4.779-10.667-10.667-10.667    s-10.667,4.779-10.667,10.667v53.333c0,5.888-4.779,10.667-10.667,10.667s-10.667-4.779-10.667-10.667v-32    c0-5.888-4.779-10.667-10.667-10.667S160,260.779,160,266.667v32c0,5.888-4.779,10.667-10.667,10.667s-10.667-4.779-10.667-10.667    V288c0-5.888-4.779-10.667-10.667-10.667s-10.667,4.779-10.667,10.667v85.333c0,20.907,8.683,39.765,22.571,53.333H128    c-5.888,0-10.667,4.779-10.667,10.667v64c0,5.888,4.779,10.667,10.667,10.667h149.333c5.888,0,10.667-4.779,10.667-10.667v-64    c0-5.888-4.779-10.667-10.667-10.667h-6.464l82.645-90.155C356.971,332.736,357.248,326.997,354.176,322.901z" fill="#52386b" data-original="#000000"/>
	</g>
</g>
<g xmlns="http://www.w3.org/2000/svg">
</g>
<g xmlns="http://www.w3.org/2000/svg">
</g>
<g xmlns="http://www.w3.org/2000/svg">
</g>
<g xmlns="http://www.w3.org/2000/svg">
</g>
<g xmlns="http://www.w3.org/2000/svg">
</g>
<g xmlns="http://www.w3.org/2000/svg">
</g>
<g xmlns="http://www.w3.org/2000/svg">
</g>
<g xmlns="http://www.w3.org/2000/svg">
</g>
<g xmlns="http://www.w3.org/2000/svg">
</g>
<g xmlns="http://www.w3.org/2000/svg">
</g>
<g xmlns="http://www.w3.org/2000/svg">
</g>
<g xmlns="http://www.w3.org/2000/svg">
</g>
<g xmlns="http://www.w3.org/2000/svg">
</g>
<g xmlns="http://www.w3.org/2000/svg">
</g>
<g xmlns="http://www.w3.org/2000/svg">
</g>
</g></svg>
